<svg xmlns="http://www.w3.org/2000/svg" width="377" height="213" viewBox="0 0 377 213" fill="none"><title>11. sparkles.dev/404.svg</title>
<path d="M101.392 40.8184C101.568 42.4757 102.241 53.8349 103.41 74.8962C104.586 96.0237 105.503 109.67 106.159 115.835C106.335 117.492 107.385 118.219 109.307 118.014C113.219 117.598 116.977 116.695 120.584 115.305C124.264 113.975 126.336 113.285 126.8 113.236C130.38 112.855 132.462 115.415 133.048 120.918C133.987 129.734 132.721 137.68 129.25 144.753C127.645 147.941 124.854 149.747 120.876 150.17L112.623 151.049C110.7 151.253 109.82 152.118 109.982 153.643C110.399 157.554 111.403 161.637 112.996 165.893C114.582 170.082 115.389 172.309 115.417 172.574C115.84 176.552 113.297 179.739 107.786 182.135C102.261 184.4 96.6154 185.839 90.8479 186.453C84.4176 187.137 80.5497 181.347 79.2442 169.083L78.0587 157.946C77.8328 155.825 76.4272 154.902 73.8419 155.177L45.7008 158.173C40.066 158.772 35.6512 158.237 32.4563 156.566C28.504 154.707 25.0672 152.022 22.1459 148.512C19.2245 145.001 17.591 141.622 17.2452 138.373C16.5466 131.811 24.0902 116.392 39.8762 92.1181C48.2183 79.1623 57.7629 66.4807 68.51 54.0734C80.2189 40.6251 88.2278 33.6716 92.5368 33.2129C97.8402 32.6484 100.792 35.1835 101.392 40.8184ZM46.2254 123.422C46.3595 124.681 47.686 125.177 50.2051 124.909L71.8827 122.601C74.2692 122.347 75.3354 121.027 75.0814 118.641C74.6691 112.248 74.3435 105.411 74.1047 98.1287C73.8434 92.5249 73.6598 89.2258 73.554 88.2314C73.2717 85.5797 72.7328 84.2962 71.9373 84.3809C69.8159 84.6067 65.3084 89.8131 58.4146 100C50.0132 113.029 45.9502 120.836 46.2254 123.422Z" fill="#D4D4D8" style="fill:#D4D4D8;fill:color(display-p3 0.8311 0.8311 0.8483);fill-opacity:1;"/>
<path d="M347.199 45.6311C347.055 47.2915 345.541 58.5695 342.658 79.4651C339.768 100.427 338.055 113.997 337.519 120.173C337.375 121.834 338.266 122.748 340.193 122.915C344.111 123.255 347.973 123.088 351.779 122.414C355.646 121.813 357.811 121.533 358.276 121.573C361.863 121.884 363.417 124.796 362.939 130.309C362.172 139.142 359.409 146.698 354.648 152.977C352.463 155.798 349.377 157.036 345.392 156.691L337.123 155.973C335.197 155.806 334.168 156.486 334.035 158.014C333.695 161.932 333.9 166.133 334.649 170.614C335.403 175.029 335.769 177.369 335.746 177.635C335.4 181.62 332.293 184.262 326.426 185.559C320.57 186.724 314.753 187.056 308.975 186.554C302.532 185.995 299.844 179.572 300.91 167.285L301.878 156.127C302.063 154.002 300.86 152.827 298.269 152.602L270.075 150.156C264.43 149.666 260.199 148.295 257.383 146.043C253.86 143.462 251.001 140.169 248.805 136.165C246.61 132.16 245.653 128.53 245.936 125.276C246.506 118.701 256.862 105.011 277.002 84.2075C287.67 73.0881 299.465 62.4679 312.388 52.3471C326.455 41.3887 335.647 36.0968 339.964 36.4714C345.277 36.9324 347.689 39.9856 347.199 45.6311ZM277.242 116.148C277.132 117.41 278.34 118.15 280.863 118.369L302.582 120.254C304.973 120.461 306.272 119.369 306.48 116.978C307.298 110.625 308.288 103.852 309.447 96.6587C310.263 91.1085 310.715 87.8353 310.801 86.839C311.031 84.1823 310.748 82.8194 309.951 82.7503C307.826 82.5659 302.405 86.8132 293.689 95.4922C282.949 106.672 277.467 113.558 277.242 116.148Z" fill="#D4D4D8" style="fill:#D4D4D8;fill:color(display-p3 0.8311 0.8311 0.8483);fill-opacity:1;"/>
<g clip-path="url(#clip0_129_1073)">
<mask id="mask0_129_1073" style="mask-type:luminance" maskUnits="userSpaceOnUse" x="119" y="13" width="158" height="181">
<path d="M119.697 14.1442L276.664 13.9718V193.972H119.697V14.1442Z" fill="white" style="fill:white;fill-opacity:1;"/>
</mask>
<g mask="url(#mask0_129_1073)">
<g opacity="0.99">
<path d="M208.468 162.629C188.628 160.851 170.539 162.389 153.775 149.834C124.451 136.938 118.436 119.834 125.857 89.38C129.254 55.4656 156.26 23.1251 192.026 23.1251C197.146 23.1251 204.281 23.5424 209.443 24.9168C217.163 25.5699 223.164 30.2282 229.401 34.5509C251.309 46.5346 262.091 57.1983 266.014 82.6806C273.852 100.466 273.181 121.244 264.254 138.562C253.169 157.985 229.65 163.65 208.468 162.629Z" fill="#F87361" style="fill:#F87361;fill:color(display-p3 0.9725 0.4510 0.3804);fill-opacity:1;"/>
<path d="M233.895 85.1377C243.257 86.0131 250.537 91.9006 254.519 100.614C257.463 109.482 254.229 121.293 244.944 124.935C241.393 126.446 237.36 126.609 233.627 126.69C226.075 127.983 218.623 129.902 210.966 130.56C202.729 132.533 194.574 137.114 186.124 138.352C175.464 141.858 169.259 135.372 168.194 124.967C166.533 112.929 168.965 96.9989 181.583 92.1637C189.194 89.5556 197.985 85.6548 206.045 84.734C214.386 84.5979 222.451 84.5118 230.756 84.4982L233.895 85.1377Z" fill="black" style="fill:black;fill-opacity:1;"/>
<mask id="mask1_129_1073" style="mask-type:alpha" maskUnits="userSpaceOnUse" x="167" y="84" width="89" height="56">
<path d="M233.895 85.1377C243.257 86.0131 250.537 91.9006 254.519 100.614C257.463 109.482 254.229 121.293 244.944 124.935C241.393 126.446 237.36 126.609 233.627 126.69C226.075 127.983 218.623 129.902 210.966 130.56C202.729 132.533 194.574 137.114 186.124 138.352C175.464 141.858 169.259 135.372 168.194 124.967C166.533 112.929 168.965 96.9989 181.583 92.1637C189.194 89.5556 197.985 85.6548 206.045 84.734C214.386 84.5979 222.451 84.5118 230.756 84.4982L233.895 85.1377Z" fill="black" style="fill:black;fill-opacity:1;"/>
</mask>
<g mask="url(#mask1_129_1073)">
<path d="M190.148 136.733C190.103 136.684 190.062 136.625 190.03 136.57C187.345 135.241 188.991 131.381 190.134 129.44C192.411 125.308 197.818 126.12 201.764 126.541C206.178 120.717 219.772 123.502 214.936 131.844C207.257 135.364 198.349 136.715 190.153 136.729L190.148 136.733Z" fill="#E5A39B" style="fill:#E5A39B;fill:color(display-p3 0.8980 0.6392 0.6078);fill-opacity:1;"/>
</g>
<path d="M181.094 73.6271C180.84 73.2914 180.618 72.9376 180.419 72.5702C180.464 72.9694 180.768 73.3958 181.094 73.6271ZM181.643 80.4762C168.911 75.5548 175.91 52.8847 189.431 56.9352C196.435 59.5751 197.854 69.4405 194.235 75.3189C191.377 79.129 186.415 82.4039 181.643 80.4807V80.4762Z" fill="white" style="fill:white;fill-opacity:1;"/>
<path d="M210.773 60.4642C215.082 48.3217 231.089 55.1346 230.426 65.5715C229.937 83.919 202.93 79.2561 210.773 60.4596V60.4642Z" fill="white" style="fill:white;fill-opacity:1;"/>
<path d="M181.085 75.2963C178.94 74.6114 179.684 70.7514 181.711 70.2751C184.356 68.9007 184.31 74.371 182.301 74.7248C182.011 75.074 181.548 75.3326 181.085 75.2963Z" fill="white" style="fill:white;fill-opacity:1;"/>
<path d="M193.586 71.2457C188.66 69.8079 184.251 65.1088 183.307 59.9651C182.967 58.1054 184.305 55.1209 186.56 55.7831C189.458 55.4792 192.488 57.7108 194.153 59.9606C196.375 62.6776 199.609 71.5769 193.586 71.2412V71.2457Z" fill="black" style="fill:black;fill-opacity:1;"/>
<path d="M227.237 69.4224C222.729 68.1615 218.991 62.9679 218.234 58.5092C217.894 56.8718 218.161 53.0254 220.556 53.5788C224.607 53.6286 228.199 56.6359 229.764 60.2464C230.907 63.4034 233.016 70.9555 227.233 69.4179L227.237 69.4224Z" fill="black" style="fill:black;fill-opacity:1;"/>
<path d="M191.309 188.91C191.536 186.311 190.601 183.367 190.461 180.863C190.207 171.556 187.381 161.618 189.744 152.514C193.713 149.516 192.751 164.843 193.083 166.897C193.654 173.443 194.085 179.983 194.207 186.547C198.099 186.701 201.909 185.658 205.774 185.363C207.892 185.499 208.005 189.25 206.019 189.731C203.066 189.953 200.081 189.858 197.129 190.175C195.673 190.257 194.221 190.234 192.77 190.302H192.724C191.967 190.302 191.477 189.568 191.304 188.905L191.309 188.91Z" fill="black" style="fill:black;fill-opacity:1;"/>
<path d="M229.229 188.207C227.664 187.059 228.716 185 228.458 183.431C228.303 172.948 226.702 162.502 226.539 152.056C226.657 151.099 227.011 149.199 228.39 149.607C229.66 150.051 229.084 153.603 229.492 154.887C231.066 164.652 231.655 174.549 231.252 184.437C234.037 184.31 236.908 183.009 239.634 183.644C241.866 184.515 241.208 189.168 238.536 188.438C237.121 188.125 235.638 188.261 234.159 188.393C233.347 188.465 232.535 188.542 231.737 188.542C230.884 188.542 230.045 188.461 229.233 188.198L229.229 188.207Z" fill="black" style="fill:black;fill-opacity:1;"/>
<path d="M127.676 148.818C126.197 146.01 126.968 142.227 126.578 139.079C126.047 132.72 125.825 126.406 126.242 120.024C126.537 117.915 124.941 109.084 127.916 109.338C128.733 109.705 128.773 110.735 128.796 111.51C129.1 117.098 129.381 122.659 129.499 128.257C129.803 132.538 129.876 136.834 129.608 141.12C129.091 143.016 131.395 150.346 127.671 148.813L127.676 148.818Z" fill="black" style="fill:black;fill-opacity:1;"/>
<path d="M271.829 144.59C269.756 132.498 267.484 120.369 267.262 108.059C267.207 106.916 267.366 104.616 269.008 105.015C270.659 105.65 270.609 111.157 271.004 112.876C272.033 117.212 272.528 121.63 273.049 126.048C274.387 132.053 274.378 138.199 275.018 144.277C274.954 146.835 272.219 147.203 271.825 144.59H271.829Z" fill="black" style="fill:black;fill-opacity:1;"/>
<path d="M147.924 42.5884C142.195 49.7323 137.337 57.7245 132.797 65.703C126.76 79.6189 125.113 95.2086 123.68 110.168C122.128 122.455 130.13 133.228 139.029 140.794C147.461 145.615 156.238 149.829 164.489 154.986C169.832 157.839 175.624 159.595 181.67 160.044C202.621 162.734 224.761 165.328 244.501 155.962C270.691 142.817 277.499 107.927 266.005 82.6715C262.077 57.2164 251.309 46.5164 229.392 34.5463C205.189 17.6322 168.643 21.7417 147.919 42.5838V42.5929L147.924 42.5884ZM218.352 166.203C207.425 165.537 193.078 166.897 180.886 164.493C165.541 161.473 156.056 156.356 142.798 147.879C127.508 138.789 121.707 130.488 121.552 112.422C119.783 98.5832 122.918 84.7172 127.984 71.8717C131.1 63.8342 132.828 55.0347 138.131 48.0359C150.019 33.1947 157.558 24.5131 177.23 22.4901C189.962 18.3716 199.061 18.934 211.965 21.9458C217.957 23.0389 224.257 23.5606 229.709 26.4726C252.484 40.7922 271.589 64.0565 273.471 91.716C276.959 107.864 275.018 124.465 268.191 139.492C264.445 146.754 257.001 150.949 250.697 155.712C241.815 162.988 230.122 166.866 218.356 166.199L218.352 166.203Z" fill="black" style="fill:black;fill-opacity:1;"/>
</g>
<path d="M173.859 56.0253C173.061 55.9206 171.082 52.2404 173.072 53.531C173.146 52.2085 174.123 51.5159 175.376 51.9485C175.636 50.2514 176.818 49.9273 178.193 50.7528C178.546 49.2646 179.418 48.7061 180.867 49.2785C181.314 47.285 185.032 47.2538 185.147 49.4179C185.084 50.9826 183.735 49.9957 182.871 50.0366C182.064 51.4637 182.027 51.8945 180.258 51.2139C179.949 53.1779 179.358 54.1651 177.476 52.7306C177.161 54.8617 176.519 54.7795 174.851 53.8916C174.554 54.5676 174.976 56.1645 173.862 56.02L173.859 56.0253Z" fill="black" style="fill:black;fill-opacity:1;"/>
<path d="M216.964 48.5529C216.507 48.2352 216.539 47.6087 216.313 47.1456C215.538 48.1849 214.106 48.3606 214.224 46.7164C213.499 45.9921 214.626 44.5535 215.246 45.7147C216.215 44.5969 217.317 44.8986 217.743 46.2538C218.608 45.347 219.596 45.9273 220.043 46.9033C221.297 46.0889 222.105 46.3302 222.818 47.583C224.093 46.7541 224.816 46.8361 225.581 48.2049C226.089 49.6634 224.485 50.2775 224.179 48.5387L224.183 48.5395C223.787 48.1688 223.29 48.9885 222.814 48.9904C222.047 49.1863 221.957 48.1535 221.405 47.9471C220.188 48.7407 219.239 49.9686 218.562 47.7992C218.172 48.2468 217.577 48.974 216.959 48.5565L216.964 48.5529Z" fill="black" style="fill:black;fill-opacity:1;"/>
</g>
</g>
<defs>
<clipPath id="clip0_129_1073">
<rect width="156.967" height="180" fill="white" style="fill:white;fill-opacity:1;" transform="translate(119.697 13.9718)"/>
</clipPath>
</defs>
</svg>