<?xml version="1.0" encoding="UTF-8"?>
<svg version="1.1" xmlns="http://www.w3.org/2000/svg" width="392" height="207">
<path d="M0 0 C0.65912384 -0.0065712 1.31824768 -0.0131424 1.99734497 -0.01991272 C4.17246634 -0.03957491 6.34751879 -0.0512941 8.52270508 -0.0612793 C9.26905024 -0.06535482 10.01539539 -0.06943035 10.78435707 -0.07362938 C14.73693181 -0.09446271 18.68947214 -0.10877468 22.64208984 -0.11816406 C26.70609288 -0.12920645 30.76954508 -0.16358849 34.833354 -0.20333576 C37.97425795 -0.22959742 41.11503269 -0.23786443 44.25603676 -0.24144554 C45.75303163 -0.24628904 47.2500216 -0.25783861 48.74690819 -0.27648354 C57.03502642 -0.37328017 64.0781662 -0.19119007 71.35473633 4.17700195 C72.38598633 4.75450195 73.41723633 5.33200195 74.47973633 5.92700195 C77.61317548 8.37925868 79.994585 11.0429557 82.55004883 14.07543945 C87.3464678 19.86056123 87.3464678 19.86056123 93.35473633 24.17700195 C96.29658157 24.17110056 99.22697753 24.1228958 102.16723633 24.05200195 C108.17130898 23.95123981 113.40956299 24.18629246 119.22973633 25.86450195 C125.16969642 27.4865391 129.18510152 26.59324325 135.03442383 24.95825195 C143.71588236 22.91555583 152.63217992 23.88772513 161.24536133 25.8371582 C163.97340316 26.13532358 165.92395923 26.04572694 168.6081543 25.70654297 C175.5341441 24.97246542 182.45240977 25.03255111 189.40942383 25.04418945 C190.84286516 25.04351433 192.27630637 25.04254257 193.70974731 25.04129028 C196.69330958 25.03982597 199.67684166 25.0419287 202.66040039 25.04663086 C206.48012092 25.05235865 210.29977163 25.04902197 214.11948967 25.0430584 C217.07059252 25.03944494 220.02167879 25.04059445 222.97278214 25.04318619 C224.38176609 25.04385167 225.79075156 25.04304029 227.19973373 25.04070663 C229.16399862 25.03816387 231.12826882 25.04272737 233.0925293 25.04760742 C234.76603958 25.04880081 234.76603958 25.04880081 236.47335815 25.05001831 C238.96865284 25.15998708 240.96893691 25.51235792 243.35473633 26.17700195 C247.23707389 26.40537475 250.56418089 26.18016191 254.29223633 25.17700195 C268.35901423 21.84034303 282.84802007 24.21580167 295.36035156 31.19702148 C300.40309879 34.53144301 304.5444073 38.70048889 308.73657227 43.0168457 C310.2348744 44.55728452 311.75369676 46.07499224 313.27661133 47.59106445 C323.61276837 57.99025265 329.04584072 67.00160019 329.46411133 82.1340332 C329.4333572 84.70456572 329.38826786 87.27497509 329.32739258 89.8449707 C329.35036771 92.64465419 329.55995807 94.71706818 330.35473633 97.36450195 C332.96465542 107.31481848 331.61190288 116.95564151 326.87817383 125.99731445 C319.94449299 137.61677047 310.5660974 144.34421937 297.62036133 148.32543945 C292.79617293 149.44844912 288.03989127 149.52087041 283.10473633 149.48950195 C282.17814209 149.4838623 281.25154785 149.47822266 280.296875 149.47241211 C269.60144234 149.28334434 261.37001015 147.48769363 252.51098633 141.28637695 C250.45836393 139.99401259 250.45836393 139.99401259 248.33911133 140.3215332 C246.00452288 141.3279798 244.15247731 142.60816011 242.10473633 144.11450195 C233.32825183 150.04609683 223.0571902 150.54301091 212.73364258 148.7121582 C207.71018279 147.24081556 204.09087847 144.73083781 200.17895508 141.28637695 C198.44228228 139.98707773 198.44228228 139.98707773 196.48364258 140.3215332 C192.71872125 141.83440985 189.19764979 143.79864361 185.62036133 145.7043457 C178.34802853 148.98385463 171.77947897 149.49502424 163.91723633 149.42700195 C163.02713867 149.43473633 162.13704102 149.4424707 161.2199707 149.45043945 C152.78259926 149.4257868 145.54247176 147.93716226 137.79223633 144.55200195 C136.75969727 144.10598633 135.7271582 143.6599707 134.66333008 143.20043945 C133.90149414 142.86270508 133.1396582 142.5249707 132.35473633 142.17700195 C131.73598633 142.77512695 131.11723633 143.37325195 130.47973633 143.98950195 C121.79109609 150.07155012 111.95521554 149.61998336 101.76879883 149.51318359 C99.359604 149.4895497 96.95151826 149.49264598 94.54223633 149.49926758 C87.33090532 149.48353167 80.71156357 149.25146273 73.67845154 147.50868225 C71.1491625 147.14765895 69.59550517 147.43297502 67.14794922 148.10693359 C62.44498559 149.24713828 58.04929049 149.46761334 53.22583008 149.44262695 C52.39189224 149.44454041 51.55795441 149.44645386 50.69874573 149.44842529 C48.95003962 149.44977598 47.2013231 149.44615829 45.45263672 149.43774414 C42.79542287 149.42701482 40.13888285 149.43768453 37.48168945 149.45043945 C35.77140152 149.44911792 34.06111401 149.44655567 32.35083008 149.44262695 C31.56727646 149.44667542 30.78372284 149.45072388 29.97642517 149.45489502 C16.09433981 149.33838508 8.80955252 143.00542293 -0.75976562 133.43310547 C-2.32880077 131.86845379 -3.91315676 130.32052209 -5.4987793 128.77270508 C-6.51082544 127.7665268 -7.52192574 126.75939609 -8.53198242 125.7512207 C-9.44165771 124.84976318 -10.35133301 123.94830566 -11.28857422 123.01953125 C-16.9744064 116.16154471 -18.45080025 107.89658209 -17.64526367 99.17700195 C-16.46666102 94.09681811 -14.82307974 90.30692424 -11.64526367 86.17700195 C-12.47719238 85.40005981 -12.47719238 85.40005981 -13.32592773 84.60742188 C-15.86797847 82.21235505 -18.38132592 79.78904715 -20.89526367 77.36450195 C-21.76795898 76.55045898 -22.6406543 75.73641602 -23.53979492 74.89770508 C-30.81885986 67.81311897 -34.53527892 60.95843824 -35.14526367 50.73950195 C-34.6004803 36.33092103 -31.64972499 18.09258386 -21.64526367 7.17700195 C-18.98901367 5.41137695 -18.98901367 5.41137695 -16.14526367 3.92700195 C-15.20682617 3.4268457 -14.26838867 2.92668945 -13.30151367 2.41137695 C-8.77232987 0.3066386 -4.99608626 0.04133855 0 0 Z M-12.64526367 13.17700195 C-22.34726077 22.87899906 -24.00014446 36.87561752 -24.70776367 50.0402832 C-24.59133416 55.88358937 -23.03279998 59.54042066 -19.20776367 64.05200195 C-15.29772183 67.29447568 -12.6859652 68.44917046 -7.58276367 68.36450195 C-6.72553711 68.35805664 -5.86831055 68.35161133 -4.98510742 68.3449707 C-2.49048399 68.26290229 -2.49048399 68.26290229 0.35473633 67.17700195 C0.68473633 74.43700195 1.01473633 81.69700195 1.35473633 89.17700195 C-0.62526367 90.16700195 -0.62526367 90.16700195 -2.64526367 91.17700195 C-6.67660076 96.59051176 -8.19112291 100.40834743 -7.64526367 107.17700195 C-5.90658913 112.78044761 -3.82639934 117.09299263 1.35473633 120.17700195 C6.16210575 122.14056286 10.5879308 122.48401627 15.71801758 122.4777832 C16.50943649 122.48206833 17.30085541 122.48635345 18.11625671 122.49076843 C19.78452604 122.49648868 21.4528203 122.49702906 23.12109375 122.49267578 C25.64928657 122.48952433 28.17629794 122.51297328 30.7043457 122.53833008 C38.87566357 122.56879311 45.70840527 122.38573017 53.35473633 119.17700195 C56.2727872 119.3805869 58.2940025 120.15344516 61.01538086 121.20898438 C64.76816816 122.29684822 68.22636666 122.48291326 72.09692383 122.4777832 C73.18772751 122.48421089 73.18772751 122.48421089 74.30056763 122.49076843 C75.83179692 122.49648435 77.36305335 122.49703229 78.89428711 122.49267578 C81.21621868 122.48952032 83.53686854 122.51299179 85.85864258 122.53833008 C87.35473474 122.54060408 88.85083029 122.5413061 90.34692383 122.5402832 C91.03051971 122.54949295 91.7141156 122.5587027 92.41842651 122.56819153 C98.96488373 122.50647768 104.35781666 121.08315254 109.10473633 116.55200195 C110.21848633 115.37637695 110.21848633 115.37637695 111.35473633 114.17700195 C113.23754883 113.35668945 113.23754883 113.35668945 115.35473633 113.17700195 C117.61466941 114.42568093 119.51367821 115.95338697 121.55004883 117.53637695 C129.1545642 121.98470071 137.13742021 122.70512077 145.79223633 122.61450195 C146.80560059 122.60692871 147.81896484 122.59935547 148.86303711 122.59155273 C160.32950196 122.33813998 170.73968815 119.04011444 178.91723633 110.5559082 C180.35473633 109.17700195 180.35473633 109.17700195 183.35473633 108.17700195 C183.58161133 108.87825195 183.80848633 109.57950195 184.04223633 110.30200195 C186.24268701 115.12203678 188.85220923 118.19709297 193.22973633 121.05200195 C200.66229083 123.79632977 211.40556673 123.59571425 218.64770508 120.2980957 C222.0320814 118.07540462 224.66557472 115.17252374 227.35473633 112.17700195 C228.34900581 111.17130409 229.34720086 110.16940926 230.35473633 109.17700195 C230.83942383 109.6359082 231.32411133 110.09481445 231.82348633 110.56762695 C243.80999128 121.53988918 256.0984066 123.05058032 271.88647461 122.36352539 C281.79427724 121.61480519 290.19987746 116.92730499 297.35473633 110.17700195 C302.67820929 103.2639549 306.09161928 96.01959743 305.35473633 87.17700195 C304.62636182 84.55165207 303.81192501 81.98335534 302.91333008 79.41137695 C302.35473633 77.17700195 302.35473633 77.17700195 303.35473633 74.17700195 C304.34472578 64.86136353 302.79979915 55.44958118 297.62426758 47.52856445 C291.23814624 39.85502144 283.29981035 35.26356543 273.35473633 34.17700195 C265.30066378 33.6419746 258.4546287 34.16161287 250.76098633 36.5715332 C246.74340931 37.5824495 243.33942039 36.73566127 239.44140625 35.63842773 C237.20134699 35.14308294 235.1982798 35.0475937 232.90551758 35.04418945 C231.63224609 35.04225586 231.63224609 35.04225586 230.33325195 35.0402832 C229.4534668 35.04415039 228.57368164 35.04801758 227.66723633 35.05200195 C226.80678711 35.04813477 225.94633789 35.04426758 225.05981445 35.0402832 C220.08217803 35.04778529 215.27748062 35.32914295 210.3515625 36.06030273 C208.35473633 36.17700195 208.35473633 36.17700195 206.50585938 35.71435547 C201.82114891 34.54410831 196.79593339 34.99111142 191.99243164 34.99169922 C189.99336646 34.98951683 187.994341 34.97101053 185.99536133 34.95239258 C184.08883789 34.94949219 184.08883789 34.94949219 182.14379883 34.9465332 C180.40670654 34.94036987 180.40670654 34.94036987 178.63452148 34.93408203 C175.23430457 35.18592183 172.56217889 36.0713999 169.35473633 37.17700195 C165.10830681 36.89854756 161.27628336 36.16057803 157.16723633 35.11450195 C146.41710083 32.67632689 134.77905726 33.69440194 124.76489258 38.3918457 C122.35473633 39.17700195 122.35473633 39.17700195 120.25708008 38.5324707 C119.60868164 38.14704102 118.9602832 37.76161133 118.29223633 37.36450195 C111.45933632 33.4000669 104.65706301 33.64881163 96.97973633 34.73950195 C93.35473633 35.17700195 93.35473633 35.17700195 90.35473633 34.17700195 C85.86185086 34.00745911 81.76971629 34.39239338 77.35473633 35.17700195 C76.9003418 33.54891602 76.9003418 33.54891602 76.43676758 31.88793945 C76.01436943 30.44239912 75.59114835 28.99709906 75.16723633 27.55200195 C74.9706543 26.83915039 74.77407227 26.12629883 74.5715332 25.3918457 C72.86710793 19.67546554 70.55899696 15.30666298 65.43286133 11.8996582 C61.83697314 10.60114302 59.04140946 10.03125456 55.23730469 10.60229492 C50.13672094 11.25597007 45.12076967 11.32128578 39.98364258 11.30981445 C39.02127182 11.31077118 38.05890106 11.31172791 37.06736755 11.31271362 C35.04458551 11.31339007 33.02180123 11.31157337 30.99902344 11.30737305 C27.92939296 11.30202314 24.85990916 11.30733333 21.7902832 11.3137207 C19.81306934 11.31305971 17.83585557 11.31177812 15.85864258 11.30981445 C14.95416885 11.31183868 14.04969513 11.31386292 13.11781311 11.31594849 C7.87727733 11.29698573 2.79125921 10.97695434 -2.40589905 10.287323 C-6.25562101 10.0976686 -9.39030271 11.1717135 -12.64526367 13.17700195 Z " fill="#050504" transform="translate(36.645263671875,4.822998046875)"/>
<path d="M0 0 C1.27156952 -0.00960754 2.54313904 -0.01921509 3.85324097 -0.02911377 C5.25258201 -0.03396137 6.65192512 -0.03824029 8.05126953 -0.04199219 C9.47754927 -0.04774141 10.90382897 -0.05349916 12.33010864 -0.05926514 C15.32456829 -0.06978449 18.31900102 -0.07562089 21.31347656 -0.07910156 C25.15274261 -0.08458565 28.99165387 -0.10860746 32.83080864 -0.13707352 C35.77846315 -0.1556881 38.72603206 -0.16090487 41.67374039 -0.16243744 C43.08915266 -0.16546764 44.5045633 -0.17350859 45.91991806 -0.18662262 C47.89966589 -0.20365511 49.87955936 -0.19996212 51.859375 -0.1953125 C52.98665009 -0.19895813 54.11392517 -0.20260376 55.27536011 -0.20635986 C58.05908203 0.16113281 58.05908203 0.16113281 59.90232849 1.55332947 C61.34650241 3.56062624 61.7572407 5.19284741 62.22705078 7.61816406 C62.39785156 8.48376953 62.56865234 9.349375 62.74462891 10.24121094 C62.91027344 11.14291016 63.07591797 12.04460938 63.24658203 12.97363281 C63.42382812 13.86373047 63.60107422 14.75382812 63.78369141 15.67089844 C64.65855093 20.22759918 65.28259209 24.49825064 65.05908203 29.16113281 C66.66976562 28.61972656 66.66976562 28.61972656 68.31298828 28.06738281 C69.7490104 27.59809454 71.18521838 27.12937471 72.62158203 26.66113281 C73.32605469 26.42265625 74.03052734 26.18417969 74.75634766 25.93847656 C79.3803118 24.44687523 83.20210315 23.90583826 88.05908203 24.16113281 C89.04908203 26.47113281 90.03908203 28.78113281 91.05908203 31.16113281 C91.50638672 30.75121094 91.95369141 30.34128906 92.41455078 29.91894531 C99.88017722 23.26514606 99.88017722 23.26514606 104.96923828 23.09863281 C108.88849898 23.33305588 110.78051356 23.95368821 113.99658203 26.34863281 C116.26999667 29.44874368 116.56698757 31.41603494 117.05908203 35.16113281 C117.69974609 34.6184375 118.34041016 34.07574219 119.00048828 33.51660156 C128.11544251 25.97740693 136.05484951 22.15768304 148.05908203 23.16113281 C157.50793313 24.7677098 165.32731932 28.44145866 171.43408203 35.97363281 C177.534171 44.95431935 178.12153659 54.25555698 176.69580078 64.86425781 C174.84403247 72.87599009 169.5950078 78.66469003 163.18408203 83.60644531 C155.26405594 88.21508119 145.0515526 88.90356844 136.24658203 87.16113281 C127.56229825 84.75235337 119.87612297 79.94250664 115.05908203 72.16113281 C111.95181978 65.28749208 111.67700673 58.60452581 112.05908203 51.16113281 C111.06908203 51.65613281 111.06908203 51.65613281 110.05908203 52.16113281 C106.57327381 52.41934083 103.95483037 52.57269286 100.74658203 51.09863281 C98.38628323 48.38866011 97.84242484 45.6208969 97.05908203 42.16113281 C95.73908203 42.49113281 94.41908203 42.82113281 93.05908203 43.16113281 C91.13793993 48.817829 90.75328369 53.83430934 90.80908203 59.78613281 C90.80134766 60.61886719 90.79361328 61.45160156 90.78564453 62.30957031 C90.79937674 66.62148316 90.8170084 70.33992427 93.05908203 74.16113281 C94.06970703 74.63550781 95.08033203 75.10988281 96.12158203 75.59863281 C99.05908203 77.16113281 99.05908203 77.16113281 100.05908203 80.16113281 C100.05908203 83.16113281 100.05908203 83.16113281 98.05908203 86.16113281 C95.38712848 86.45301886 92.95029056 86.5572754 90.27783203 86.52441406 C89.5085437 86.52491257 88.73925537 86.52541107 87.94665527 86.52592468 C86.3192283 86.52358287 84.6917978 86.51384794 83.06445312 86.49731445 C80.56884485 86.47372509 78.07430465 86.47675179 75.57861328 86.48339844 C73.99917981 86.47782168 72.41975085 86.47071181 70.84033203 86.46191406 C70.09134644 86.46282547 69.34236084 86.46373688 68.57067871 86.4646759 C63.29010962 86.3921604 63.29010962 86.3921604 61.05908203 84.16113281 C60.62158203 81.78613281 60.62158203 81.78613281 61.05908203 79.16113281 C61.84283203 78.58363281 62.62658203 78.00613281 63.43408203 77.41113281 C67.1929959 74.18920664 67.39474858 70.94787675 68.05908203 66.16113281 C68.29524733 62.36359483 68.2950826 58.58959885 68.24658203 54.78613281 C68.2459375 53.80257812 68.24529297 52.81902344 68.24462891 51.80566406 C68.25046148 46.39608737 68.25046148 46.39608737 67.05908203 41.16113281 C66.21345703 40.70738281 65.36783203 40.25363281 64.49658203 39.78613281 C63.69220703 39.24988281 62.88783203 38.71363281 62.05908203 38.16113281 C61.74658203 35.47363281 61.74658203 35.47363281 62.05908203 33.16113281 C60.98142578 33.12761719 59.90376953 33.09410156 58.79345703 33.05957031 C55.05908203 32.16113281 55.05908203 32.16113281 52.94970703 29.32519531 C52.40830078 28.15730469 51.86689453 26.98941406 51.30908203 25.78613281 C49.00787397 20.33299575 49.00787397 20.33299575 45.05908203 16.16113281 C43.06503287 15.79387399 41.06485301 15.45777044 39.05908203 15.16113281 C38.25174405 36.12449402 38.25174405 36.12449402 37.87158203 57.09863281 C37.85869141 57.92387451 37.84580078 58.74911621 37.83251953 59.59936523 C37.82445083 64.4310063 38.26994507 68.59912119 40.05908203 73.16113281 C41.70368492 74.82089609 41.70368492 74.82089609 43.68408203 75.78613281 C46.99249325 77.88145992 46.99249325 77.88145992 47.68408203 80.78613281 C46.96190882 83.53039102 46.24025933 84.39535067 44.05908203 86.16113281 C41.14096906 86.44725911 38.44081756 86.55760201 35.52392578 86.52441406 C34.27223351 86.52516182 34.27223351 86.52516182 32.99525452 86.52592468 C31.23257056 86.52358542 29.46988319 86.51386552 27.70727539 86.49731445 C25.00327849 86.47369132 22.30026546 86.47675815 19.59619141 86.48339844 C17.88459696 86.47782269 16.17300669 86.47071346 14.46142578 86.46191406 C13.6499559 86.46282547 12.83848602 86.46373688 12.00242615 86.4646759 C6.29011766 86.39216844 6.29011766 86.39216844 4.05908203 84.16113281 C3.43408203 81.34863281 3.43408203 81.34863281 4.05908203 78.16113281 C6.0121651 76.60388618 7.99063889 75.476683 10.21142578 74.33691406 C12.38830519 73.22445103 12.38830519 73.22445103 13.05908203 70.16113281 C13.14707674 68.39705153 13.1767246 66.62979515 13.17260742 64.86352539 C13.17249413 63.24218437 13.17249413 63.24218437 13.17237854 61.58808899 C13.16721725 60.42238876 13.16205597 59.25668854 13.15673828 58.05566406 C13.15532333 56.86132248 13.15390839 55.6669809 13.15245056 54.43644714 C13.14684553 50.61548373 13.13429214 46.79457856 13.12158203 42.97363281 C13.11656768 40.38574303 13.11200466 37.79785234 13.10791016 35.20996094 C13.09687446 28.86033164 13.08013139 22.51073638 13.05908203 16.16113281 C8.49109622 15.87521801 8.49109622 15.87521801 4.55908203 17.97363281 C2.1343179 20.63778449 0.76480952 23.69531419 -0.81591797 26.91113281 C-3.45502391 31.99106989 -3.45502391 31.99106989 -7.69091797 33.47363281 C-10.94091797 33.16113281 -10.94091797 33.16113281 -12.94091797 31.16113281 C-13.45109408 25.24308989 -12.66344643 19.7239798 -11.62841797 13.91113281 C-11.51087158 13.22583496 -11.3933252 12.54053711 -11.2722168 11.83447266 C-9.74477834 3.83323274 -8.12482401 0.04928233 0 0 Z M137.18408203 37.41113281 C133.31963602 43.42249328 134.47772423 52.54481262 135.55517578 59.24707031 C136.94674525 64.98631162 138.43496422 69.35908039 143.05908203 73.16113281 C146.07217857 73.85691636 147.89085957 73.62103607 151.05908203 73.16113281 C153.14601903 71.60918428 153.93122335 70.61335782 154.64111328 68.10253906 C155.64486759 57.74175302 154.4900355 45.79562167 147.64892578 37.43847656 C144.56492536 34.96066787 140.38430621 35.27765002 137.18408203 37.41113281 Z " fill="#060505" transform="translate(37.94091796875,27.8388671875)"/>
<path d="M0 0 C5.13049796 4.05732958 7.54270973 8.13271715 8.69140625 14.55859375 C8.96534535 17.90065076 8.9148321 20.55317741 8.19140625 23.80859375 C3.89633954 28.81950491 -5.42883235 29.57162056 -11.62109375 30.74609375 C-12.51376953 30.92333984 -13.40644531 31.10058594 -14.32617188 31.28320312 C-20.8705508 32.55859375 -20.8705508 32.55859375 -24.30859375 32.55859375 C-22.82694834 36.48059631 -21.79233304 38.25867539 -18.18359375 40.49609375 C-13.21750793 42.25622543 -8.12909663 41.85602508 -3.35546875 39.66015625 C-1.64610813 38.67169989 0.02421165 37.61662109 1.69140625 36.55859375 C4.44140625 35.18359375 4.44140625 35.18359375 6.69140625 34.55859375 C7.68140625 35.21859375 8.67140625 35.87859375 9.69140625 36.55859375 C9.34628009 44.32393236 7.60685168 48.57373296 2.06640625 54.24609375 C-4.19553534 59.13921896 -13.51428215 60.73627563 -21.30859375 60.55859375 C-29.82458271 59.3161761 -37.43831167 56.04346998 -43.12890625 49.44921875 C-49.07327778 41.12135525 -50.34271808 32.67730396 -49.30859375 22.55859375 C-47.01927771 13.16828546 -41.52351443 5.29305956 -33.37109375 0.12109375 C-22.74229162 -5.68374372 -10.53807712 -6.5796116 0 0 Z M-24.12109375 9.49609375 C-26.96514727 13.47776868 -27.19366151 16.76278464 -27.30859375 21.55859375 C-21.46091307 21.0364794 -16.6716039 20.00487908 -11.30859375 17.55859375 C-9.92586531 14.50860399 -9.92586531 14.50860399 -11.62109375 11.43359375 C-13.00029105 8.48566662 -13.00029105 8.48566662 -15.30859375 7.55859375 C-19.22348953 7.03660765 -20.82973111 7.2287106 -24.12109375 9.49609375 Z " fill="#050505" transform="translate(319.30859375,55.44140625)"/>
<path d="M0 0 C1.18013672 -0.01611328 2.36027344 -0.03222656 3.57617188 -0.04882812 C4.71505859 -0.04947266 5.85394531 -0.05011719 7.02734375 -0.05078125 C8.0649585 -0.05376221 9.10257324 -0.05674316 10.17163086 -0.05981445 C13.50286966 0.36921512 15.39576752 1.29382062 18.0625 3.3125 C18.625 5.8125 18.625 5.8125 18.0625 8.3125 C17.381875 8.725 16.70125 9.1375 16 9.5625 C15.0409375 10.42875 15.0409375 10.42875 14.0625 11.3125 C13.76668431 20.03906283 17.73964507 28.38295984 21.0625 36.3125 C21.3925 36.6425 21.7225 36.9725 22.0625 37.3125 C27.89673298 25.26556916 27.89673298 25.26556916 29.0625 12.3125 C26.72170243 9.95602999 26.72170243 9.95602999 24.0625 8.3125 C23.5625 5.6875 23.5625 5.6875 24.0625 3.3125 C28.15237416 0.58591722 31.62148087 0.74947847 36.4375 0.5 C37.71367187 0.40428711 37.71367187 0.40428711 39.015625 0.30664062 C43.86315706 0.03859173 47.18777793 -0.01538629 51.0625 3.3125 C51.6875 5.75 51.6875 5.75 51.0625 8.3125 C49.89545532 9.16835693 49.89545532 9.16835693 48.70483398 10.04150391 C45.43162056 12.8547194 44.60237972 15.16232119 43.16015625 19.2109375 C42.91510849 19.88234772 42.67006073 20.55375793 42.41758728 21.24551392 C41.63861655 23.38784996 40.88095868 25.53694874 40.125 27.6875 C34.21378859 44.20383996 34.21378859 44.20383996 30.93359375 52.1015625 C30.47782959 53.2045166 30.02206543 54.3074707 29.55249023 55.44384766 C27.74550595 58.92280314 25.85071577 61.65032901 22.08984375 63.04296875 C19.92236759 63.33113032 17.81152451 63.55300006 15.625 63.625 C14.51318359 63.68107422 14.51318359 63.68107422 13.37890625 63.73828125 C10.02602788 63.12198489 8.53056056 61.65273931 6.0625 59.3125 C4.83482137 56.90896327 3.8579825 54.70829739 2.94140625 52.1953125 C2.67416245 51.50170624 2.40691864 50.80809998 2.13157654 50.09347534 C1.28182125 47.87993652 0.45275231 45.65934874 -0.375 43.4375 C-2.54268629 37.72158979 -4.72807607 32.01240711 -6.9375 26.3125 C-7.19847473 25.6357019 -7.45944946 24.95890381 -7.72833252 24.26159668 C-8.48077061 22.3313654 -9.25417654 20.41102065 -10.03515625 18.4921875 C-10.47480713 17.39374512 -10.91445801 16.29530273 -11.36743164 15.16357422 C-13.12031878 11.98052088 -14.97724677 10.37286368 -17.9375 8.3125 C-17.6875 5.4375 -17.6875 5.4375 -16.9375 2.3125 C-12.09176067 -1.08508735 -5.64626446 -0.01536817 0 0 Z " fill="#060505" transform="translate(225.9375,51.6875)"/>
<path d="M0 0 C1.74023438 0.00966797 1.74023438 0.00966797 3.515625 0.01953125 C4.7221875 0.03628906 5.92875 0.05304687 7.171875 0.0703125 C9.00492188 0.08384766 9.00492188 0.08384766 10.875 0.09765625 C13.89082282 0.12121737 16.90624992 0.15411544 19.921875 0.1953125 C20.251875 0.8553125 20.581875 1.5153125 20.921875 2.1953125 C13.661875 2.5253125 6.401875 2.8553125 -1.078125 3.1953125 C-1.078125 3.5253125 -1.078125 3.8553125 -1.078125 4.1953125 C-3.058125 4.1953125 -5.038125 4.1953125 -7.078125 4.1953125 C-7.738125 5.8453125 -8.398125 7.4953125 -9.078125 9.1953125 C-9.738125 8.8653125 -10.398125 8.5353125 -11.078125 8.1953125 C-10.828125 5.3203125 -10.828125 5.3203125 -10.078125 2.1953125 C-6.8386082 -0.10385247 -3.8831309 -0.03806991 0 0 Z " fill="#161617" transform="translate(219.078125,51.8046875)"/>
<path d="M0 0 C0.99 2.31 1.98 4.62 3 7 C4.65 5.35 6.3 3.7 8 2 C8.66 2.33 9.32 2.66 10 3 C9.21625 3.763125 8.4325 4.52625 7.625 5.3125 C4.92742283 7.90891805 4.92742283 7.90891805 3 11 C2.01 10.67 1.02 10.34 0 10 C-0.33 7.36 -0.66 4.72 -1 2 C-7.57534861 2.62031591 -13.66692592 4.14897283 -20 6 C-15.16829091 0.39960992 -7.02277546 -0.45800709 0 0 Z " fill="#1B1C1B" transform="translate(126,52)"/>
<path d="M0 0 C4.51629435 4.51629435 4 12.9487657 4 19 C4.66 19.66 5.32 20.32 6 21 C4.375 22.125 4.375 22.125 2 23 C-1.25 22.125 -1.25 22.125 -4 21 C-3.34 20.34 -2.68 19.68 -2 19 C-1.01 19 -0.02 19 1 19 C1.26932521 14.34947128 1.26932521 14.34947128 0 10 C-0.06996014 8.29297265 -0.08440154 6.58331997 -0.0625 4.875 C-0.05347656 3.96492188 -0.04445313 3.05484375 -0.03515625 2.1171875 C-0.02355469 1.41851562 -0.01195313 0.71984375 0 0 Z " fill="#161616" transform="translate(99,38)"/>
<path d="M0 0 C2.08268593 -0.08126087 4.16628658 -0.13930839 6.25 -0.1875 C7.99023438 -0.23970703 7.99023438 -0.23970703 9.765625 -0.29296875 C13 0 13 0 17 3 C9.74 3 2.48 3 -5 3 C-5 2.67 -5 2.34 -5 2 C-3.35 1.67 -1.7 1.34 0 1 C0 0.67 0 0.34 0 0 Z " fill="#0C0D0D" transform="translate(258,37)"/>
<path d="M0 0 C5.72520383 -0.10757168 11.26732809 0.06079981 16.94921875 0.77734375 C19.63944828 1.06942581 22.29724602 1.06930138 25 1 C22.08175756 2.66674321 20.02405621 3.2432008 16.671875 3.1953125 C15.87265625 3.18886719 15.0734375 3.18242188 14.25 3.17578125 C13.425 3.15902344 12.6 3.14226563 11.75 3.125 C10.90953125 3.11597656 10.0690625 3.10695312 9.203125 3.09765625 C7.13529396 3.07415817 5.06761005 3.03828908 3 3 C3 2.34 3 1.68 3 1 C2.01 0.67 1.02 0.34 0 0 Z " fill="#1C1C1D" transform="translate(188,30)"/>
<path d="M0 0 C2.625 0.9375 2.625 0.9375 5 2 C5 3.98 5 5.96 5 8 C4.01 8.495 4.01 8.495 3 9 C2.67 7.68 2.34 6.36 2 5 C1.34 5 0.68 5 0 5 C-0.33 4.34 -0.66 3.68 -1 3 C-1.99 3.66 -2.98 4.32 -4 5 C-2.25 1.125 -2.25 1.125 0 0 Z " fill="#0F1010" transform="translate(324,90)"/>
<path d="M0 0 C1.2039337 3.75399798 1.09877617 7.33217412 1.0625 11.25 C1.05347656 12.51328125 1.04445313 13.7765625 1.03515625 15.078125 C1.02355469 16.04234375 1.01195312 17.0065625 1 18 C0.01 17.67 -0.98 17.34 -2 17 C-2.11116338 11.55299453 -2.00581962 6.36437132 -1 1 C-0.67 0.67 -0.34 0.34 0 0 Z " fill="#202123" transform="translate(27,42)"/>
<path d="M0 0 C4.29 0 8.58 0 13 0 C13 0.66 13 1.32 13 2 C9.00904159 2.83531688 5.93289983 3.20171939 2 2 C1.34 1.34 0.68 0.68 0 0 Z " fill="#0C0C0D" transform="translate(211,30)"/>
<path d="M0 0 C0.66 0.33 1.32 0.66 2 1 C1.16855469 1.70576172 1.16855469 1.70576172 0.3203125 2.42578125 C-0.76636719 3.35970703 -0.76636719 3.35970703 -1.875 4.3125 C-2.59429687 4.92738281 -3.31359375 5.54226562 -4.0546875 6.17578125 C-6.19179331 8.0412324 -6.19179331 8.0412324 -8 11 C-8.66 11 -9.32 11 -10 11 C-10 9.35 -10 7.7 -10 6 C-9.46375 5.938125 -8.9275 5.87625 -8.375 5.8125 C-4.88843038 4.61972618 -2.75059607 2.43802834 0 0 Z " fill="#131313" transform="translate(164,56)"/>
<path d="M0 0 C0.66 0.33 1.32 0.66 2 1 C1.21625 1.763125 0.4325 2.52625 -0.375 3.3125 C-3.07257717 5.90891805 -3.07257717 5.90891805 -5 9 C-5.66 9 -6.32 9 -7 9 C-7 7.35 -7 5.7 -7 4 C-6.01 4 -5.02 4 -4 4 C-1.81222534 2.0624994 -1.81222534 2.0624994 0 0 Z " fill="#101011" transform="translate(134,54)"/>
<path d="M0 0 C2.475 0.495 2.475 0.495 5 1 C5 1.33 5 1.66 5 2 C7.64 2.33 10.28 2.66 13 3 C13 3.33 13 3.66 13 4 C9.04 4 5.08 4 1 4 C0.67 2.68 0.34 1.36 0 0 Z " fill="#1F201F" transform="translate(100,110)"/>
<path d="M0 0 C2.97 0.33 5.94 0.66 9 1 C7.375 2.625 7.375 2.625 5 4 C1.75 3.1875 1.75 3.1875 -1 2 C-0.67 1.34 -0.34 0.68 0 0 Z " fill="#0F1010" transform="translate(96,57)"/>
<path d="M0 0 C3.3 0 6.6 0 10 0 C9.01 0.33 8.02 0.66 7 1 C7 1.66 7 2.32 7 3 C5.68 3 4.36 3 3 3 C3 2.34 3 1.68 3 1 C2.01 0.67 1.02 0.34 0 0 Z " fill="#141314" transform="translate(188,30)"/>
</svg>
