<svg xmlns="http://www.w3.org/2000/svg" width="132" height="80" viewBox="0 0 132 80" fill="none"><title>Trove</title>
<path d="M42.2118 23.8516C41.8846 23.447 41.9271 22.9599 41.9595 22.4728C42.057 21.5886 41.8596 20.587 42.2193 19.7602C42.6339 19.2806 42.9237 19.94 42.9362 20.3347C43.8429 17.9593 45.3691 17.7795 46.0909 20.562C46.9027 18.7236 48.2865 17.19 49.2531 19.9475C49.8451 17.9943 51.4212 16.2683 52.9524 18.6087C55.0106 16.1484 56.277 19.2457 56.9639 21.0191C58.023 23.2996 55.1355 25.2129 54.4836 22.2605C53.5344 24.4411 51.5636 24.2013 51.0566 21.9083C49.5379 25.3178 48.3664 23.1098 47.8669 20.7019C46.5855 23.9016 45.7812 25.2404 44.4199 21.0591C43.8029 21.8459 43.678 24.8258 42.2143 23.8516H42.2118Z" fill="black" style="fill:black;fill-opacity:1;"/>
<path d="M46.7703 38.1292C41.1278 34.7672 44.3899 25.7376 50.3672 25.6052C61.1352 26.417 56.1996 42.6003 46.7703 38.1292Z" fill="white" style="fill:white;fill-opacity:1;"/>
<path d="M49.9974 35.4366C45.6038 35.4715 47.0176 28.3178 50.9291 29.2994C55.2553 29.1596 53.9365 36.673 49.9974 35.4366Z" fill="black" style="fill:black;fill-opacity:1;"/>
<path d="M82.2691 23.6244C81.5622 23.2348 81.5872 22.3731 81.3225 21.7161C80.5281 24.1265 78.0328 24.5961 77.848 21.6487C77.4908 22.4705 76.5741 24.2639 75.6224 23.035C75.2278 22.3656 75.4326 21.5163 75.0904 20.8119C73.6916 23.9167 72.5826 24.9158 71.6384 20.8569C71.1888 21.5038 70.9466 22.2756 70.4945 22.9151C69.9125 23.567 69.1232 22.7152 69.2905 22.0383C69.2905 22.0383 69.288 22.0383 69.2855 22.0383C69.5028 21.2715 69.4004 20.4797 69.3829 19.7004C69.3529 18.961 70.1248 18.9036 70.2771 19.6105C71.4686 17.25 72.8973 18.4565 73.272 20.4997C73.8715 19.0859 75.3027 17.5897 76.3093 19.6205C76.8314 18.2467 78.3825 17.2351 79.4266 18.7437C81.6347 16.0161 83.0884 19.0485 83.9651 21.0492C84.677 22.1807 83.6679 24.4187 82.2666 23.6244H82.2691Z" fill="black" style="fill:black;fill-opacity:1;"/>
<path d="M74.3336 37.3823C69.6302 35.8486 70.0598 29.7065 73.0497 26.7216C81.0302 20.3047 87.1199 34.4323 78.6273 37.6795C77.1761 38.0816 75.8373 37.9268 74.3336 37.3823Z" fill="white" style="fill:white;fill-opacity:1;"/>
<path d="M76.3443 34.5348C72.7649 33.808 73.799 28.2678 77.1785 28.1329C81.3274 28.2928 80.3383 35.0868 76.3443 34.5348Z" fill="black" style="fill:black;fill-opacity:1;"/>
<path d="M6.99264 4.55367C6.62796 4.62111 6.30075 4.80595 5.94107 4.89337C5.61386 4.9733 5.26916 5.00578 4.93445 4.93085C4.15763 9.23207 3.81294 13.5907 3.56316 17.9444C3.24593 19.9377 3.79545 21.8735 3.92284 23.8692C3.94532 25.5228 3.12354 27.2912 3.2834 28.9698C3.84791 33.4084 3.13603 37.5772 3.11855 41.9784C3.10356 45.5078 3.00614 48.4552 3.45824 51.6948C3.60062 55.1818 3.22345 58.6512 3.53818 62.1332C3.61811 63.7568 3.79545 65.3928 3.68305 67.0189C3.57564 68.5276 3.59562 70.1062 3.38831 71.5974C3.38831 71.5999 3.38831 71.6024 3.38831 71.6049C3.15351 73.0287 3.25842 74.5049 3.10605 75.9411C14.4886 75.1393 25.9635 76.4856 37.3011 74.8396C42.0119 74.4524 46.7378 74.6572 51.4437 74.9669C55.9572 74.9594 60.4433 74.0877 64.9618 74.3899C72.2604 74.6222 79.4466 76.5406 86.7752 75.5764C93.899 74.8795 101.07 75.9161 108.146 74.6872C114.653 74.1302 121.193 74.7047 127.709 74.6872C127.699 74.6297 127.689 74.5723 127.682 74.5148C127.07 66.6167 127.252 58.6862 127.644 50.7806C127.255 43.1523 126.643 35.5765 127.567 27.9557C127.814 24.9608 127.767 21.9959 127.355 19.036C126.98 14.3676 127.882 9.35447 128.429 4.73102C123.188 4.54868 116.931 5.32051 111.726 5.76012C111.716 5.75512 111.708 5.75512 111.698 5.76012C103.91 5.39044 96.4042 4.15653 88.6535 3.48462C83.9402 3.75938 79.002 4.91335 74.2786 5.12567C68.7135 5.7701 63.1534 4.8684 57.5833 4.91086C48.2565 4.9833 39.5441 5.11568 30.4171 4.4163M55.4377 35.7039C55.063 36.3208 54.5734 36.8653 54.0114 37.3174H54.0089C52.4003 38.6163 50.1798 39.2233 48.1566 38.7087C47.672 38.5813 47.2049 38.384 46.7728 38.1267C43.4757 36.2609 43.0685 31.7149 45.1092 28.7624C45.424 28.2729 45.7861 27.8258 46.1958 27.4236C46.553 27.0739 46.9451 26.7567 47.3672 26.4944C47.4222 26.4545 47.4796 26.427 47.5346 26.392C47.7769 26.2496 48.0342 26.1173 48.2964 26.0174C48.2964 26.0174 48.2981 26.0165 48.3014 26.0149C48.9084 25.7626 49.5703 25.6177 50.2297 25.6052C50.5744 25.5977 50.9216 25.6227 51.2638 25.6777C52.3304 25.8525 53.317 26.3496 54.1888 26.9815C55.5451 27.8507 56.3194 29.4194 56.4568 30.998C56.4568 30.998 56.4568 30.9988 56.4568 31.0005C56.6141 32.6141 56.217 34.3276 55.4352 35.7014L55.4377 35.7039ZM54.4835 22.2582C53.5343 24.4387 51.5611 24.199 51.0565 21.906C49.5379 25.313 48.3664 23.1099 47.8668 20.702C46.5854 23.9042 45.7786 25.2355 44.4198 21.0592C43.8029 21.8335 43.7404 24.5536 42.3392 23.9667C42.3367 23.9642 42.3367 23.9617 42.3317 23.9617C42.3117 23.9467 42.2942 23.9317 42.2742 23.9117H42.2717C41.7597 23.6894 41.7672 19.2258 42.6089 19.6205H42.6114C42.8412 19.7653 42.9187 20.0801 42.9361 20.3348C43.8778 17.9469 45.3365 17.7596 46.0909 20.5621C46.2732 20.1525 46.478 19.7603 46.7278 19.3932C46.7278 19.3932 46.7278 19.3907 46.7303 19.3907C46.9476 19.0759 47.1999 18.7737 47.5271 18.5764C48.4363 18.0493 49.0133 19.2258 49.2531 19.9452C49.7227 18.0768 51.5711 16.2759 52.9524 18.6064C55.0105 16.146 56.2769 19.2458 56.9638 21.0192C58.0229 23.2972 55.1354 25.2131 54.4835 22.2582ZM82.7113 32.0271C82.6014 33.1536 82.2891 34.2726 81.7096 35.2468L81.7071 35.2493C81.6847 35.2867 81.6622 35.3217 81.6397 35.3592L81.6372 35.3617C81.6147 35.4016 81.5897 35.4391 81.5648 35.4766L81.5623 35.4791C81.5398 35.519 81.5123 35.5515 81.4873 35.5915L81.4848 35.594C81.4599 35.6339 81.4374 35.6664 81.4074 35.7039C81.275 35.8837 81.1301 36.0635 80.9778 36.2259V36.2284C80.9328 36.2759 80.8879 36.3233 80.8429 36.3708C80.8429 36.3708 80.8421 36.3716 80.8404 36.3733C80.713 36.4957 80.5706 36.628 80.4333 36.7379V36.7404C80.3633 36.7954 80.2909 36.8504 80.2209 36.9028C80.2209 36.9028 80.2184 36.9028 80.2184 36.9053C80.136 36.9578 80.0611 37.0177 79.9762 37.0702C79.9762 37.0702 79.9762 37.0727 79.9737 37.0727C79.9162 37.1076 79.8587 37.1426 79.8013 37.1776C79.7089 37.2275 79.6165 37.2825 79.5216 37.3299C79.4416 37.3649 79.3667 37.4099 79.2843 37.4423C79.2493 37.4548 79.2193 37.4723 79.1869 37.4848C79.1444 37.5023 79.0994 37.5198 79.057 37.5373C78.9421 37.5772 78.8272 37.6222 78.7098 37.6572C76.5317 38.2816 73.9614 37.6671 72.3029 36.1185C69.3954 33.5682 71.0215 27.5785 74.1862 25.9099C74.5734 25.6926 74.998 25.5153 75.4277 25.3929C77.0487 24.8983 78.952 25.0907 80.2859 26.1972H80.2884C80.4882 26.3521 80.6581 26.5469 80.8279 26.7292C80.8304 26.7292 80.8304 26.7317 80.8279 26.7317C81.1451 27.0839 81.4324 27.4636 81.6822 27.8632C82.4515 29.1022 82.8911 30.5609 82.7163 32.0271H82.7113ZM84.195 22.1133C83.7678 24.736 81.5872 24.0366 81.325 21.7161C81.325 21.7161 81.325 21.7186 81.3225 21.7186C80.9103 22.4905 80.5157 23.5445 79.5415 23.7119C78.415 23.8717 77.838 22.6004 77.8505 21.6487C77.6107 22.1857 77.3335 22.7427 76.9113 23.1599H76.9089C75.3227 24.3338 75.4451 21.6912 75.0929 20.8119V20.8144C74.5109 21.6287 74.3886 22.7627 73.5493 23.3897C72.0706 24.0316 72.0331 21.7511 71.6435 20.8569C71.049 21.4863 70.6643 23.9392 69.5028 22.8601C69.4604 22.8052 69.4254 22.7477 69.3904 22.6878C69.288 22.4929 69.2406 22.2557 69.2955 22.0408C69.2955 22.0408 69.293 22.0408 69.293 22.0433H69.2905C69.7052 21.4539 68.8259 18.4365 70.1323 19.2933C70.1373 19.2982 70.1423 19.3007 70.1448 19.3057C70.2097 19.3857 70.2597 19.5006 70.2847 19.6105C71.3637 17.2875 72.9898 18.5189 73.2795 20.5022C73.7941 19.1134 75.4301 17.6247 76.3144 19.623C76.4992 19.1359 76.8089 18.6938 77.2186 18.3691H77.2211C77.6307 18.0443 78.1902 17.877 78.6848 18.0918C78.997 18.2242 79.2393 18.469 79.4341 18.7412C80.0761 17.822 81.3674 17.1951 82.2467 18.1692C83.1759 19.2483 84.0851 20.6745 84.1975 22.1133H84.195Z" fill="#F87361" style="fill:#F87361;fill:color(display-p3 0.9725 0.4510 0.3804);fill-opacity:1;"/>
<path d="M5.14929 0.569572C3.22098 -0.404574 1.61489 1.34889 1.50998 3.25722C1.51997 3.22974 1.52996 3.20226 1.53996 3.17479C1.52747 3.24722 1.51747 3.30967 1.50498 3.37961C1.50498 3.33964 1.50748 3.29718 1.50998 3.25722C-0.435811 8.69745 1.73478 14.4099 0.673215 19.9701C0.820586 22.4579 0.463399 24.9982 0.283557 27.4885C0.598281 36.7479 1.46752 46.0347 0.543332 55.2991C0.463402 59.5204 1.18277 63.8366 0.488379 68.0979C0.318528 70.5757 -0.675602 76.4955 0.783119 78.4538H0.778126C1.20275 78.8509 1.98956 78.8759 2.47164 78.5562C7.6471 79.308 12.945 79.5154 18.1529 78.9733C22.3392 78.3189 26.6005 77.9867 30.8268 78.4138C34.1289 78.7435 37.4235 79.1781 40.7506 79.1332C44.8095 79.1082 48.8335 78.3713 52.9049 78.5712C63.2309 79.9325 73.4544 78.3564 83.7828 78.3464C90.3046 78.7535 96.764 80.0099 103.316 79.9999C109.598 79.5204 115.86 78.716 122.049 77.5845C124.312 77.3697 126.575 77.0375 128.853 77.0825C129.295 77.1 129.58 76.7828 129.7 76.3781C131.334 72.7838 130.657 68.2827 130.492 64.3711C130.632 58.1766 129.653 51.992 130.127 45.8074C131.241 39.3106 130.914 32.7364 131.096 26.1871C131.896 19.2182 132.308 12.0495 131.316 5.08562C131.061 3.90665 132.016 2.51288 130.499 1.67361C127.684 0.979224 124.837 0.477162 121.927 0.407223C117.733 -0.372093 113.527 0.50464 109.31 0.534614C102.914 0.34478 96.5417 1.17405 90.1623 1.32392C83.1909 1.96086 76.5592 0.239859 69.5778 0.177414C65.339 0.122462 61.1402 0.921768 56.8964 1.01169C52.0482 1.16655 47.2873 -0.199752 42.4366 0.025051C30.8792 1.73605 19.3893 1.88592 7.757 0.724435M1.0354 76.1583C1.0354 76.1583 1.04289 76.1583 1.04539 76.1633C1.04289 76.1608 1.0379 76.1608 1.0354 76.1583ZM26.2608 4.55858C27.6496 4.52861 29.0334 4.48365 30.4146 4.4162C38.4726 5.21301 46.588 5.60515 54.6859 5.00068C61.2201 4.56607 67.7469 5.87991 74.2762 5.12557C78.5849 4.87579 82.8911 4.29381 87.1799 3.81922C89.9799 3.57944 92.7325 4.26634 95.5126 4.49364C100.903 5.02067 106.301 5.42282 111.706 5.75753C116.919 5.3304 122.107 4.81585 127.352 5.00318L126.925 17.0601C127.132 20.7019 127.932 24.2913 127.564 27.9556C126.64 35.5764 127.252 43.1522 127.642 50.7806C127.262 58.7411 127.04 66.7391 127.707 74.6896C119.581 74.6446 111.406 73.608 103.348 75.1192C97.823 75.3465 92.2854 75.0468 86.7727 75.5763C79.1619 76.5754 71.7009 74.4773 64.1126 74.3674C59.8763 74.1476 55.6775 74.9843 51.4437 74.9693C46.7378 74.6571 42.0095 74.4523 37.2986 74.8395C25.961 76.483 14.4886 75.1467 3.10359 75.941C3.25595 74.5048 3.15104 73.0286 3.38583 71.6048C3.82295 67.8331 3.69057 64.0289 3.44828 60.2373C3.24845 57.0176 3.70305 53.7854 3.38583 50.5607C2.99617 47.0838 3.21599 43.5844 3.14355 40.1049C3.42581 37.4672 3.95034 34.867 3.89539 32.2018C3.77549 29.4143 3.71555 26.6367 3.92287 23.8691C3.85293 22.0308 3.24346 20.2273 3.5382 18.4014C3.78798 13.8954 4.12768 9.38435 4.93198 4.93325C5.26668 5.00569 5.61138 4.97321 5.93859 4.89328C6.29828 4.80586 6.623 4.62102 6.98768 4.55358" fill="black" style="fill:black;fill-opacity:1;"/>
</svg>