<svg xmlns="http://www.w3.org/2000/svg" width="81" height="80" viewBox="0 0 81 80" fill="none"><title>Trove</title>
<path d="M57.4485 76.4589C49.0385 75.6654 42.0574 74.9597 34.3732 75.4343C23.997 75.0878 13.6409 74.4675 3.25964 75.6051C4.25407 70.9418 3.13659 66.148 3.2496 61.4395C3.50323 58.7776 4.013 56.49 3.70412 53.4715C3.03866 46.9701 3.36009 40.4335 3.24709 33.9019C3.83219 24.269 5.49208 14.6537 4.47254 4.97807C7.70192 5.13377 10.9213 5.13125 14.1456 4.8952C25.5363 4.31261 36.9371 4.25986 48.3329 3.77521C54.7263 3.14239 61.1449 3.59441 67.5434 3.1424C70.3383 2.92393 73.3467 3.7275 76.104 3.1876C76.7394 7.26827 75.8177 11.2636 75.5089 15.3266C75.3356 17.3858 75.755 19.4048 75.9935 21.4389C76.1517 23.714 76.0814 26.0017 76.5284 28.2592C78.113 36.2498 77.2315 34.256 77.4525 39.1804C77.7463 45.7496 76.6716 51.6434 76.8674 57.8912C76.5661 63.7749 77.0131 69.6084 77.0934 75.4896C70.587 76.1952 63.9926 76.4815 57.4485 76.4614V76.4589Z" fill="#88A9D5" style="fill:#88A9D5;fill:color(display-p3 0.5333 0.6627 0.8353);fill-opacity:1;"/>
<path d="M80.4105 75.8109C79.8781 72.1094 79.3231 68.3452 79.2453 64.5985C79.6044 61.7232 79.7927 58.8403 79.2754 55.965C79.6697 49.0241 77.5301 42.1561 78.9891 35.2654C79.077 33.1484 79.5391 30.9286 79.5667 28.7388C79.3231 26.3331 79.1348 23.945 79.0117 21.5217C78.7682 19.1787 77.9269 16.9438 78.0525 14.5556C78.0851 10.8743 77.9872 7.33348 77.6457 3.62698C78.4819 3.04438 78.399 1.20117 77.279 0.957589C76.252 0.779295 75.1671 0.736613 74.12 0.651232C68.6983 -0.69225 63.1963 0.390055 57.732 0.824489C54.3067 1.15597 51.0748 0.548269 47.6195 0.457866C40.9724 0.108812 34.4634 1.90682 27.8389 1.93696C23.3187 1.45983 18.8338 1.50251 14.3111 1.73856C12.2093 1.77372 -2.8051 0.432758 2.19718 4.90266C1.91844 4.92024 1.63969 4.94033 1.36095 4.96293C1.23288 9.21938 0.371548 13.6692 0.208321 18.0161C0.444372 21.042 0.735669 24.0655 1.04203 27.0864C1.10732 31.2525 0.750736 35.406 0.67289 39.572C0.361503 41.7693 0.517196 43.9666 0.80096 46.1564C0.986787 49.3004 0.642755 52.4469 0.743203 55.5909C0.836116 57.7405 -0.286382 59.7544 0.0702056 61.9291C0.251011 63.1445 0.150563 64.38 0.331369 65.5929C1.01943 68.4707 1.95108 71.3134 1.99377 74.3017C1.78534 75.5221 1.30571 76.5542 1.43378 77.4783C1.54176 80.6098 11.5137 79.0378 13.8315 79.0579C16.6767 79.3341 19.5344 79.4446 22.3946 79.1232C29.9483 78.8896 37.517 79.5877 45.0857 79.3944C49.8343 79.3768 54.5152 78.5155 59.2839 78.7641C63.9848 78.4803 68.628 79.5275 73.2963 79.8891C76.4328 80.0272 82.0553 80.7127 80.4105 75.8084V75.8109ZM2.61654 78.8168C2.68686 78.8043 2.75466 78.7817 2.82497 78.754C2.75968 78.7867 2.68937 78.8093 2.61654 78.8168ZM2.61403 76.1424C2.70946 76.1525 2.80237 76.1901 2.88775 76.2353C2.79484 76.1901 2.70444 76.16 2.61403 76.1424ZM77.1409 45.6441C76.1791 55.5959 76.6613 65.5251 77.0932 75.487C70.5892 76.1901 63.9899 76.4789 57.4482 76.4563C53.4303 75.4167 49.3145 75.5422 45.2112 75.1706C41.5976 75.0149 37.984 75.2132 34.373 75.4342C23.9968 75.0852 13.6406 74.4674 3.25941 75.6025C4.25384 70.9392 3.13636 66.1504 3.24936 61.4369C3.50299 58.7751 4.24379 56.181 3.70389 53.4689C3.65869 46.9373 3.35985 40.4258 3.24685 33.8993C3.82945 24.4673 5.40898 15.078 4.54262 5.59825C13.1459 5.59825 21.7467 4.3502 30.3802 4.36527C36.9796 4.62392 43.5614 5.37978 50.1583 4.47576C54.3971 3.92079 58.8495 4.63647 63.1134 4.8449C67.3774 4.89512 71.6439 4.04886 75.9406 3.84545C76.6362 7.71518 75.7171 11.4669 75.5112 15.3266C75.3379 17.3857 75.7547 19.4022 75.9933 21.4363" fill="black" style="fill:black;fill-opacity:1;"/>
<path d="M25.6266 18.6438C25.2323 18.6664 22.7261 14.0433 24.4187 14.2944C24.9033 14.5832 25.0314 15.2286 25.3277 15.6806C25.6642 16.5018 27.2161 18.3525 25.6241 18.6438H25.6266Z" fill="black" style="fill:black;fill-opacity:1;"/>
<path d="M28.3915 17.765C27.7286 16.7078 27.2741 15.5074 26.7392 14.3749C26.5684 14.0534 26.6488 13.4658 27.0606 13.3779C27.942 13.4282 28.5071 15.1458 28.9716 15.8163C29.1524 16.1578 29.3332 16.5018 29.4387 16.8735C29.6672 17.5088 28.9315 18.3727 28.3915 17.765Z" fill="black" style="fill:black;fill-opacity:1;"/>
<path d="M31.1815 16.7278C31.1087 15.9041 29.494 12.6396 30.825 12.5492C31.2619 12.5618 31.9977 15.5275 32.2337 16.0824C32.5501 16.9036 31.5557 17.6821 31.179 16.7278H31.1815Z" fill="black" style="fill:black;fill-opacity:1;"/>
<path d="M34.9382 18.1341C33.7053 17.3632 35.006 15.8063 35.2019 14.7742C35.4229 14.3874 35.7996 12.72 36.3395 12.946C37.0928 13.275 35.9879 15.8138 35.9779 16.5747C35.9603 17.22 35.792 18.4078 34.9408 18.1341H34.9382Z" fill="black" style="fill:black;fill-opacity:1;"/>
<path d="M29.843 34.1831C22.9799 33.4071 22.7639 21.7929 29.3608 20.4595C39.3553 16.1452 39.1595 35.7224 29.843 34.1831Z" fill="white" style="fill:white;fill-opacity:1;"/>
<path d="M35.0962 29.1431C32.9491 27.8749 29.4787 23.5231 28.9463 21.1048C28.9463 21.1098 28.9463 21.1123 28.9463 21.1174C29.4109 18.2973 34.6944 19.3696 35.7918 21.3634C37.0373 23.3674 37.6626 26.2301 36.5301 28.3948C36.4648 29.1657 35.7039 29.5373 35.0962 29.1456V29.1431Z" fill="black" style="fill:black;fill-opacity:1;"/>
<path d="M45.1084 18.6036C44.7794 18.0939 43.117 14.6912 44.478 14.8343C45.146 15.6354 45.362 16.8232 46.0626 17.6569C46.4493 18.34 45.6684 19.3746 45.1084 18.6011V18.6036Z" fill="black" style="fill:black;fill-opacity:1;"/>
<path d="M48.0742 18.3977C47.9587 17.3506 46.108 14.5757 47.3661 14.0785C48.0968 13.7571 49.2093 17.1396 49.365 17.7524C49.5332 18.5911 48.5061 19.2817 48.0742 18.3952V18.3977Z" fill="black" style="fill:black;fill-opacity:1;"/>
<path d="M51.2634 17.7875C51.3312 17.014 51.0123 14.1714 51.7355 13.9604C52.4362 14.8268 51.8486 16.4189 52.1901 17.5163C52.278 18.237 51.4643 18.5509 51.266 17.79L51.2634 17.7875Z" fill="black" style="fill:black;fill-opacity:1;"/>
<path d="M54.8116 18.0764C53.875 17.534 54.6735 16.316 54.8794 15.5552C55.1582 15.0956 55.2963 13.6667 56.0496 13.9857C56.7503 14.5431 55.8914 15.5878 55.8663 16.316C55.6654 16.9137 55.7131 18.2999 54.8116 18.0789V18.0764Z" fill="black" style="fill:black;fill-opacity:1;"/>
<path d="M50.51 33.9396C45.0482 34.5146 43.0091 27.1794 45.5755 23.2419C48.9279 18.1819 55.3867 19.0281 56.8859 25.1203C57.8878 29.1407 55.118 34.8863 50.51 33.9396Z" fill="white" style="fill:white;fill-opacity:1;"/>
<path d="M55.7684 29.7357C53.3803 29.2285 48.7949 23.8269 48.1846 21.489C47.5744 18.6313 52.4486 19.4449 53.9001 20.2384C55.3189 20.6503 55.9316 22.0867 56.464 23.3423C57.0165 24.7284 58.1415 29.8337 55.7659 29.7357H55.7684Z" fill="black" style="fill:black;fill-opacity:1;"/>
</svg>