<svg xmlns="http://www.w3.org/2000/svg" width="401" height="500" viewBox="0 0 401 500" fill="none"><title>Trove</title>
<g clip-path="url(#clip0_12_27627)">
<path d="M5.33515 493.046C5.16349 492.962 4.99648 492.907 4.82947 492.874C5.00576 492.893 5.17741 492.962 5.33515 493.046Z" fill="black" style="fill:black;fill-opacity:1;"/>
<path d="M157.382 492.716C157.382 492.716 157.368 492.712 157.364 492.707C157.364 492.707 157.377 492.707 157.382 492.716Z" fill="black" style="fill:black;fill-opacity:1;"/>
<path d="M391.075 379.259C391.042 376.995 391.061 374.731 391.089 372.472C391.066 374.736 391.042 376.995 391.075 379.259Z" fill="black" style="fill:black;fill-opacity:1;"/>
<path d="M392.151 478.149C392.128 476.883 392.063 475.625 391.961 474.368C392.068 475.621 392.137 476.892 392.151 478.149Z" fill="black" style="fill:black;fill-opacity:1;"/>
<path d="M392.453 488.629C392.439 488.485 392.411 488.342 392.411 488.202C392.425 488.346 392.439 488.485 392.453 488.629Z" fill="black" style="fill:black;fill-opacity:1;"/>
<path d="M392.555 489.492C392.536 489.39 392.522 489.274 392.513 489.172C392.527 489.279 392.546 489.381 392.555 489.492Z" fill="black" style="fill:black;fill-opacity:1;"/>
<path d="M392.634 489.975C392.606 489.812 392.578 489.655 392.555 489.492C392.583 489.655 392.606 489.812 392.634 489.975Z" fill="black" style="fill:black;fill-opacity:1;"/>
<path d="M392.105 359.06C392.068 359.561 392.026 360.062 391.98 360.553H391.975C392.021 360.062 392.063 359.561 392.105 359.06Z" fill="black" style="fill:black;fill-opacity:1;"/>
<path d="M263.333 359.361C263.264 359.361 263.199 359.352 263.129 359.347C263.199 359.347 263.268 359.356 263.338 359.361H263.333Z" fill="#F87361" style="fill:#F87361;fill:color(display-p3 0.9725 0.4510 0.3804);fill-opacity:1;"/>
<path d="M162.281 475.732C162.23 476.743 162.156 478.205 162.105 479.235C161.979 478.08 162.202 476.897 162.281 475.732Z" fill="#F87361" style="fill:#F87361;fill:color(display-p3 0.9725 0.4510 0.3804);fill-opacity:1;"/>
<path d="M172.538 360.043C171.179 359.95 169.815 359.885 168.451 359.839C168.386 359.486 168.312 359.134 168.229 358.786C169.3 358.874 170.372 358.92 171.444 358.99C171.75 359.417 172.121 359.769 172.534 360.043H172.538Z" fill="#F87361" style="fill:#F87361;fill:color(display-p3 0.9725 0.4510 0.3804);fill-opacity:1;"/>
<path d="M233.842 395.557C233.234 394.805 233.313 393.9 233.373 392.996C233.554 391.353 233.187 389.493 233.855 387.957C234.626 387.067 235.164 388.291 235.187 389.024C235.915 387.563 236.509 385.865 238.198 385.559C238.36 387.916 238.69 390.305 238.833 392.657C238.532 391.892 238.24 391.131 237.943 390.365C236.797 391.827 236.565 397.361 233.846 395.552L233.842 395.557Z" fill="#F87361" style="fill:#F87361;fill:color(display-p3 0.9725 0.4510 0.3804);fill-opacity:1;"/>
<path d="M242.308 422.075C235.785 418.02 235.609 410.337 239.218 404.682C239.404 408.222 239.91 411.84 241.199 415.157C241.673 416.201 242.099 417.737 243.236 418.219C247.332 419.305 251.485 420.557 255.762 420.571C252.069 423.559 246.53 424.603 242.313 422.075H242.308Z" fill="#F87361" style="fill:#F87361;fill:color(display-p3 0.9725 0.4510 0.3804);fill-opacity:1;"/>
<path d="M293.507 420.687C291.892 420.117 290.431 419.143 289.281 417.881C295.451 417.25 301.667 416.183 307.833 415.51C305.523 421.123 298.972 423.002 293.507 420.687Z" fill="#F87361" style="fill:#F87361;fill:color(display-p3 0.9725 0.4510 0.3804);fill-opacity:1;"/>
<path d="M216.945 359.797C216.458 359.732 215.971 359.667 215.484 359.598C215.971 359.653 216.458 359.728 216.945 359.797Z" fill="#F87361" style="fill:#F87361;fill:color(display-p3 0.9725 0.4510 0.3804);fill-opacity:1;"/>
<path d="M269.438 360.577C268.97 360.553 268.497 360.53 268.028 360.512C268.497 360.526 268.97 360.553 269.438 360.577Z" fill="#F87361" style="fill:#F87361;fill:color(display-p3 0.9725 0.4510 0.3804);fill-opacity:1;"/>
<path d="M296.662 360.488C287.569 361.644 278.531 361.138 269.438 360.577C278.531 361.129 287.573 361.639 296.662 360.488Z" fill="#F87361" style="fill:#F87361;fill:color(display-p3 0.9725 0.4510 0.3804);fill-opacity:1;"/>
<path d="M300.262 360.219C299.937 360.247 299.612 360.266 299.292 360.289C299.617 360.266 299.937 360.243 300.262 360.219Z" fill="#F87361" style="fill:#F87361;fill:color(display-p3 0.9725 0.4510 0.3804);fill-opacity:1;"/>
<path d="M302.326 360.071C301.969 360.099 301.598 360.127 301.236 360.15C301.602 360.122 301.964 360.094 302.326 360.071Z" fill="#F87361" style="fill:#F87361;fill:color(display-p3 0.9725 0.4510 0.3804);fill-opacity:1;"/>
<path d="M305.546 359.82C304.753 359.89 303.941 359.955 303.143 360.011C303.955 359.946 304.757 359.885 305.546 359.82Z" fill="#F87361" style="fill:#F87361;fill:color(display-p3 0.9725 0.4510 0.3804);fill-opacity:1;"/>
<path d="M307.736 359.565C307.239 359.658 306.743 359.732 306.242 359.76C306.743 359.723 307.239 359.649 307.736 359.565Z" fill="#F87361" style="fill:#F87361;fill:color(display-p3 0.9725 0.4510 0.3804);fill-opacity:1;"/>
<path d="M315.075 358.531C314.926 358.549 314.783 358.563 314.634 358.577C314.783 358.559 314.926 358.545 315.075 358.531Z" fill="#F87361" style="fill:#F87361;fill:color(display-p3 0.9725 0.4510 0.3804);fill-opacity:1;"/>
<path d="M316.703 358.392C316.587 358.401 316.467 358.41 316.351 358.419C316.467 358.405 316.587 358.401 316.703 358.392Z" fill="#F87361" style="fill:#F87361;fill:color(display-p3 0.9725 0.4510 0.3804);fill-opacity:1;"/>
<path d="M319.644 358.266C319.171 358.271 318.698 358.285 318.229 358.303C318.703 358.285 319.171 358.271 319.644 358.266Z" fill="#F87361" style="fill:#F87361;fill:color(display-p3 0.9725 0.4510 0.3804);fill-opacity:1;"/>
<path d="M321.412 358.289C320.879 358.271 320.345 358.262 319.816 358.266C320.35 358.266 320.879 358.266 321.412 358.289Z" fill="#F87361" style="fill:#F87361;fill:color(display-p3 0.9725 0.4510 0.3804);fill-opacity:1;"/>
<path d="M323.903 358.503C323.388 358.429 322.873 358.364 322.354 358.336C322.873 358.354 323.388 358.424 323.903 358.503Z" fill="#F87361" style="fill:#F87361;fill:color(display-p3 0.9725 0.4510 0.3804);fill-opacity:1;"/>
<path d="M336.8 359.992C335.478 359.876 334.161 359.742 332.838 359.602C334.156 359.742 335.478 359.867 336.8 359.992Z" fill="#F87361" style="fill:#F87361;fill:color(display-p3 0.9725 0.4510 0.3804);fill-opacity:1;"/>
<path d="M341.351 360.391C340.015 360.28 338.684 360.178 337.352 360.043C338.689 360.164 340.02 360.28 341.351 360.391Z" fill="#F87361" style="fill:#F87361;fill:color(display-p3 0.9725 0.4510 0.3804);fill-opacity:1;"/>
<path d="M343.481 360.563C342.771 360.516 342.057 360.447 341.352 360.391C342.061 360.447 342.771 360.507 343.481 360.563Z" fill="#F87361" style="fill:#F87361;fill:color(display-p3 0.9725 0.4510 0.3804);fill-opacity:1;"/>
<path d="M347.744 360.887C346.32 360.781 344.901 360.679 343.481 360.563C344.905 360.674 346.325 360.781 347.744 360.887Z" fill="#F87361" style="fill:#F87361;fill:color(display-p3 0.9725 0.4510 0.3804);fill-opacity:1;"/>
<path d="M365.188 361.857C364.998 361.876 364.803 361.885 364.613 361.894C364.808 361.885 364.998 361.871 365.188 361.857Z" fill="#F87361" style="fill:#F87361;fill:color(display-p3 0.9725 0.4510 0.3804);fill-opacity:1;"/>
<path d="M367.28 361.695C367.09 361.713 366.904 361.736 366.719 361.746C366.904 361.727 367.09 361.713 367.28 361.695Z" fill="#F87361" style="fill:#F87361;fill:color(display-p3 0.9725 0.4510 0.3804);fill-opacity:1;"/>
<path d="M386.932 360.567C386.496 360.577 386.065 360.586 385.628 360.59C386.06 360.581 386.496 360.572 386.932 360.567Z" fill="#F87361" style="fill:#F87361;fill:color(display-p3 0.9725 0.4510 0.3804);fill-opacity:1;"/>
<path d="M391.089 360.507C389.702 360.521 388.319 360.549 386.932 360.567C388.315 360.544 389.702 360.512 391.089 360.507Z" fill="#F87361" style="fill:#F87361;fill:color(display-p3 0.9725 0.4510 0.3804);fill-opacity:1;"/>
<path d="M392.105 359.06C392.068 359.561 392.026 360.062 391.98 360.553C391.706 360.535 391.432 360.516 391.163 360.507C391.437 360.507 391.701 360.53 391.975 360.549C392.021 360.057 392.063 359.561 392.105 359.06Z" fill="#F87361" style="fill:#F87361;fill:color(display-p3 0.9725 0.4510 0.3804);fill-opacity:1;"/>
<path d="M106.132 493.459C90.5953 491.993 77.6982 490.689 63.5021 491.566C44.3327 490.926 25.2004 489.78 6.02176 491.881C7.8589 483.266 5.79443 474.41 6.0032 465.711C6.47176 460.794 7.41353 456.567 6.84291 450.991C5.6135 438.98 6.20733 426.904 5.99856 414.837C7.07951 397.041 10.1461 379.277 8.26252 361.402C14.2286 361.69 20.1761 361.685 26.1329 361.249C47.1766 360.173 68.2388 360.076 89.2917 359.18C101.103 358.011 112.961 358.846 124.782 358.011C129.945 357.607 135.503 359.092 140.597 358.095C141.771 365.633 140.068 373.014 139.498 380.521C139.178 384.325 139.952 388.055 140.393 391.813C140.685 396.016 140.555 400.242 141.381 404.413C144.309 419.175 142.68 415.491 143.088 424.589C143.631 436.725 141.646 447.614 142.008 459.156C141.451 470.026 142.277 480.803 142.425 491.668C130.405 492.972 118.222 493.5 106.132 493.463V493.459Z" fill="#88A9D5" style="fill:#88A9D5;fill:color(display-p3 0.5333 0.6627 0.8353);fill-opacity:1;"/>
<path d="M148.554 492.262C147.57 485.423 146.545 478.469 146.401 471.548C147.064 466.236 147.412 460.91 146.457 455.598C147.185 442.775 143.232 430.087 145.928 417.356C146.09 413.446 146.944 409.344 146.995 405.299C146.545 400.855 146.197 396.443 145.969 391.966C145.519 387.637 143.965 383.508 144.197 379.097C144.258 372.295 144.077 365.754 143.446 358.906C144.991 357.83 144.837 354.425 142.768 353.975C140.871 353.646 138.867 353.567 136.932 353.409C126.916 350.927 116.751 352.926 106.656 353.729C100.329 354.341 94.3578 353.219 87.9742 353.052C75.6941 352.407 63.6691 355.729 51.4308 355.784C43.0801 354.903 34.7944 354.982 26.4391 355.418C22.5561 355.483 -5.182 353.005 4.05939 361.263C3.54443 361.296 3.02948 361.333 2.51452 361.375C2.27792 369.238 0.686655 377.459 0.385103 385.489C0.821193 391.08 1.35935 396.665 1.92534 402.246C2.04596 409.943 1.38718 417.616 1.24337 425.313C0.668098 429.372 0.955732 433.431 1.47997 437.477C1.82327 443.285 1.18769 449.098 1.37326 454.907C1.54492 458.878 -0.528829 462.598 0.129945 466.616C0.463971 468.861 0.278401 471.144 0.612427 473.385C1.88358 478.701 3.60474 483.953 3.68361 489.474C3.29855 491.728 2.41246 493.635 2.64906 495.342C2.84855 501.127 21.271 498.223 25.553 498.26C30.8093 498.771 36.0888 498.975 41.3729 498.381C55.3278 497.95 69.3105 499.239 83.2932 498.882C92.066 498.85 100.714 497.258 109.524 497.718C118.208 497.193 126.786 499.128 135.411 499.796C141.205 500.051 151.592 501.318 148.554 492.257V492.262ZM4.83415 497.815C4.96405 497.792 5.0893 497.75 5.2192 497.699C5.09858 497.759 4.96868 497.801 4.83415 497.815ZM4.82951 492.874C5.0058 492.893 5.17745 492.962 5.33519 493.046C5.16353 492.962 4.99652 492.907 4.82951 492.874ZM142.513 436.53C140.736 454.916 141.627 473.259 142.425 491.663C130.409 492.962 118.217 493.496 106.132 493.454C98.7094 491.533 91.1057 491.765 83.5251 491.079C76.8493 490.791 70.1734 491.158 63.5021 491.566C44.3327 490.921 25.2005 489.78 6.02179 491.877C7.85894 483.262 5.79447 474.415 6.00324 465.707C6.4718 460.789 7.84038 455.997 6.84294 450.986C6.75944 438.92 6.20736 426.89 5.9986 414.833C7.0749 397.408 9.99299 380.061 8.39245 362.548C24.2865 362.548 40.176 360.243 56.1257 360.27C68.3177 360.748 80.4771 362.145 92.6645 360.475C100.496 359.449 108.721 360.771 116.598 361.157C124.476 361.249 132.358 359.686 140.296 359.31C141.581 366.459 139.883 373.39 139.502 380.521C139.182 384.325 139.952 388.05 140.393 391.808" fill="black" style="fill:black;fill-opacity:1;"/>
<path d="M47.3435 386.649C46.6152 386.691 41.9852 378.15 45.112 378.614C46.0074 379.148 46.244 380.34 46.7915 381.175C47.4131 382.692 50.2802 386.111 47.3389 386.649H47.3435Z" fill="black" style="fill:black;fill-opacity:1;"/>
<path d="M52.4514 385.025C51.2266 383.072 50.3869 380.855 49.3988 378.762C49.0833 378.169 49.2318 377.083 49.9926 376.921C51.621 377.013 52.6648 380.187 53.5231 381.425C53.8571 382.056 54.1911 382.692 54.386 383.379C54.8081 384.552 53.4488 386.148 52.4514 385.025Z" fill="black" style="fill:black;fill-opacity:1;"/>
<path d="M57.6055 383.109C57.471 381.588 54.488 375.557 56.9468 375.39C57.754 375.413 59.1133 380.892 59.5494 381.917C60.1339 383.434 58.2968 384.872 57.6009 383.109H57.6055Z" fill="black" style="fill:black;fill-opacity:1;"/>
<path d="M64.5459 385.707C62.2681 384.283 64.6712 381.407 65.0331 379.5C65.4413 378.786 66.1372 375.705 67.1347 376.123C68.5264 376.73 66.4852 381.421 66.4666 382.826C66.4341 384.019 66.1233 386.213 64.5506 385.707H64.5459Z" fill="black" style="fill:black;fill-opacity:1;"/>
<path d="M55.1327 415.357C42.4537 413.923 42.0547 392.467 54.242 390.003C72.7062 382.033 72.3444 418.201 55.1327 415.357Z" fill="white" style="fill:white;fill-opacity:1;"/>
<path d="M64.8381 406.046C60.8715 403.703 54.4601 395.663 53.4766 391.196C53.4766 391.205 53.4766 391.21 53.4766 391.219C54.3348 386.009 64.0958 387.99 66.1232 391.673C68.4242 395.376 69.5794 400.664 67.4871 404.663C67.3665 406.088 65.9608 406.774 64.8381 406.051V406.046Z" fill="black" style="fill:black;fill-opacity:1;"/>
<path d="M83.3349 386.575C82.7272 385.633 79.656 379.347 82.1705 379.611C83.4045 381.091 83.8035 383.286 85.0979 384.826C85.8123 386.088 84.3695 387.999 83.3349 386.57V386.575Z" fill="black" style="fill:black;fill-opacity:1;"/>
<path d="M88.8138 386.195C88.6004 384.26 85.1812 379.134 87.5055 378.215C88.8555 377.621 90.9107 383.87 91.1984 385.002C91.5092 386.552 89.6117 387.828 88.8138 386.19V386.195Z" fill="black" style="fill:black;fill-opacity:1;"/>
<path d="M94.7056 385.067C94.8309 383.638 94.2417 378.387 95.5778 377.997C96.8722 379.598 95.7866 382.539 96.4175 384.566C96.5799 385.898 95.0768 386.478 94.7103 385.072L94.7056 385.067Z" fill="black" style="fill:black;fill-opacity:1;"/>
<path d="M101.261 385.601C99.5305 384.599 101.006 382.349 101.386 380.943C101.901 380.094 102.156 377.454 103.548 378.043C104.842 379.073 103.256 381.003 103.209 382.349C102.838 383.453 102.926 386.014 101.261 385.605V385.601Z" fill="black" style="fill:black;fill-opacity:1;"/>
<path d="M93.3137 414.907C83.2233 415.969 79.4563 402.418 84.1976 395.144C90.391 385.796 102.323 387.359 105.093 398.614C106.944 406.041 101.827 416.656 93.3137 414.907Z" fill="white" style="fill:white;fill-opacity:1;"/>
<path d="M103.028 407.141C98.6164 406.204 90.1451 396.225 89.0178 391.906C87.8904 386.626 96.8952 388.129 99.5767 389.595C102.198 390.356 103.33 393.01 104.313 395.329C105.334 397.89 107.412 407.322 103.024 407.141H103.028Z" fill="black" style="fill:black;fill-opacity:1;"/>
<path d="M242.308 422.075C231.828 415.83 237.887 399.059 248.989 398.813C268.988 400.321 259.821 430.379 242.308 422.075Z" fill="#F87361" style="fill:#F87361;fill:color(display-p3 0.9725 0.4510 0.3804);fill-opacity:1;"/>
<path d="M233.842 395.557C233.234 394.805 233.313 393.9 233.373 392.996C233.554 391.353 233.187 389.493 233.855 387.957C234.626 387.067 235.164 388.291 235.187 389.024C236.871 384.613 239.706 384.279 241.046 389.447C242.554 386.032 245.124 383.184 246.92 388.305C248.019 384.678 250.946 381.472 253.79 385.819C257.613 381.249 259.965 387.002 261.241 390.296C263.208 394.531 257.845 398.085 256.634 392.601C254.871 396.651 251.211 396.206 250.269 391.947C247.449 398.28 245.273 394.179 244.345 389.706C241.965 395.649 240.471 398.136 237.943 390.37C236.797 391.831 236.565 397.366 233.846 395.557H233.842Z" fill="#F87361" style="fill:#F87361;fill:color(display-p3 0.9725 0.4510 0.3804);fill-opacity:1;"/>
<path d="M293.502 420.687C284.766 417.839 285.564 406.431 291.118 400.887C305.94 388.969 317.251 415.208 301.477 421.239C298.782 421.986 296.295 421.699 293.502 420.687Z" fill="#F87361" style="fill:#F87361;fill:color(display-p3 0.9725 0.4510 0.3804);fill-opacity:1;"/>
<path d="M308.241 395.134C306.928 394.411 306.975 392.81 306.483 391.59C305.008 396.067 300.373 396.939 300.03 391.465C299.366 392.991 297.664 396.322 295.896 394.039C295.163 392.796 295.544 391.219 294.908 389.911C292.31 395.677 290.25 397.533 288.496 389.994C287.661 391.196 287.211 392.629 286.372 393.817C285.291 395.028 283.825 393.446 284.136 392.188C284.136 392.188 284.131 392.188 284.126 392.188C284.53 390.764 284.34 389.294 284.307 387.846C284.252 386.473 285.685 386.366 285.968 387.679C288.181 383.295 290.835 385.536 291.531 389.331C292.644 386.705 295.302 383.926 297.172 387.698C298.142 385.146 301.022 383.267 302.962 386.069C307.063 381.003 309.763 386.635 311.391 390.351C312.713 392.453 310.839 396.61 308.237 395.134H308.241Z" fill="#F87361" style="fill:#F87361;fill:color(display-p3 0.9725 0.4510 0.3804);fill-opacity:1;"/>
<path d="M216.945 359.797C215.581 359.575 214.194 359.51 212.816 359.477C214.199 359.505 215.581 359.565 216.945 359.797Z" fill="black" style="fill:black;fill-opacity:1;"/>
<path d="M296.662 360.488C287.569 361.644 278.531 361.138 269.438 360.577C278.531 361.129 287.573 361.639 296.662 360.488Z" fill="black" style="fill:black;fill-opacity:1;"/>
<path d="M300.262 360.219C299.937 360.247 299.612 360.266 299.292 360.289C299.617 360.266 299.937 360.243 300.262 360.219Z" fill="black" style="fill:black;fill-opacity:1;"/>
<path d="M302.326 360.071C301.969 360.099 301.598 360.127 301.236 360.15C301.602 360.122 301.964 360.094 302.326 360.071Z" fill="black" style="fill:black;fill-opacity:1;"/>
<path d="M305.546 359.82C304.753 359.89 303.941 359.955 303.143 360.011C303.955 359.946 304.757 359.885 305.546 359.82Z" fill="black" style="fill:black;fill-opacity:1;"/>
<path d="M307.736 359.565C307.239 359.658 306.743 359.732 306.242 359.76C306.743 359.723 307.239 359.649 307.736 359.565Z" fill="black" style="fill:black;fill-opacity:1;"/>
<path d="M315.075 358.531C314.926 358.549 314.783 358.563 314.634 358.577C314.783 358.559 314.926 358.545 315.075 358.531Z" fill="black" style="fill:black;fill-opacity:1;"/>
<path d="M319.644 358.266C319.171 358.271 318.698 358.285 318.229 358.303C318.703 358.285 319.171 358.271 319.644 358.266Z" fill="black" style="fill:black;fill-opacity:1;"/>
<path d="M321.412 358.289C320.879 358.271 320.345 358.262 319.816 358.266C320.35 358.266 320.879 358.266 321.412 358.289Z" fill="black" style="fill:black;fill-opacity:1;"/>
<path d="M325.555 358.735C324.483 358.61 323.43 358.396 322.354 358.336C323.43 358.387 324.488 358.605 325.555 358.735Z" fill="black" style="fill:black;fill-opacity:1;"/>
<path d="M336.8 359.992C335.478 359.876 334.161 359.742 332.838 359.602C334.156 359.742 335.478 359.867 336.8 359.992Z" fill="black" style="fill:black;fill-opacity:1;"/>
<path d="M341.351 360.391C340.015 360.28 338.684 360.178 337.352 360.043C338.689 360.164 340.02 360.28 341.351 360.391Z" fill="black" style="fill:black;fill-opacity:1;"/>
<path d="M343.481 360.563C342.771 360.516 342.057 360.447 341.352 360.391C342.061 360.447 342.771 360.507 343.481 360.563Z" fill="black" style="fill:black;fill-opacity:1;"/>
<path d="M347.744 360.887C346.32 360.781 344.901 360.679 343.481 360.563C344.905 360.674 346.325 360.781 347.744 360.887Z" fill="black" style="fill:black;fill-opacity:1;"/>
<path d="M362.915 361.95C362.915 361.95 362.901 361.95 362.896 361.954C362.632 361.954 362.358 361.964 362.094 361.964C362.367 361.964 362.641 361.954 362.915 361.95Z" fill="black" style="fill:black;fill-opacity:1;"/>
<path d="M363.04 361.95C363.008 361.95 362.98 361.95 362.947 361.954C362.938 361.95 362.933 361.95 362.929 361.95H363.04Z" fill="black" style="fill:black;fill-opacity:1;"/>
<path d="M365.188 361.857C364.998 361.876 364.803 361.885 364.613 361.894C364.808 361.885 364.998 361.871 365.188 361.857Z" fill="black" style="fill:black;fill-opacity:1;"/>
<path d="M367.28 361.695C367.09 361.713 366.904 361.736 366.719 361.746C366.904 361.727 367.09 361.713 367.28 361.695Z" fill="black" style="fill:black;fill-opacity:1;"/>
<path d="M374.926 360.832C374.095 360.925 373.279 361.022 372.472 361.115C373.279 361.013 374.109 360.92 374.926 360.832Z" fill="black" style="fill:black;fill-opacity:1;"/>
<path d="M382.984 360.628C380.762 360.711 378.517 360.53 376.299 360.688C378.517 360.521 380.757 360.707 382.984 360.628Z" fill="black" style="fill:black;fill-opacity:1;"/>
<path d="M391.089 360.507C389.27 360.526 387.447 360.567 385.628 360.591C387.447 360.558 389.266 360.516 391.089 360.507Z" fill="black" style="fill:black;fill-opacity:1;"/>
<path d="M392.105 359.06C392.068 359.561 392.026 360.062 391.98 360.553C391.706 360.535 391.432 360.516 391.163 360.507C391.437 360.507 391.701 360.53 391.975 360.549C392.021 360.057 392.063 359.561 392.105 359.06Z" fill="black" style="fill:black;fill-opacity:1;"/>
<path d="M161.349 489.696C161.349 489.9 161.344 490.114 161.321 490.318C161.33 490.114 161.339 489.905 161.349 489.696Z" fill="black" style="fill:black;fill-opacity:1;"/>
<path d="M157.382 492.716C157.382 492.716 157.368 492.712 157.364 492.707C157.364 492.707 157.377 492.707 157.382 492.716Z" fill="black" style="fill:black;fill-opacity:1;"/>
<path d="M155.563 486.087C155.563 486.133 155.559 486.18 155.559 486.221V486.096C155.559 486.096 155.563 486.092 155.563 486.087Z" fill="black" style="fill:black;fill-opacity:1;"/>
<path d="M162.281 475.732C162.225 476.748 162.156 478.205 162.105 479.235C161.979 478.08 162.202 476.897 162.281 475.732Z" fill="black" style="fill:black;fill-opacity:1;"/>
<path d="M164.786 360.451C164.726 360.442 164.666 360.433 164.605 360.419C164.666 360.428 164.726 360.437 164.786 360.451Z" fill="black" style="fill:black;fill-opacity:1;"/>
<path d="M170.042 358.906C169.551 359.315 168.948 359.588 168.335 359.742C168.363 359.732 168.4 359.718 168.428 359.714C168.368 359.403 168.303 359.092 168.229 358.786C168.832 358.837 169.439 358.874 170.042 358.906Z" fill="black" style="fill:black;fill-opacity:1;"/>
<path d="M4.1289 362.613C3.74385 361.778 4.01756 360.776 3.81807 359.881C3.79024 358.999 4.79232 358.549 5.15418 359.491C5.43717 360.4 5.89646 363.945 4.1289 362.609V362.613Z" fill="black" style="fill:black;fill-opacity:1;"/>
<path d="M4.13829 362.924C3.58158 362.066 3.36353 359.848 3.79498 358.953C5.06614 357.821 6.15636 364.116 4.13829 362.924Z" fill="black" style="fill:black;fill-opacity:1;"/>
<path d="M3.82742 363.082C3.15937 362.228 2.48204 358.433 3.90629 358.057C4.69496 357.918 5.10322 358.953 4.92693 359.588C5.196 360.553 5.61817 363.991 3.82742 363.086V363.082Z" fill="black" style="fill:black;fill-opacity:1;"/>
<path d="M3.98046 362.646C2.17115 363.917 1.91135 358.299 2.57941 357.519C2.70467 357.413 3.16859 358.006 3.36808 358.025C4.35624 357.51 4.20778 359.231 4.44439 359.774C4.72274 360.693 5.14491 362.21 3.98046 362.646Z" fill="black" style="fill:black;fill-opacity:1;"/>
<path d="M7.26972 53.4813C3.85523 38.6682 8.5316 22.969 8.31819 7.9749C16.3209 9.39451 24.3051 8.11408 32.317 8.22078C36.9888 8.69398 41.3914 9.16255 46.1513 9.01873C56.854 7.04705 67.3898 10.095 78.0461 10.2389C85.905 10.1832 93.5969 7.94706 101.465 8.77749C110.159 8.84708 119.08 11.2734 127.779 9.07904C130.252 23.4886 129.384 38.0187 130.201 52.5442C125.162 52.7483 120.152 53.3514 115.151 54.0056C107.672 41.9342 97.7027 41.4378 85.4736 37.564C73.5832 35.3047 60.5794 33.0779 48.9348 37.8517C40.1806 40.5424 32.099 45.8869 29.0324 54.9334C21.9993 56.019 14.9106 55.3324 7.84963 55.7592" fill="#EBB778" style="fill:#EBB778;fill:color(display-p3 0.9216 0.7176 0.4706);fill-opacity:1;"/>
<path d="M39.8604 32.8367C29.1205 29.9186 34.9242 12.3868 45.2094 14.8503C56.1952 18.3807 49.8533 34.3305 39.8604 32.8367Z" fill="white" style="fill:white;fill-opacity:1;"/>
<path d="M90.9896 32.9202C80.4075 30.1784 83.1261 12.3497 94.7103 15.7503C103.107 18.6174 99.6186 33.9501 90.9896 32.9202Z" fill="white" style="fill:white;fill-opacity:1;"/>
<path d="M45.7522 28.6753C42.8155 28.2716 43.7805 24.203 44.8893 22.4308C45.1491 20.3849 47.427 16.2931 49.343 19.4571C50.3868 21.7674 48.3734 28.2345 45.7522 28.6753Z" fill="black" style="fill:black;fill-opacity:1;"/>
<path d="M94.6361 29.0696C92.1541 28.7402 93.9263 24.9035 94.3345 23.4561C94.6547 22.2963 94.9098 21.0158 95.8469 20.1715C97.5774 18.7844 99.0666 21.2895 99.0573 22.853C98.6862 24.9778 97.582 29.9186 94.6361 29.0649V29.0696Z" fill="black" style="fill:black;fill-opacity:1;"/>
<path d="M63.7108 156.334C47.8306 155.434 31.9041 150.743 25.3117 134.473C22.9782 125.798 21.2013 116.9 20.8859 107.923C21.5446 79.4379 39.6563 63.4928 66.9861 59.3732C68.3547 60.4124 70.0712 59.0623 71.579 59.0206C75.2579 59.067 79.0203 58.5103 82.6436 59.3082C89.1849 61.8181 94.9701 66.2717 100.189 70.8785C106.011 77.7261 112.669 84.4715 115.643 93.133C116.413 98.264 118.023 103.395 117.93 108.6C117.517 112.664 116.881 116.733 115.824 120.681C113.425 128.526 112.21 137.447 107.77 144.457C99.3402 153.759 75.8239 156.913 63.7062 156.334H63.7108Z" fill="#F87361" style="fill:#F87361;fill:color(display-p3 0.9725 0.4510 0.3804);fill-opacity:1;"/>
<path d="M54.0612 104.958C44.8894 101.266 49.1112 82.9823 59.5773 86.6845C63.4325 88.1644 65.4135 92.8779 64.5691 96.7888C63.4464 101.433 59.234 107.343 54.0566 104.958H54.0612Z" fill="white" style="fill:white;fill-opacity:1;"/>
<path d="M57.5963 102.119C51.723 100.231 53.8849 90.2288 59.5262 89.6675C66.4526 90.0618 64.0634 103.59 57.5963 102.119Z" fill="black" style="fill:black;fill-opacity:1;"/>
<path d="M83.3952 102.746C72.9522 98.8857 77.2807 80.1617 89.0273 85.5618C96.399 89.7742 92.0428 104.759 83.3952 102.746Z" fill="white" style="fill:white;fill-opacity:1;"/>
<path d="M49.2874 85.2185C48.3827 84.6942 48.4616 83.5901 48.2621 82.7133C47.3343 81.0014 46.0445 79.2292 46.2162 77.1786C46.592 75.0678 48.5544 75.6291 48.7168 77.5266C49.2735 79.888 53.2632 83.0334 50.6096 85.2185C50.1967 85.469 49.7003 85.469 49.2874 85.2185Z" fill="black" style="fill:black;fill-opacity:1;"/>
<path d="M57.2623 83.0009C55.4484 82.4024 56.4365 79.3405 56.4736 77.9024C56.7845 76.7379 56.3716 73.7363 57.9025 73.5507C59.6422 73.7781 58.7654 77.2853 58.8907 78.5472C58.6309 79.8694 59.2665 83.089 57.2623 82.9963V83.0009Z" fill="black" style="fill:black;fill-opacity:1;"/>
<path d="M62.718 83.3349C61.0711 81.572 63.6644 79.7024 64.4113 78.125C65.316 77.2436 66.4712 73.5925 67.8212 74.2605C69.5516 75.592 66.9165 77.9534 66.2856 79.3452C65.367 80.4632 64.6155 84.4112 62.718 83.3349Z" fill="black" style="fill:black;fill-opacity:1;"/>
<path d="M75.2719 83.5854C74.3812 81.8921 74.1446 79.9065 73.3791 78.1389C72.9198 77.3549 73.0729 74.7105 74.2698 76.2461C74.9796 77.9627 75.94 79.5586 76.557 81.3168C77.8652 82.2586 76.6776 85.2092 75.2719 83.5854Z" fill="black" style="fill:black;fill-opacity:1;"/>
<path d="M83.9983 82.6205C82.8478 81.8086 83.0983 80.2174 83.0333 78.9879C82.973 77.8142 81.906 72.326 84.3555 73.9683C84.7174 75.7219 87.7793 83.4834 83.9983 82.6205Z" fill="black" style="fill:black;fill-opacity:1;"/>
<path d="M90.9015 82.2168C89.2499 80.389 92.284 77.1786 93.2954 75.5874C93.8428 75.0492 94.0655 73.8848 95.0026 73.9915C96.3619 74.4229 95.8701 76.1255 95.1 76.8817C94.0423 78.0462 92.8453 83.3674 90.9061 82.2168H90.9015Z" fill="black" style="fill:black;fill-opacity:1;"/>
<path d="M16.7059 206.577C13.7322 206.488 10.828 205.932 7.88672 205.537C8.89808 202.234 8.45271 198.764 8.6058 195.368C8.67075 189.606 9.3852 183.83 8.61972 178.087C28.2113 177.266 47.8585 176.203 67.464 177.414C75.9213 176.644 84.3509 175.178 92.8453 174.946C106.656 178.314 121.071 178.931 134.868 175.118C136.635 183.821 134.84 192.96 135.049 201.817C125.083 202.086 115.36 205.194 105.441 206.238C99.4238 206.86 93.4902 205.194 87.5287 204.582C76.2183 203.329 65.0933 206.071 53.7225 205.241C41.41 204.651 29.0092 206.498 16.7106 206.577H16.7059Z" fill="#69A147" style="fill:#69A147;fill:color(display-p3 0.4118 0.6314 0.2784);fill-opacity:1;"/>
<path d="M101.298 199.919C96.1995 198.741 94.7103 192.209 96.8861 187.955C98.8161 181.01 108.507 180.444 111.43 187.008C114.641 193.842 108.378 201.627 101.298 199.915V199.919Z" fill="white" style="fill:white;fill-opacity:1;"/>
<path d="M33.2031 201.487C22.2916 198.207 26.4762 180.133 37.7449 183.134C46.6384 186.628 43.3491 204.995 33.2031 201.487Z" fill="white" style="fill:white;fill-opacity:1;"/>
<path d="M34.2469 198.718C26.2674 197.08 30.6793 180.054 38.1114 186.609C42.5929 190.376 41.1826 200.504 34.2423 198.722L34.2469 198.718Z" fill="black" style="fill:black;fill-opacity:1;"/>
<path d="M102.945 198.147C96.4408 196.213 98.5795 185.157 104.768 184.401C112.395 184.67 110.094 199.608 102.945 198.147Z" fill="black" style="fill:black;fill-opacity:1;"/>
<path d="M121.725 330.802C126.336 332.045 130.915 330.63 135.564 330.663C132.414 326.659 129.565 322.4 127.009 317.993C123.59 312.829 119.614 308.005 117.174 302.243C114.325 293.878 108.953 286.771 105.376 278.736C100.115 269.248 93.3928 260.652 87.9649 251.267C83.3488 241.617 78.139 232.25 73.3698 222.666C68.4893 231.346 64.6248 240.606 58.9557 248.854C50.9669 259.237 43.3446 269.8 36.6965 281.115C31.5562 288.803 25.8732 296.063 21.5494 304.279C19.0303 309.007 17.0818 314.036 14.79 318.874C12.2662 322.604 9.76568 326.316 7.67338 330.324C20.5891 327.972 33.6625 328.881 46.6338 327.313C55.6432 326.886 64.6434 328.515 73.5971 327.893C80.2916 327.489 86.6706 329.688 93.1609 330.918C102.685 331.929 112.275 329.206 121.725 330.797V330.802ZM124.105 338.317C112.418 335.116 100.333 335.478 88.3824 335.038C85.0283 335.269 81.7112 334.578 78.3617 334.931C74.6317 335.093 71.1383 336.601 67.3898 336.439C59.8093 335.877 52.2566 334.328 44.6621 334.147C39.7445 335 34.7898 335.418 29.8815 336.29C21.7674 337.051 13.426 336.23 5.43726 337.9C4.43054 338.039 3.46557 338.698 2.45886 338.215C-4.47219 337.162 12.0111 314.495 13.4678 310.83C21.0855 299.932 25.0149 287.244 32.2568 276.184C38.9558 266.929 45.5529 257.511 51.1524 247.639C57.7402 237.91 65.613 229.1 71.9317 219.214C73.7595 215.507 75.8797 221.033 77.0441 222.485C79.3359 226.01 82.2679 229.063 84.2442 232.793C90.4747 242.61 95.8238 253.238 101.396 263.407C106.179 273.507 111.556 283.189 119.09 291.517C123.683 299.552 130.335 306.599 133.388 315.455C135.466 321.24 138.681 326.455 142.773 330.969C145.988 337.552 136.988 337.918 132.641 337.965C129.82 338.424 126.944 338.786 124.105 338.322V338.317Z" fill="black" style="fill:black;fill-opacity:1;"/>
<path d="M121.725 330.802C112.275 329.211 102.681 331.934 93.1562 330.923C86.6659 329.693 80.2869 327.494 73.5925 327.898C64.6434 328.524 55.6386 326.896 46.6291 327.322C33.6578 328.895 20.589 327.981 7.6687 330.333C9.761 326.325 12.2569 322.614 14.7853 318.884C17.0771 314.05 19.0209 309.016 21.5447 304.289C25.8685 296.072 31.5562 288.812 36.6919 281.125C43.3353 269.805 50.9622 259.241 58.951 248.863C64.6155 240.61 68.48 231.355 73.3651 222.67C78.1343 232.255 83.3395 241.622 87.9602 251.271C93.3882 260.656 100.11 269.253 105.371 278.74C108.948 286.775 114.32 293.883 117.169 302.247C119.609 308.009 123.585 312.829 127.004 317.998C129.56 322.4 132.409 326.659 135.559 330.667C130.906 330.635 126.345 332.054 121.72 330.807L121.725 330.802Z" fill="#EBB778" style="fill:#EBB778;fill:color(display-p3 0.9216 0.7176 0.4706);fill-opacity:1;"/>
<path d="M55.4715 275.474C54.7617 275.261 53.7503 275.572 53.356 274.797C53.022 274.166 53.3281 273.001 54.14 273.066C58.0323 272.319 61.6788 270.394 64.8984 268.023C67.4825 265.43 69.1758 270.631 66.6474 271.837C63.7061 274.574 59.3453 275.307 55.4715 275.474Z" fill="black" style="fill:black;fill-opacity:1;"/>
<path d="M56.0189 293.103C48.4337 292.393 45.8775 277.956 52.3493 279.088C63.4881 281.793 62.5974 277.121 66.5686 278.661C70.0712 281.069 68.0439 287.513 65.7799 290.204C63.3257 292.732 59.452 293.785 56.0189 293.108V293.103Z" fill="white" style="fill:white;fill-opacity:1;"/>
<path d="M56.6452 293.563C53.3885 293.549 48.2853 290.501 50.0668 286.761C51.6952 282.702 69.6537 282.888 65.5619 289.87C63.8407 293.14 59.9437 293.623 56.6452 293.563Z" fill="black" style="fill:black;fill-opacity:1;"/>
<path d="M89.6998 275.525C85.8075 274.764 77.3594 273.837 78.5656 268.297C80.2125 265.444 83.0842 269.995 85.1301 270.487C87.3848 271.54 89.607 272.691 92.089 273.062C92.4741 272.997 92.7942 273.349 92.9287 273.707C93.5272 275.674 90.9524 275.437 89.7044 275.521L89.6998 275.525Z" fill="black" style="fill:black;fill-opacity:1;"/>
<path d="M85.427 292.658C80.296 292.305 77.2944 286.256 77.7769 281.542C77.9021 279.789 78.4681 277.557 80.5372 277.664C84.2162 278.828 88.6327 279.492 92.3209 278.086C99.6463 275.553 97.5215 294.017 85.427 292.653V292.658Z" fill="white" style="fill:white;fill-opacity:1;"/>
<path d="M85.9003 293.312C83.4368 292.95 80.9223 291.405 79.7579 289.137C77.7955 288.047 80.0362 285.759 81.326 285.142C84.3739 283.338 88.2245 283.398 91.5555 284.219C99.3912 287.314 90.6926 293.864 85.8956 293.312H85.9003Z" fill="black" style="fill:black;fill-opacity:1;"/>
<path d="M254.421 329.419H254.417C254.389 328.997 254.365 328.584 254.338 328.162C254.37 328.584 254.393 328.997 254.421 329.419Z" fill="black" style="fill:black;fill-opacity:1;"/>
<path d="M254.955 223.199C254.76 230.334 254.143 237.001 253.642 244.201C254.352 256.667 253.897 269.026 253.104 281.459C252.649 289.642 254.579 297.701 254.426 305.871C254.245 313.729 253.679 321.574 254.421 329.419H254.417C254.407 329.299 254.403 329.183 254.393 329.062C249.736 330.273 245.05 329.962 240.304 329.248C234.607 329.289 228.882 328.863 223.194 329.308C213.87 330.241 204.095 332.811 194.709 332.041C182.239 331.739 170.117 330.635 157.633 330.482C155.318 317.251 157.749 303.718 156.389 290.394C154.19 279.255 154.204 268.112 155.16 256.848C154.408 246.465 153.916 236.068 153.049 225.69C170.539 226.442 188.02 223.129 205.556 223.357C222.007 226.229 238.439 223.965 254.955 223.199Z" fill="#69A147" style="fill:#69A147;fill:color(display-p3 0.4118 0.6314 0.2784);fill-opacity:1;"/>
<path d="M184.74 266.302C174.802 262.48 180.945 242.15 191.485 246.386C204.044 251.313 197.293 270.983 184.74 266.302Z" fill="white" style="fill:white;fill-opacity:1;"/>
<path d="M219.219 265.509C211.62 264.878 210.566 254.379 215.025 249.582C219.358 241.914 227.495 245.189 229.072 252.881C230.492 259.362 226.21 266.827 219.219 265.509Z" fill="white" style="fill:white;fill-opacity:1;"/>
<path d="M194.389 240.633C191.003 239.692 187.333 241.018 183.816 240.536C182.392 240.49 182.448 238.625 183.538 238.063C185.593 236.667 190.195 236.384 192.51 237.214C193.461 237.725 194.849 237.803 195.493 238.699C195.948 239.483 195.387 240.977 194.389 240.633Z" fill="black" style="fill:black;fill-opacity:1;"/>
<path d="M223.009 237.683L223.097 237.725C220.156 237.043 217.154 235.428 215.869 232.547C215.479 231.638 214.306 229.62 215.832 229.239C216.463 229.253 216.551 230.005 216.894 230.399C218.068 232.51 220.471 234.213 222.93 234.25C225.523 233.642 225.43 238.583 223.004 237.678L223.009 237.683Z" fill="black" style="fill:black;fill-opacity:1;"/>
<path d="M187.621 267.291C179.841 268.033 177.595 258.249 180.086 252.454C180.884 250.622 181.863 251.151 182.8 252.514C183.97 253.827 185.185 255.085 186.489 256.258C188.354 258.086 189.894 260.137 191.972 261.733C195.285 264.841 191.082 267.986 187.621 267.291Z" fill="black" style="fill:black;fill-opacity:1;"/>
<path d="M218.56 265.889C214.598 265.087 211.401 260.531 212.385 256.546C212.413 254.695 212.227 252.719 213.605 251.276C213.925 250.186 215.442 250.455 215.98 251.234C219.242 254.045 221 258.096 224.452 260.656C225.616 260.93 226.187 262.271 226.011 263.37C225.904 266.154 220.55 266.2 218.564 265.88L218.56 265.889Z" fill="black" style="fill:black;fill-opacity:1;"/>
<path d="M254.421 329.419H254.417C254.407 329.299 254.403 329.183 254.393 329.062H254.398C254.407 329.183 254.412 329.299 254.421 329.419Z" fill="black" style="fill:black;fill-opacity:1;"/>
<path d="M397.978 327.675C397.941 327.638 397.904 327.61 397.862 327.582C395.348 310.552 398.257 293.498 398.679 276.435C398.901 265.115 396.893 254.064 396.331 242.73C395.858 229.216 399.528 215.906 398.781 202.36C397.296 190.353 398.553 178.286 397.63 166.243C397.491 161.4 396.132 156.672 396.178 151.824C396.767 142.054 396.967 132.27 397.301 122.499C397.259 116.779 401.207 96.1578 393.464 96.5058C381.453 94.9934 369.433 96.8491 357.426 97.1181C347.378 97.698 337.292 95.6521 327.285 97.2573C319.593 99.0434 311.883 97.6331 304.261 96.2599C299.696 95.7171 295.135 96.4037 290.561 96.3619C283.565 96.7377 276.379 96.5846 269.559 98.2269C266.84 99.0852 267.416 102.5 267.133 104.791C266.14 120.198 268.747 135.448 269.36 150.785C268.427 164.68 269.587 178.556 269.244 192.445C268.817 203.403 271.299 213.93 271.419 224.902C271.405 233.155 270.357 241.366 269.935 249.606C268.775 274.161 274.115 298.624 271.122 323.282C271.531 325.481 270.014 331.113 271.257 333.326C274.296 338.735 290.482 334.782 296.406 335.432C305.921 334.931 315.404 336.021 324.896 334.852C335.733 333.961 346.58 334.17 357.357 335.678C365.986 336.318 374.592 335.576 383.221 335.186C387.558 335.13 392.026 334.518 396.368 334.801C399.62 334.601 400.237 329.54 397.978 327.675Z" fill="black" style="fill:black;fill-opacity:1;"/>
<path d="M304.572 328.366C304.224 328.376 303.88 328.389 303.532 328.389C303.88 328.389 304.224 328.371 304.572 328.366Z" fill="#EBB778" style="fill:#EBB778;fill:color(display-p3 0.9216 0.7176 0.4706);fill-opacity:1;"/>
<path d="M311.804 328.023C310.76 328.069 309.721 328.125 308.677 328.19C309.721 328.116 310.76 328.065 311.804 328.023Z" fill="#EBB778" style="fill:#EBB778;fill:color(display-p3 0.9216 0.7176 0.4706);fill-opacity:1;"/>
<path d="M319.668 328.069C319.306 328.055 318.949 328.028 318.587 328.014C318.949 328.032 319.306 328.046 319.668 328.069Z" fill="#EBB778" style="fill:#EBB778;fill:color(display-p3 0.9216 0.7176 0.4706);fill-opacity:1;"/>
<path d="M321.166 328.153C320.665 328.13 320.169 328.097 319.668 328.069C320.164 328.093 320.67 328.125 321.166 328.153Z" fill="#EBB778" style="fill:#EBB778;fill:color(display-p3 0.9216 0.7176 0.4706);fill-opacity:1;"/>
<path d="M321.932 328.195C321.885 328.204 321.839 328.19 321.792 328.19C321.839 328.19 321.885 328.195 321.932 328.195Z" fill="#EBB778" style="fill:#EBB778;fill:color(display-p3 0.9216 0.7176 0.4706);fill-opacity:1;"/>
<path d="M307.819 115.244C306.427 112.358 315.683 109.231 317.817 108.981C320.883 107.89 328.524 110.758 326.756 114.701C323.82 117.433 323.249 107.139 309.452 114.882C309.369 115.791 308.209 116.13 307.819 115.244Z" fill="#EBB778" style="fill:#EBB778;fill:color(display-p3 0.9216 0.7176 0.4706);fill-opacity:1;"/>
<path d="M358.484 115.865C356.128 114.065 353.2 112.766 350.18 113.23C347.619 113.374 345.286 114.511 342.882 115.225C340.178 113.833 344.052 111.263 345.564 110.609C351.224 107.338 356.29 108.243 360.479 113.244C361.542 114.678 360.006 117.438 358.484 115.87V115.865Z" fill="#EBB778" style="fill:#EBB778;fill:color(display-p3 0.9216 0.7176 0.4706);fill-opacity:1;"/>
<path d="M317.325 143.381C313.822 143.126 308.473 140.268 307.156 137.03C304.344 130.103 307.842 119.159 316.221 118.491C327.262 116.654 333.664 129.867 326.859 137.554C324.85 140.537 321.129 143.914 317.325 143.381Z" fill="white" style="fill:white;fill-opacity:1;"/>
<path d="M349.804 143.729C334.843 144.721 338.229 119.131 350.277 117.368C365.429 115.258 365.81 145.148 351.001 143.854L349.809 143.729H349.804Z" fill="white" style="fill:white;fill-opacity:1;"/>
<path d="M307.819 115.244C306.427 112.358 315.683 109.231 317.817 108.981C320.883 107.89 328.524 110.758 326.756 114.701C323.82 117.433 323.249 107.139 309.452 114.882C309.369 115.791 308.209 116.13 307.819 115.244Z" fill="black" style="fill:black;fill-opacity:1;"/>
<path d="M358.48 115.865C356.123 114.065 353.196 112.766 350.175 113.23C347.615 113.374 345.281 114.511 342.878 115.225C340.173 113.833 344.047 111.263 345.559 110.609C351.219 107.338 356.285 108.243 360.475 113.244C361.537 114.678 360.001 117.438 358.48 115.87V115.865Z" fill="black" style="fill:black;fill-opacity:1;"/>
<path d="M283.973 328.069C283.356 328.042 282.748 328.028 282.131 328C282.748 328.014 283.356 328.046 283.973 328.069Z" fill="black" style="fill:black;fill-opacity:1;"/>
<path d="M304.572 328.366C304.224 328.376 303.88 328.389 303.532 328.389C303.88 328.389 304.224 328.371 304.572 328.366Z" fill="black" style="fill:black;fill-opacity:1;"/>
<path d="M311.804 328.023C310.76 328.069 309.721 328.125 308.677 328.19C309.721 328.116 310.76 328.065 311.804 328.023Z" fill="black" style="fill:black;fill-opacity:1;"/>
<path d="M319.668 328.069C319.306 328.055 318.949 328.028 318.587 328.014C318.949 328.032 319.306 328.046 319.668 328.069Z" fill="black" style="fill:black;fill-opacity:1;"/>
<path d="M321.166 328.153C320.665 328.13 320.169 328.097 319.668 328.069C320.164 328.093 320.67 328.125 321.166 328.153Z" fill="black" style="fill:black;fill-opacity:1;"/>
<path d="M321.533 328.171C321.426 328.171 321.31 328.158 321.203 328.153C321.315 328.162 321.421 328.167 321.533 328.171Z" fill="black" style="fill:black;fill-opacity:1;"/>
<path d="M338.206 328.672C337.45 328.682 336.68 328.691 335.919 328.682C336.68 328.682 337.445 328.682 338.206 328.672Z" fill="black" style="fill:black;fill-opacity:1;"/>
<path d="M346.552 328.26C346.023 328.315 345.527 328.352 344.97 328.385C345.527 328.343 346.023 328.306 346.552 328.26Z" fill="black" style="fill:black;fill-opacity:1;"/>
<path d="M347.485 328.171C347.392 328.185 347.299 328.185 347.202 328.199C347.299 328.19 347.387 328.176 347.485 328.171Z" fill="black" style="fill:black;fill-opacity:1;"/>
<path d="M355.014 327.206C354.907 327.225 354.801 327.239 354.694 327.253C354.801 327.234 354.907 327.225 355.014 327.206Z" fill="black" style="fill:black;fill-opacity:1;"/>
<path d="M320.8 328.13C332.226 328.895 343.926 329.067 355.232 327.174C367.248 325.778 379.509 326.998 391.525 327.137C391.989 318.661 393.079 310.185 392.235 301.695C391.738 291.057 390.37 280.434 390.5 269.782C390.922 258.16 392.912 246.599 392.578 234.973C391.669 225.82 389.948 216.653 390.542 207.426C391.154 200.768 392.1 194.111 391.896 187.398C391.929 182.202 390.987 177.066 390.908 171.88C390.713 159.711 393.265 147.607 392.105 135.438C391.326 124.773 390.709 114.07 391.223 103.376C381.291 104.476 371.312 104.031 361.365 103.4C355.659 103.103 350.041 104.606 344.344 104.768C336.582 104.972 328.686 104.049 320.99 103.372C313.465 102.43 305.838 99.8135 298.271 101.952C290.069 103.07 281.695 102.221 273.461 101.753C274.277 105.051 274.259 108.647 274.184 111.978C273.577 128.326 271.869 144.805 274.556 161.033C275.799 168.507 274.407 176.032 274.342 183.538C274.092 188.284 275.391 192.858 275.66 197.558C276.453 206.66 275.103 215.762 275.001 224.851C275.562 234.556 276.509 244.243 277.181 253.948C278.879 269.508 275.451 285.087 276.611 300.637C276.991 309.832 280.104 318.67 279.932 327.902M307.68 114.58C307.689 114.311 307.777 114.056 307.916 113.824C307.916 113.801 307.94 113.787 307.949 113.759H307.954C308.056 113.578 308.185 113.416 308.329 113.263C308.478 113.082 308.668 112.933 308.835 112.771H308.84C309.257 112.414 309.679 112.135 310.171 111.838H310.176C310.695 111.532 311.233 111.24 311.79 110.989C312.004 110.887 312.222 110.785 312.435 110.697C312.922 110.479 313.456 110.266 313.952 110.085C314.026 110.057 314.096 110.025 314.166 110.006C317.636 108.698 321.955 107.9 324.984 110.595C324.984 110.595 325.021 110.628 325.04 110.642C325.555 111.045 326.074 111.477 326.478 111.996H326.483C326.515 112.033 326.548 112.075 326.571 112.117C326.766 112.391 326.937 112.687 327.025 113.012H327.03C327.049 113.105 327.081 113.202 327.086 113.295C327.169 113.819 327.012 114.372 326.65 114.854H326.645C326.576 114.942 326.497 115.03 326.404 115.095C326.367 115.123 326.334 115.151 326.297 115.169C326.297 115.169 326.294 115.171 326.288 115.174C326.005 115.35 325.648 115.346 325.346 115.225C321.115 110.256 314.439 111.982 309.452 114.886C309.299 116.218 307.522 115.87 307.675 114.58H307.68ZM326.265 121.836C326.265 121.869 326.265 121.896 326.279 121.92C327.132 122.936 327.814 124.1 328.278 125.339C328.473 125.844 328.631 126.359 328.756 126.884C329.062 128.15 329.164 129.472 329.067 130.776C328.937 132.409 328.492 134.014 327.731 135.471C327.002 136.872 325.963 138.087 325.017 139.34C324.479 139.994 323.903 140.62 323.258 141.172C323.101 141.302 322.934 141.437 322.771 141.567C322.609 141.697 322.433 141.817 322.266 141.933C322.182 141.989 322.094 142.045 322.01 142.1H322.006C321.922 142.156 321.834 142.207 321.746 142.258H321.741C321.658 142.309 321.57 142.36 321.477 142.407H321.472C321.472 142.407 321.472 142.411 321.463 142.411L321.454 142.42C321.37 142.458 321.291 142.504 321.203 142.546C321.11 142.587 321.018 142.634 320.925 142.676C320.651 142.782 320.377 142.903 320.094 142.982C320.025 143 319.941 143.014 319.876 143.042C319.603 143.116 319.32 143.163 319.037 143.204C318.87 143.223 318.698 143.242 318.526 143.246H318.522C314.49 143.423 309.248 140.203 307.146 136.844C305.634 133.518 306.557 129.106 307.383 125.696M342.071 113.555C342.117 113.43 342.154 113.304 342.224 113.188C342.224 113.188 342.225 113.185 342.228 113.179C342.303 113.026 342.4 112.887 342.497 112.743H342.502C342.706 112.479 342.943 112.247 343.207 112.043L343.221 112.029H343.226C343.448 111.848 343.69 111.699 343.926 111.542H343.931C344.376 111.268 344.84 111.022 345.295 110.762C345.388 110.716 345.471 110.66 345.559 110.604C351.131 107.459 355.733 108.122 360.127 112.78H360.131C360.549 113.249 360.897 113.829 360.818 114.492C360.818 114.562 360.813 114.641 360.804 114.71H360.799C360.79 114.78 360.781 114.849 360.767 114.91C360.758 114.961 360.73 115.026 360.725 115.081H360.72V115.091C360.72 115.091 360.72 115.095 360.716 115.095C360.702 115.146 360.688 115.197 360.669 115.248H360.665C360.609 115.406 360.53 115.564 360.437 115.708H360.433C360.247 116.009 359.946 116.246 359.598 116.315C357.71 115.745 355.974 113.889 353.882 113.416C350.055 112.418 346.325 114.191 342.757 115.202C342.688 115.197 342.627 115.169 342.562 115.142C342.544 115.128 342.516 115.118 342.497 115.105H342.493C342.465 115.086 342.442 115.067 342.419 115.049C342.395 115.035 342.372 115.012 342.349 114.989V114.984C342.344 114.984 342.344 114.984 342.344 114.984C341.973 114.617 341.904 114.028 342.071 113.555ZM360.27 123.664C360.795 124.643 361.161 125.705 361.388 126.791C361.634 127.951 361.709 129.152 361.676 130.335C361.504 133.286 360.836 136.311 359.217 138.816C355.71 145.12 343.852 144.842 341.12 138.046C339.445 133.986 340.54 125.422 343.031 122.054" fill="#EBB778" style="fill:#EBB778;fill:color(display-p3 0.9216 0.7176 0.4706);fill-opacity:1;"/>
<path d="M399.055 2.76967C397.496 -2.2732 371.4 4.5465 365.253 2.90421C350.778 2.24079 336.341 1.61913 321.843 2.03667C310.705 2.47276 299.761 5.15424 288.561 3.78103C278.434 2.80678 268.654 -0.853587 258.365 0.185606C251.485 0.566024 244.711 2.31502 237.822 2.37533C228.056 2.07378 218.249 1.56346 208.525 3.07122C195.763 5.55322 183.093 3.80422 170.265 3.63257C163.278 2.75575 155.777 2.12945 148.888 3.60473C142.281 0.770151 143.622 17.2673 144.364 21.5401C144.383 27.8216 144.68 34.1171 146.378 40.2038C146.345 46.6199 145.816 53.1241 144.091 59.3546C142.75 65.7707 142.448 72.4466 143.993 78.8117C147.06 87.9278 144.114 97.4104 144.726 106.93C144.16 125.464 146.605 143.9 146.225 162.42C148.957 172.854 142.207 184.684 147.12 194.529C147.023 196.333 147.899 198.184 149.737 198.296C153.272 198.43 156.579 200.142 160.124 200.462C175.401 202.578 190.214 200.731 205.653 200.193C214.074 200.119 222.485 199.989 230.896 199.85C239.014 198.834 247.012 196.579 255.275 197.864C257.288 199.91 259.97 197.943 260.016 194.802C259.793 191.272 260.025 188.224 260.155 184.587C260.809 176.384 260.039 168.113 259.807 159.906C257.353 142.829 258.23 125.645 258.773 108.475C259.056 103.154 257.673 98.0414 257.029 92.8176C257.093 89.4587 257.618 86.1138 257.845 82.7597C269.712 81.7529 281.185 85.6592 293.034 85.5803C303.894 86.021 314.741 83.6921 325.685 83.3256C334.444 83.3303 343.597 81.739 352.379 81.3215C366.334 82.4674 380.177 80.955 394.109 80.0735C402.362 85.8772 398.433 33.1336 399.602 27.8448C400.678 19.5174 401.69 10.9023 399.055 2.76967ZM393.919 36.9424C392.977 49.5148 393.135 62.0964 393.121 74.6966C381.634 73.5878 370.161 75.7961 358.832 77.3549C350.695 77.5219 342.516 76.8585 334.425 75.9446C324.59 74.5667 315.13 78.9833 305.351 78.5982C300.03 78.3152 294.769 77.2297 289.438 77.2111C283.639 77.392 277.882 78.2039 272.083 78.5008C267.198 79.0483 261.997 79.2013 256.987 78.8488C256.166 78.357 255.488 78.5101 255.006 78.9833C252.018 85.9607 251.99 94.047 252.867 101.544C252.746 107.672 252.566 113.81 252.83 119.953C252.496 125.909 253.693 131.708 254.649 137.545C255.382 144.077 255.493 150.646 255.252 157.22C254.185 168.971 252.269 180.884 253.73 192.687C248.321 190.975 242.447 191.536 236.936 192.422C226.641 193.225 216.347 195.192 205.987 194.714C196.078 193.925 186.377 191.198 176.37 191.982C170.854 191.773 165.413 192.756 159.938 192.97C156.89 192.933 154.167 191.128 151.128 191.026L151.124 191.021C149.18 182.128 153.165 172.975 151.55 164.016C151.189 150.326 147.556 136.742 150.298 123.089C150.975 117.86 151.653 112.599 151.319 107.315C150.432 89.7649 149.583 72.2146 150.497 54.6551C150.79 46.4575 149.092 38.4223 148.322 30.3361C148.911 24.6205 149.268 18.9328 149.161 13.1894C149.157 13.1848 149.157 13.1755 149.161 13.1709C149.217 12.5028 149.31 11.8394 149.454 11.1853C149.672 10.2018 150.103 9.11153 150.196 8.15584C154.714 9.20431 159.442 8.36461 164.03 8.68935C168.349 8.89348 172.65 9.61257 176.983 9.35741C190.465 8.42956 203.923 9.53834 217.386 10.0672C233.8 8.9074 250.195 8.80534 266.641 8.84709C280.373 8.81461 294.064 8.03058 307.749 9.427C318.336 8.71255 328.816 10.9765 339.38 10.1182C348.422 9.48267 357.436 8.73111 366.385 7.26046C375.418 6.55994 384.473 7.08881 393.497 7.64552C394.633 17.2488 394.415 27.1304 393.919 36.9424Z" fill="black" style="fill:black;fill-opacity:1;"/>
<path d="M148.493 27.9979C148.456 28.4572 148.438 28.9119 148.382 29.3665C148.428 28.9119 148.456 28.4572 148.493 27.9979Z" fill="black" style="fill:black;fill-opacity:1;"/>
<path d="M149.212 20.2875C149.189 20.6447 149.161 20.9973 149.133 21.3545C149.18 20.7514 149.226 20.1622 149.203 19.5545C149.203 19.8004 149.212 20.0462 149.212 20.2875Z" fill="black" style="fill:black;fill-opacity:1;"/>
<path d="M148.359 32.0016C148.4 32.5954 148.465 33.1846 148.553 33.7738C148.465 33.1846 148.396 32.5954 148.359 32.0016Z" fill="black" style="fill:black;fill-opacity:1;"/>
<path d="M148.553 33.7738C148.609 34.1728 148.674 34.5671 148.748 34.9614C148.674 34.5671 148.604 34.1681 148.553 33.7738Z" fill="black" style="fill:black;fill-opacity:1;"/>
<path d="M150.024 44.8245C149.992 41.6791 149.63 38.6079 148.86 35.5553C149.634 38.6032 149.996 41.6791 150.024 44.8245Z" fill="black" style="fill:black;fill-opacity:1;"/>
<path d="M149.161 13.1894C149.041 14.6508 149.092 16.1354 149.143 17.6014C149.087 16.1354 149.036 14.6508 149.161 13.1894Z" fill="black" style="fill:black;fill-opacity:1;"/>
<path d="M149.161 13.1709C149.217 12.5028 149.305 11.8441 149.454 11.1899C149.31 11.8441 149.222 12.5028 149.161 13.1709Z" fill="black" style="fill:black;fill-opacity:1;"/>
<path d="M150.2 8.15583C150.117 8.88884 149.866 9.76566 149.616 10.5311C149.857 9.76566 150.117 8.8842 150.196 8.15583H150.2Z" fill="black" style="fill:black;fill-opacity:1;"/>
<path d="M150.539 53.5184C150.646 51.6256 150.303 49.7374 150.219 47.8446C150.307 49.7374 150.655 51.621 150.539 53.5184Z" fill="black" style="fill:black;fill-opacity:1;"/>
<path d="M151.128 191.021H151.124C149.978 186.535 150.864 181.822 151.244 177.247C150.873 181.822 149.982 186.53 151.128 191.021Z" fill="black" style="fill:black;fill-opacity:1;"/>
<path d="M151.393 161.91C151.407 151.88 148.609 141.998 149.305 131.973C148.618 142.003 151.416 151.875 151.393 161.91Z" fill="black" style="fill:black;fill-opacity:1;"/>
<path d="M299.9 78.0601C300.503 78.1389 301.106 78.2132 301.714 78.2874C300.484 78.1297 299.26 78.0091 298.026 77.8977C298.652 77.9627 299.274 78.0183 299.9 78.0601Z" fill="black" style="fill:black;fill-opacity:1;"/>
<path d="M334.425 75.9446C333.65 75.875 332.871 75.8193 332.096 75.7822C332.876 75.8193 333.65 75.875 334.425 75.9446Z" fill="black" style="fill:black;fill-opacity:1;"/>
<path d="M332.096 75.7822C328.608 75.5595 325.096 75.9353 321.649 76.5384C325.091 75.926 328.608 75.5642 332.096 75.7822Z" fill="black" style="fill:black;fill-opacity:1;"/>
<path d="M337.19 76.2322C336.272 76.1255 335.348 76.0281 334.425 75.9446C335.348 76.0234 336.272 76.1209 337.19 76.2322Z" fill="black" style="fill:black;fill-opacity:1;"/>
<path d="M358.832 77.3549C358.201 77.4152 357.556 77.4431 356.916 77.4477C357.556 77.4338 358.206 77.4106 358.832 77.3549Z" fill="black" style="fill:black;fill-opacity:1;"/>
<path d="M362.061 76.9049C361.388 77.0255 360.716 77.1322 360.038 77.2204C360.716 77.1276 361.388 77.0209 362.061 76.9049Z" fill="black" style="fill:black;fill-opacity:1;"/>
<path d="M393.919 36.9424C392.972 49.5148 393.144 62.0964 393.116 74.6966C381.63 73.5878 370.157 75.7961 358.832 77.3549C349.906 77.6147 340.98 76.5616 332.096 75.7822C323.054 75.0817 314.365 79.0436 305.351 78.5982C300.025 78.3106 294.769 77.2343 289.438 77.2111C283.639 77.392 277.882 78.2039 272.083 78.5008C267.198 79.0482 261.997 79.2013 256.987 78.8488C255.878 78.1853 255.609 79.4147 255.136 80.3194C252.927 87.4406 251.828 94.1583 252.867 101.544C252.695 110.052 252.556 118.621 253.02 127.129C254.723 137.081 255.855 147.088 255.252 157.22C254.18 168.971 252.273 180.88 253.725 192.682C248.316 190.979 242.447 191.532 236.936 192.422C226.641 193.225 216.347 195.192 205.987 194.714C196.083 193.921 186.373 191.202 176.37 191.982C170.854 191.773 165.413 192.756 159.938 192.97C156.886 192.928 154.162 191.133 151.124 191.021C149.18 182.128 153.165 172.975 151.55 164.016C151.189 150.326 147.556 136.742 150.298 123.089C150.975 117.86 151.653 112.599 151.319 107.315C150.432 89.7649 149.583 72.2146 150.497 54.6551C150.79 46.4575 149.092 38.4223 148.322 30.3361C148.915 24.6205 149.268 18.9328 149.161 13.1894C149.157 13.1848 149.157 13.1755 149.161 13.1709C149.217 12.5028 149.31 11.8394 149.454 11.1853C149.676 10.2017 150.103 9.11152 150.196 8.15584C154.714 9.20895 159.442 8.36924 164.03 8.68935C168.349 8.90276 172.65 9.61256 176.983 9.3574C190.464 8.42955 203.923 9.54297 217.386 10.0672C233.8 8.9074 250.195 8.80533 266.641 8.84709C280.373 8.82389 294.064 8.02594 307.749 9.42699C318.336 8.71719 328.816 10.9811 339.38 10.1182C348.422 9.4873 357.436 8.72646 366.385 7.26046C375.413 6.55993 384.473 7.08417 393.497 7.65016C394.633 17.2534 394.415 27.1304 393.919 36.9424Z" fill="#88A9D5" style="fill:#88A9D5;fill:color(display-p3 0.5333 0.6627 0.8353);fill-opacity:1;"/>
<path d="M303.653 63.9336C289.754 61.6511 294.704 39.9486 307.796 42.9456C320.215 44.8987 315.502 66.1419 303.653 63.9336Z" fill="white" style="fill:white;fill-opacity:1;"/>
<path d="M342.702 63.4418C331.447 60.3706 333.122 39.6981 348.728 43.5812C358.814 47.9328 354.031 66.2161 342.702 63.4418Z" fill="white" style="fill:white;fill-opacity:1;"/>
<path d="M296.968 38.4223C296.198 37.8981 296.068 33.0501 297.455 35.43C298.225 34.0985 299.594 33.8898 300.665 34.9939C301.82 33.3702 303.212 33.6532 304.205 35.2305C305.351 33.8759 306.543 33.7506 307.745 35.1006C309.248 33.2681 313.117 35.1795 312.106 37.4852C311.224 39.0765 310.343 37.346 309.424 36.9378C307.842 37.9955 307.578 38.4223 306.102 36.7893C304.757 38.6636 303.63 39.3734 302.428 36.9053C300.99 38.9512 300.368 38.5244 299.102 36.7383C298.438 37.2811 298.044 39.16 296.963 38.427L296.968 38.4223Z" fill="black" style="fill:black;fill-opacity:1;"/>
<path d="M340.164 38.3759C339.575 38.1115 339.473 37.3924 339.115 36.9146C338.457 38.2646 336.865 38.7749 336.643 36.8775C335.659 36.2094 336.633 34.3212 337.589 35.5182C338.452 34.0336 339.77 34.1357 340.554 35.5877C341.342 34.3676 342.595 34.813 343.314 35.829C344.562 34.6274 345.541 34.7295 346.622 36.0053C347.893 34.7852 348.737 34.7248 349.906 36.112C350.802 37.6661 349.108 38.7146 348.385 36.794H348.394C347.865 36.4553 347.475 37.4991 346.933 37.6058C346.102 37.9955 345.777 36.8403 345.105 36.7244C343.843 37.8981 343.156 39.5311 341.834 37.1697C341.486 37.7636 340.962 38.7239 340.173 38.3806L340.164 38.3759Z" fill="black" style="fill:black;fill-opacity:1;"/>
<path d="M303.959 64.7315C301.797 64.481 295.738 62.4629 298.564 59.6655C300.424 57.7355 303.792 58.1902 306.279 57.6474C308.352 57.4896 310.788 56.2649 312.75 57.267C315.413 61.6139 307.838 65.5387 303.959 64.7315Z" fill="black" style="fill:black;fill-opacity:1;"/>
<path d="M343.82 64.2119C341.338 64.5506 334.402 60.5655 338.341 58.3804C340.832 57.0675 343.991 57.6195 346.659 57.5963C348.487 57.5639 350.584 56.5757 352.309 57.2855C353.697 58.7562 351.716 60.366 350.806 61.498C349.141 63.5903 346.404 64.4253 343.82 64.2119Z" fill="black" style="fill:black;fill-opacity:1;"/>
<path d="M82.5509 100.407C76.5245 99.0759 77.74 88.9206 83.3025 87.8304C90.2382 87.5752 89.1247 101.266 82.5509 100.407Z" fill="black" style="fill:black;fill-opacity:1;"/>
<path d="M262.577 324.163C262.535 318.744 261.737 313.391 261.06 308.032C260.387 299.904 261.078 291.753 260.786 283.607C260.345 272.278 257.831 260.967 258.652 249.559C258.235 244.697 261.649 215.948 255.869 216.333C244.693 218.467 233.382 216.472 222.123 217.405C210.293 218.472 198.435 219.673 186.554 218.699C174.607 219.747 162.397 217.052 150.655 219.553C141.172 216.045 151.615 268.093 149.815 274.848C149.973 283.57 148.544 292.208 148.442 300.916C148.359 306.687 149.184 312.417 149.718 318.151C150.168 323.648 149.44 329.299 150.07 334.671C152.372 339.955 165.519 337.288 170.437 337.162C177.057 336.434 183.733 336.898 190.362 336.327C203.394 334.36 216.296 337.213 229.327 337.083C236.245 337.005 243.087 335.993 249.967 335.701C253.405 335.84 257.539 337.691 260.684 336.016C260.675 336.03 260.666 336.04 260.652 336.049C262.424 334.796 262.526 326.58 262.577 324.163ZM254.95 223.296C254.76 230.395 254.138 237.033 253.642 244.201C254.352 256.667 253.897 269.026 253.104 281.459C252.649 289.642 254.579 297.701 254.426 305.871C254.245 313.729 253.679 321.574 254.421 329.419H254.417C254.407 329.299 254.403 329.183 254.393 329.062C249.735 330.273 245.05 329.962 240.304 329.248C233.967 329.303 227.68 328.733 221.357 329.508C215.804 330.055 210.418 330.862 204.818 331.349C197.781 331.711 190.743 330.742 183.7 330.904C175.016 331.414 166.336 330.115 157.632 330.482C155.317 317.251 157.748 303.718 156.389 290.394C154.19 279.255 154.204 268.112 155.16 256.848C154.408 246.465 153.916 236.068 153.049 225.69C170.539 226.442 188.02 223.129 205.556 223.357C222.011 226.228 238.444 223.965 254.959 223.199C254.955 223.232 254.95 223.264 254.95 223.296Z" fill="black" style="fill:black;fill-opacity:1;"/>
<path d="M204.215 359.723C205.111 359.672 206.006 359.607 206.897 359.528L204.215 359.723ZM158.236 357.533C158.259 357.403 158.277 357.287 158.301 357.153C158.282 357.204 158.263 357.255 158.245 357.306C158.24 357.38 158.236 357.459 158.236 357.533Z" fill="black" style="fill:black;fill-opacity:1;"/>
<path d="M233.842 395.557C233.234 394.805 233.313 393.9 233.373 392.996C233.554 391.353 233.187 389.493 233.855 387.957C234.626 387.067 235.164 388.292 235.187 389.025C236.871 384.613 239.706 384.279 241.046 389.447C242.554 386.032 245.124 383.184 246.92 388.305C248.019 384.678 250.946 381.472 253.79 385.819C257.613 381.249 259.965 387.002 261.241 390.296C263.208 394.531 257.845 398.085 256.634 392.601C254.871 396.651 251.211 396.206 250.269 391.947C247.449 398.28 245.273 394.179 244.345 389.707C241.965 395.649 240.471 398.136 237.943 390.37C236.797 391.831 236.565 397.366 233.846 395.557H233.842Z" fill="black" style="fill:black;fill-opacity:1;"/>
<path d="M242.308 422.075C231.828 415.83 237.887 399.059 248.989 398.813C268.988 400.321 259.821 430.379 242.308 422.075Z" fill="white" style="fill:white;fill-opacity:1;"/>
<path d="M248.302 417.074C240.142 417.138 242.768 403.852 250.033 405.675C258.068 405.415 255.618 419.37 248.302 417.074Z" fill="black" style="fill:black;fill-opacity:1;"/>
<path d="M308.241 395.134C306.928 394.411 306.975 392.81 306.483 391.59C305.008 396.067 300.373 396.939 300.03 391.465C299.366 392.991 297.664 396.322 295.896 394.04C295.163 392.796 295.544 391.219 294.908 389.911C292.31 395.677 290.25 397.533 288.496 389.994C287.661 391.196 287.211 392.629 286.372 393.817C285.291 395.028 283.825 393.446 284.136 392.188C284.136 392.188 284.131 392.188 284.126 392.188C284.53 390.764 284.34 389.294 284.307 387.846C284.252 386.473 285.685 386.366 285.968 387.679C288.181 383.295 290.835 385.536 291.531 389.331C292.644 386.705 295.302 383.926 297.172 387.698C298.142 385.146 301.022 383.267 302.962 386.069C307.063 381.003 309.763 386.635 311.391 390.351C312.713 392.453 310.839 396.61 308.237 395.134H308.241Z" fill="black" style="fill:black;fill-opacity:1;"/>
<path d="M293.502 420.687C284.766 417.839 285.564 406.431 291.118 400.887C305.94 388.969 317.251 415.208 301.477 421.239C298.782 421.986 296.295 421.699 293.502 420.687Z" fill="white" style="fill:white;fill-opacity:1;"/>
<path d="M297.237 415.399C290.589 414.049 292.509 403.759 298.786 403.508C306.492 403.805 304.655 416.424 297.237 415.399Z" fill="black" style="fill:black;fill-opacity:1;"/>
<path d="M168.428 359.714C167.751 359.839 167.143 360.182 166.475 360.345C165.867 360.493 165.227 360.553 164.605 360.414C163.163 368.403 162.522 376.499 162.058 384.585C161.469 388.287 162.49 391.882 162.727 395.589C162.768 398.66 161.242 401.945 161.539 405.062C162.587 413.306 161.265 421.049 161.233 429.224C161.205 435.779 161.024 441.253 161.864 447.27C162.128 453.747 161.428 460.191 162.012 466.658C162.161 469.673 162.49 472.712 162.281 475.732C162.082 478.534 162.119 481.466 161.734 484.236C161.734 484.241 161.734 484.245 161.734 484.25C161.298 486.894 161.492 489.636 161.209 492.304C182.351 490.814 203.663 493.315 224.721 490.258C233.47 489.539 242.248 489.919 250.988 490.494C259.371 490.48 267.703 488.861 276.096 489.423C289.652 489.854 302.999 493.417 316.61 491.626C329.842 490.332 343.161 492.257 356.304 489.975C368.389 488.94 380.535 490.007 392.639 489.975C392.62 489.868 392.601 489.761 392.587 489.655C391.451 474.985 391.79 460.256 392.518 445.572C391.794 431.404 390.658 417.333 392.374 403.179C392.833 397.616 392.745 392.11 391.98 386.612C391.284 377.941 392.959 368.63 393.975 360.043C384.241 359.704 372.62 361.138 362.952 361.955C362.933 361.945 362.919 361.945 362.901 361.955C348.436 361.268 334.495 358.976 320.099 357.728C311.345 358.238 302.173 360.382 293.4 360.776C283.064 361.973 272.737 360.298 262.392 360.377C245.069 360.512 228.887 360.758 211.935 359.459M258.406 417.57C257.711 418.716 256.801 419.727 255.757 420.567H255.753C252.765 422.979 248.641 424.107 244.883 423.151C243.983 422.914 243.115 422.548 242.313 422.07C236.189 418.604 235.433 410.161 239.223 404.677C239.808 403.768 240.48 402.938 241.241 402.191C241.905 401.541 242.633 400.952 243.417 400.465C243.519 400.391 243.626 400.34 243.728 400.275C244.178 400.01 244.656 399.764 245.143 399.579C245.143 399.579 245.146 399.577 245.152 399.574C246.279 399.106 247.509 398.837 248.734 398.813C249.374 398.799 250.019 398.846 250.654 398.948C252.635 399.273 254.468 400.196 256.087 401.37C258.606 402.984 260.044 405.897 260.299 408.829C260.299 408.829 260.299 408.831 260.299 408.834C260.592 411.831 259.854 415.014 258.402 417.565L258.406 417.57ZM256.634 392.597C254.871 396.647 251.206 396.201 250.269 391.943C247.449 398.271 245.273 394.179 244.345 389.707C241.965 395.654 240.466 398.127 237.943 390.37C236.797 391.808 236.681 396.86 234.078 395.77C234.074 395.765 234.074 395.761 234.064 395.761C234.027 395.733 233.995 395.705 233.958 395.668H233.953C233.002 395.255 233.016 386.965 234.579 387.698H234.584C235.011 387.967 235.155 388.551 235.187 389.025C236.936 384.589 239.645 384.241 241.046 389.447C241.385 388.686 241.765 387.958 242.229 387.276C242.229 387.276 242.229 387.271 242.234 387.271C242.638 386.686 243.106 386.125 243.714 385.759C245.403 384.78 246.474 386.965 246.92 388.301C247.792 384.831 251.225 381.486 253.79 385.814C257.613 381.245 259.965 387.002 261.241 390.296C263.208 394.527 257.845 398.085 256.634 392.597ZM309.062 410.741C308.858 412.833 308.278 414.912 307.202 416.721L307.197 416.726C307.156 416.795 307.114 416.86 307.072 416.93L307.068 416.934C307.026 417.009 306.979 417.078 306.933 417.148L306.928 417.152C306.887 417.227 306.836 417.287 306.789 417.361L306.785 417.366C306.738 417.44 306.696 417.5 306.641 417.57C306.395 417.904 306.126 418.238 305.843 418.539V418.544C305.759 418.632 305.676 418.72 305.592 418.809C305.592 418.809 305.591 418.81 305.588 418.813C305.351 419.04 305.087 419.286 304.831 419.49V419.495C304.702 419.597 304.567 419.699 304.437 419.797C304.437 419.797 304.432 419.797 304.432 419.801C304.279 419.899 304.14 420.01 303.982 420.108C303.982 420.108 303.982 420.112 303.978 420.112C303.871 420.177 303.764 420.242 303.658 420.307C303.486 420.4 303.314 420.502 303.138 420.59C302.99 420.655 302.85 420.738 302.697 420.799C302.632 420.822 302.577 420.854 302.516 420.878C302.438 420.91 302.354 420.943 302.275 420.975C302.062 421.049 301.848 421.133 301.63 421.198C297.585 422.358 292.811 421.216 289.731 418.34C284.331 413.603 287.351 402.478 293.229 399.379C293.948 398.976 294.736 398.646 295.534 398.419C298.545 397.5 302.08 397.858 304.558 399.913H304.562C304.933 400.2 305.249 400.562 305.564 400.901C305.569 400.901 305.569 400.906 305.564 400.906C306.154 401.56 306.687 402.265 307.151 403.007C308.58 405.308 309.396 408.018 309.072 410.741H309.062ZM311.818 392.328C311.025 397.199 306.975 395.9 306.488 391.59C306.488 391.59 306.488 391.595 306.483 391.595C305.718 393.028 304.985 394.986 303.175 395.297C301.083 395.594 300.011 393.232 300.034 391.465C299.589 392.462 299.074 393.497 298.29 394.272H298.285C295.34 396.452 295.567 391.544 294.913 389.911V389.915C293.832 391.428 293.604 393.534 292.046 394.698C289.299 395.891 289.23 391.655 288.506 389.994C287.402 391.163 286.687 395.719 284.53 393.715C284.451 393.613 284.386 393.506 284.321 393.395C284.131 393.033 284.043 392.592 284.145 392.193C284.145 392.193 284.14 392.193 284.14 392.198H284.136C284.906 391.103 283.273 385.499 285.699 387.09C285.708 387.099 285.718 387.104 285.722 387.113C285.843 387.262 285.936 387.475 285.982 387.679C287.986 383.365 291.006 385.652 291.545 389.335C292.5 386.756 295.539 383.991 297.181 387.702C297.525 386.798 298.1 385.977 298.861 385.373H298.865C299.626 384.77 300.665 384.46 301.584 384.858C302.164 385.104 302.614 385.559 302.976 386.065C304.168 384.357 306.567 383.193 308.2 385.002C309.925 387.006 311.614 389.655 311.823 392.328H311.818Z" fill="#F87361" style="fill:#F87361;fill:color(display-p3 0.9725 0.4510 0.3804);fill-opacity:1;"/>
<path d="M165.004 352.314C161.423 350.505 158.44 353.761 158.245 357.306C158.264 357.255 158.282 357.204 158.301 357.153C158.277 357.287 158.259 357.403 158.236 357.533C158.236 357.459 158.24 357.38 158.245 357.306C154.631 367.41 158.662 378.02 156.691 388.347C156.965 392.968 156.301 397.686 155.967 402.311C156.552 419.509 158.166 436.758 156.45 453.965C156.301 461.805 157.637 469.822 156.348 477.736C156.032 482.338 154.186 493.333 156.895 496.971H156.886C157.674 497.708 159.136 497.755 160.031 497.161C169.644 498.557 179.483 498.942 189.156 497.936C196.932 496.72 204.846 496.103 212.696 496.896C218.829 497.509 224.948 498.316 231.128 498.232C238.666 498.186 246.14 496.817 253.702 497.189C272.881 499.717 291.869 496.79 311.053 496.771C323.166 497.527 335.163 499.861 347.332 499.842C358.999 498.952 370.63 497.458 382.126 495.356C386.329 494.957 390.532 494.34 394.763 494.424C395.584 494.456 396.113 493.867 396.336 493.115C399.37 486.439 398.113 478.08 397.807 470.814C398.066 459.309 396.248 447.822 397.129 436.336C399.198 424.269 398.591 412.058 398.929 399.894C400.414 386.951 401.179 373.636 399.338 360.702C398.864 358.512 400.637 355.923 397.821 354.365C392.592 353.075 387.303 352.142 381.899 352.013C374.109 350.565 366.297 352.193 358.466 352.249C346.585 351.897 334.75 353.437 322.901 353.715C309.953 354.898 297.636 351.702 284.669 351.586C276.796 351.484 268.998 352.968 261.116 353.135C252.111 353.423 243.269 350.885 234.259 351.303C212.793 354.481 191.453 354.759 169.848 352.602M157.364 492.707C157.364 492.707 157.377 492.707 157.382 492.716C157.377 492.712 157.368 492.712 157.364 492.707ZM204.215 359.723C206.795 359.667 209.365 359.584 211.93 359.459C226.897 360.938 241.97 361.667 257.01 360.544C269.146 359.737 281.269 362.177 293.396 360.776C301.398 360.312 309.396 359.231 317.362 358.35C322.563 357.904 327.675 359.18 332.839 359.602C342.85 360.581 352.876 361.328 362.915 361.95C372.597 361.156 382.233 360.201 391.975 360.549L391.182 382.942C391.567 389.706 393.051 396.373 392.369 403.179C390.653 417.333 391.79 431.404 392.513 445.572C391.808 460.358 391.395 475.212 392.634 489.979C377.542 489.896 362.358 487.97 347.392 490.777C337.13 491.199 326.845 490.643 316.606 491.626C302.47 493.482 288.613 489.585 274.519 489.381C266.65 488.972 258.852 490.527 250.988 490.499C242.248 489.919 233.466 489.538 224.716 490.258C203.659 493.31 182.351 490.828 161.205 492.303C161.488 489.636 161.293 486.894 161.729 484.25C162.541 477.244 162.295 470.179 161.845 463.136C161.474 457.157 162.318 451.153 161.729 445.164C161.005 438.706 161.414 432.207 161.279 425.744C161.803 420.845 162.778 416.016 162.675 411.066C162.453 405.888 162.341 400.729 162.726 395.589C162.597 392.175 161.465 388.825 162.012 385.434C162.476 377.064 163.107 368.686 164.601 360.419C165.222 360.553 165.863 360.493 166.47 360.345C167.138 360.182 167.742 359.839 168.419 359.714" fill="black" style="fill:black;fill-opacity:1;"/>
<path d="M8.60578 195.364C8.45732 198.76 8.89805 202.234 7.8867 205.533C21.0065 208.038 34.2284 204.763 47.4085 204.322C56.8308 204.554 66.2531 204.688 75.6754 204.313C85.687 202.953 95.4619 206.943 105.436 206.233C115.355 205.185 125.074 202.081 135.044 201.812C134.835 192.956 136.631 183.816 134.863 175.113C121.061 178.927 106.656 178.31 92.8407 174.942C84.3508 175.174 75.9167 176.644 67.4593 177.41C47.8539 176.199 28.2066 177.261 8.61506 178.087C9.38054 183.83 8.66609 189.606 8.60114 195.364H8.60578ZM29.6216 211.239C21.7024 210.975 13.8667 209.75 5.96141 209.462C3.72529 209.421 4.17066 206.391 4.06859 204.832C3.55828 200.003 2.34279 195.252 2.57011 190.349C2.97373 185.208 -0.617052 175.582 5.78976 173.336C14.0476 172.757 22.2777 170.442 30.6144 171.471C46.1512 173.383 61.4376 170.089 76.8677 168.539C96.3294 168.693 115.851 168.683 135.285 170.247C138.667 169.319 138.115 181.14 138.435 183.329C138.895 190.177 139.883 197.326 139.544 204.136C140.398 206.516 138.816 209.722 135.967 208.776C129.727 208.367 123.525 209.75 117.276 209.569C103.038 209.114 88.7906 210.321 74.6084 211.211C70.5212 211.179 67.1531 210.766 63.2469 210.283C52.0153 209.541 40.8625 211.731 29.6309 211.234L29.6216 211.239Z" fill="black" style="fill:black;fill-opacity:1;"/>
<path d="M57.0257 61.5119C21.4473 71.6579 17.2116 102.759 25.3071 134.473C29.8118 145.561 40.96 153.054 52.7622 154.019C65.2464 156.227 78.2363 156.245 90.3912 152.293C110.437 148.54 110.753 137.67 115.819 120.681C116.877 116.733 117.512 112.664 117.925 108.6C118.018 103.395 116.403 98.264 115.638 93.133C112.664 84.4715 106.007 77.7307 100.18 70.8832C94.9608 66.2717 89.1757 61.8273 82.6344 59.3129C79.0111 58.5149 75.2487 59.0763 71.5697 59.0252C70.062 59.0623 68.3455 60.417 66.9769 59.3778C63.5995 59.7861 60.3196 60.7232 57.021 61.5165L57.0257 61.5119ZM70.0156 163.399C53.7318 162.61 38.3944 155.591 26.1422 145.097C17.8472 137.702 16.8312 127.63 17.2951 117.025C17.3137 108.443 16.1585 99.5955 18.0884 91.1752C20.2967 80.4771 28.1881 73.9683 35.9356 67.0094C44.7549 58.8072 55.8427 53.472 67.9001 52.4328C76.1626 51.9875 84.1839 54.2932 91.0128 58.9185C95.8701 61.8181 101.451 63.6738 105.534 67.747C111.105 73.5461 117.025 79.5446 119.642 87.3247C123.024 99.2336 124.504 112.381 120.922 124.439C117.8 134.399 113.235 144.967 104.318 151.003C94.0887 157.428 82.4952 164.23 70.0156 163.399Z" fill="black" style="fill:black;fill-opacity:1;"/>
<path d="M6.65262 33.9315C5.58559 41.3126 6.73613 48.4988 7.85419 55.7592C14.9151 55.3277 21.9993 56.0236 29.037 54.9334C32.1175 45.8869 40.1759 40.5471 48.944 37.8563C60.5839 33.0825 73.5877 35.3094 85.4781 37.564C97.6655 41.41 107.728 41.9713 115.155 54.0056C120.157 53.3514 125.167 52.753 130.205 52.5442C129.389 38.0187 130.252 23.4886 127.783 9.07904C119.09 11.2734 110.164 8.84708 101.47 8.77749C93.5968 7.94706 85.9142 10.1832 78.0461 10.2342C67.3943 10.095 56.854 7.03777 46.1558 9.01409C41.396 9.16255 36.9933 8.68934 32.3216 8.21614C24.3096 8.1048 16.3255 9.38523 8.32275 7.96562C8.13718 16.641 7.27892 25.2747 6.65262 33.9269V33.9315ZM20.5193 63.7387C15.5368 64.0031 10.6563 62.3516 5.69694 62.7227C1.32212 61.8784 3.85051 56.2463 3.69278 53.2447C3.43298 50.721 3.42834 48.1879 3.38659 45.6549C4.1567 40.3476 -2.36144 -0.134515 6.66654 4.56041C13.5326 2.39388 21.0761 3.75782 28.1602 2.43563C34.6505 1.33613 40.9367 4.36092 47.4038 4.0872C65.1721 2.6444 83.0379 0.57993 100.862 1.9114C110.298 1.61448 119.753 0.677354 129.194 1.11808C136.185 -0.742257 131.871 17.1096 132.46 21.0066C132.78 31.3706 134.501 41.5167 135.856 51.7787C136.283 54.9195 137.869 60.25 133.518 61.1639C129.44 61.5583 125.38 62.0036 121.284 62.1892C107.496 62.7181 114.413 62.1289 107.06 54.2097C103.766 49.5055 98.8253 46.4065 93.337 44.9173C78.1156 38.7888 56.0003 43.6693 40.7882 48.7261C27.8911 56.8169 41.6743 64.1238 20.5193 63.7387Z" fill="black" style="fill:black;fill-opacity:1;"/>
<path d="M310.139 127.7C308.77 127.997 307.462 127.301 307.369 125.807C308.25 118.519 324.08 114.548 326.631 122.555C326.019 129.018 315.024 127.663 310.139 127.7Z" fill="black" style="fill:black;fill-opacity:1;"/>
<path d="M345.499 128.405C344.265 128.415 342.896 128.183 341.992 127.278C341.992 127.278 341.996 127.278 342.001 127.273C339.714 122.778 346.297 119.28 349.8 118.004C353.85 116.918 359.347 119.493 360.28 123.706C359.783 127.185 348.561 128.206 345.504 128.41L345.499 128.405Z" fill="black" style="fill:black;fill-opacity:1;"/>
</g>
<defs>
<clipPath id="clip0_12_27627">
<rect width="400.725" height="500" fill="white" style="fill:white;fill-opacity:1;"/>
</clipPath>
</defs>
</svg>