<svg xmlns="http://www.w3.org/2000/svg" width="500" height="150" viewBox="0 0 500 150" fill="none"><title>Trove</title>
<g clip-path="url(#clip0_197_1091)">
<mask id="mask0_197_1091" style="mask-type:luminance" maskUnits="userSpaceOnUse" x="161" y="0" width="135" height="149">
<path d="M161.749 12.812L282.229 0.713066L295.708 136.409L175.215 148.378L161.749 12.812Z" fill="white" style="fill:white;fill-opacity:1;"/>
</mask>
<g mask="url(#mask0_197_1091)">
<g opacity="0.99">
<path d="M193.046 117.842C201.583 117.816 209.972 116.471 218.24 114.476C226.885 112.92 235.737 113.221 244.33 111.221C251.827 109.935 259.443 110.159 266.992 109.544C272.744 108.903 278.484 107.242 284.127 106.415C283.076 94.9621 280.708 83.6464 279.464 72.3366C278.644 65.2286 278.834 58.2724 277.747 51.2634C274.759 37.8685 273.504 24.5052 271.88 10.9713C262.878 11.1438 254.194 10.7011 245.422 12.0422C235.332 12.8787 225.276 14.0985 215.241 15.4821C205.987 16.5705 197.321 17.863 187.964 17.9464C182.089 18.0362 175.905 19.2272 170.053 19.8258C171.758 28.8901 172.546 38.0732 173.685 47.2111C175.798 56.6354 176.887 66.1684 177.703 75.7735C179.418 84.1013 179.769 92.5784 180.337 101.038C180.931 107.018 182.365 112.87 183.112 118.829C186.393 118.244 189.732 118.102 193.049 117.842L193.05 117.848L193.046 117.842ZM184.398 122.872C180.769 123.464 180.348 121.938 180.217 118.705C179.462 112.913 179.408 107.052 178.486 101.283C176.56 92.0097 175.1 82.9073 174.343 73.5105C173.04 66.447 171.878 59.442 171.738 52.2596C171.049 41.2951 168.55 30.5279 168.008 19.542C166.851 18.4967 167.219 15.6354 169.108 15.9071C173.126 15.5839 177.096 14.9512 181.018 14.0748C193.716 10.7761 206.712 13.2318 219.53 11.9068C232.305 10.1889 244.529 6.74046 257.489 7.89445C261.428 7.85191 265.368 7.56764 269.272 7.02794C272.643 6.55148 274.926 6.2073 275.109 10.4814C276.218 19.08 277.688 27.484 278.783 36.0669C279.476 42.1757 279.323 48.3547 280.311 54.4378C281.344 60.499 283.025 67.1624 283.846 73.0962C285.391 84.2034 286.165 95.4011 288.007 106.475C288.803 111.117 286.705 111.197 282.71 111.308C276.415 111.753 270.049 111.46 263.832 112.73C255.029 114.779 246.099 116.06 237.065 116.439C231.618 116.839 226.333 118.427 220.876 118.762C214.381 119.321 207.909 118.717 201.521 119.98C195.832 121.139 190.177 122.333 184.393 122.894L184.398 122.872Z" fill="black" style="fill:black;fill-opacity:1;"/>
<path d="M219.633 111.703C219.545 110.469 218.976 105.228 221.385 106.995C222.452 109.009 222.415 111.516 222.88 113.728C221.917 113.845 220.954 113.985 220 114.149C219.881 113.332 219.758 112.516 219.633 111.703Z" fill="#A3C36C" style="fill:#A3C36C;fill:color(display-p3 0.6392 0.7647 0.4235);fill-opacity:1;"/>
<path d="M245.89 108.083C245.781 106.916 245.161 103.804 246.21 103.103C247.469 102.284 248.203 109.67 248.495 110.67C247.723 110.753 246.952 110.844 246.182 110.948C246.094 109.993 245.999 109.039 245.894 108.083L245.89 108.083Z" fill="#A3C36C" style="fill:#A3C36C;fill:color(display-p3 0.6392 0.7647 0.4235);fill-opacity:1;"/>
<path d="M232.707 130.93C230.356 130.766 223.133 132.761 222.322 130.777C222.464 128.591 216.801 103.431 221.382 106.992C223.792 114.018 223.249 121.862 223.97 129.222C227.261 129.223 230.401 128.196 233.623 127.71C235.919 128.155 235.117 131.381 232.707 130.933L232.707 130.93Z" fill="black" style="fill:black;fill-opacity:1;"/>
<path d="M254.521 129.409C247.232 129.211 249.018 130.086 247.701 123.29C246.486 118.328 246.547 113.135 245.886 108.08C245.777 106.913 245.157 103.801 246.21 103.099C247.136 102.762 247.193 104.269 247.33 104.853C249.18 112.076 249.188 119.593 249.9 126.964C253.371 126.239 256.8 125.342 260.211 124.392C261.802 124.041 262.597 126.165 262.078 127.411C260.772 129.585 256.776 128.822 254.517 129.405L254.521 129.409Z" fill="black" style="fill:black;fill-opacity:1;"/>
<path d="M200.654 117.507C194.795 117.727 188.911 117.904 183.112 118.825C182.364 112.863 180.933 107.007 180.336 101.031C179.772 92.5746 179.424 84.0972 177.706 75.7731C176.89 66.1646 175.805 56.6347 173.688 47.2107C172.549 38.0728 171.758 28.8901 170.056 19.8254C175.908 19.2268 182.031 17.3893 187.903 17.2998C197.26 17.2164 205.988 16.5739 215.241 15.4855C225.276 14.0985 235.151 12.313 245.241 11.473C254.01 10.1324 262.881 11.1469 271.88 10.9747C273.498 24.5126 274.76 37.8753 277.744 51.2706C278.831 58.2762 278.648 65.2351 279.464 72.34C280.709 83.6498 283.073 94.9692 284.127 106.419C278.48 107.242 272.744 108.907 266.993 109.547C260.84 110.11 254.637 109.89 248.496 110.68C248.207 109.683 247.474 102.304 246.211 103.113C244.774 104.944 246.257 108.72 246.179 110.958C238.463 112.433 230.715 113.244 222.881 113.739C222.108 103.805 218.163 104.594 220.001 114.159C213.573 115.223 207.222 117.3 200.652 117.518L200.658 117.507L200.654 117.507Z" fill="#A4C46E" style="fill:#A4C46E;fill:color(display-p3 0.6431 0.7686 0.4314);fill-opacity:1;"/>
<path d="M213.18 62.5564C211.196 61.6381 206.513 56.592 209.625 54.9638C211.005 54.9856 211.237 57.2899 212.993 58.0341C213.411 58.355 213.854 58.6357 214.305 58.8983C215.886 59.8704 215.182 63.352 213.176 62.5533L213.18 62.5564Z" fill="#A5C570" style="fill:#A5C570;fill:color(display-p3 0.6471 0.7725 0.4392);fill-opacity:1;"/>
<path d="M217.755 62.4162C208.473 62.4162 208.939 49.2065 212.047 55.7764C214.442 61.4262 224.314 59.9276 224.408 53.7129C224.356 53.0482 224.396 52.0635 225.226 51.9362C226.475 51.9606 226.349 53.5788 226.24 54.4598C225.836 58.5264 221.892 62.385 217.755 62.4196L217.755 62.4162Z" fill="black" style="fill:black;fill-opacity:1;"/>
<path d="M242.319 60.1798C238.268 60.9311 234.647 57.9239 233.106 54.3683C232.066 52.7278 233.076 49.5507 234.795 52.215C236.878 56.7078 242.717 58.6521 246.34 54.7631C247.72 53.1895 247.062 51.0172 247.72 49.2666C251.558 46.3543 250.898 60.4983 242.319 60.1798Z" fill="black" style="fill:black;fill-opacity:1;"/>
<path d="M217.164 79.1985C211.968 76.0163 217.081 69.6104 221.101 68.0095C222.859 67.6 230.404 66.8367 231.427 68.0956C233.817 70.707 230.394 72.7081 228.307 73.8097C224.848 76.0111 221.768 81.4346 217.163 79.1951L217.164 79.1985Z" fill="black" style="fill:black;fill-opacity:1;"/>
<path d="M275.791 100.921C274.615 99.4144 276.273 97.8892 276.785 96.4675C283.507 79.6321 293.127 79.7711 274.926 65.2077C272.768 63.4676 274.798 58.4592 277.411 61.1624C281.536 66.7473 287.036 71.8089 288.521 78.837C289.09 80.9145 286.537 84.863 285.435 86.7025C283.36 90.2513 281.326 93.7994 279.549 97.4636C278.797 98.5743 277.654 102.683 275.79 100.917L275.791 100.921Z" fill="black" style="fill:black;fill-opacity:1;"/>
<path d="M181.222 107.932C177.122 103.125 174.41 97.4168 171.47 91.873C168.274 86.2269 177.43 80.2275 180.086 75.6369C182.002 73.3436 184.292 77.246 182.795 78.9659C182.248 79.6764 181.669 80.352 181.077 81.0255C179.887 82.4317 178.682 83.829 177.287 85.0416C176.196 86.2998 172.395 88.2486 173.133 90.0815C177.14 97.3598 181.948 104.22 186.053 111.444C187.336 111.254 187.228 113.575 186.126 113.712C183.738 113.376 182.625 109.647 181.228 107.931L181.222 107.932Z" fill="black" style="fill:black;fill-opacity:1;"/>
</g>
<path d="M206.903 50.1269C206.078 49.6737 205.993 42.4202 207.354 45.7968C208.163 42.8227 209.985 42.4207 211.19 45.692C211.948 43.3756 213.436 41.3597 214.932 44.5709C215.413 42.1439 217.111 39.8689 219.238 42.5099C221.321 39.3263 223.398 42.8874 224.369 44.9389C225.921 47.5645 222.666 50.2187 221.522 46.7341C220.638 49.4809 218.229 49.4266 217.342 46.7211C215.977 50.9798 214.195 48.484 213.347 45.6469C212.182 49.6613 211.371 51.3751 209.229 46.4911C208.577 47.5123 208.784 51.1245 206.9 50.1273L206.903 50.1269Z" fill="black" style="fill:black;fill-opacity:1;"/>
<path d="M231.113 47.0315C230.288 46.5782 230.203 39.3247 231.564 42.7014C232.373 39.7272 234.195 39.3253 235.4 42.5965C236.158 40.2802 237.646 38.2642 239.142 41.4755C239.623 39.0485 241.32 36.7735 243.448 39.4145C245.531 36.2309 247.608 39.792 248.578 41.8434C250.131 44.469 246.876 47.1232 245.732 43.6387C244.848 46.3854 242.439 46.3312 241.552 43.6257C240.187 47.8844 238.405 45.3886 237.557 42.5514C236.392 46.5658 235.581 48.2797 233.439 43.3957C232.787 44.4169 232.994 48.029 231.11 47.0318L231.113 47.0315Z" fill="black" style="fill:black;fill-opacity:1;"/>
</g>
</g>
<g clip-path="url(#clip1_197_1091)">
<mask id="mask1_197_1091" style="mask-type:luminance" maskUnits="userSpaceOnUse" x="0" y="6" width="176" height="137">
<path d="M0 6.49126L175.215 6.36365V142.727H0V6.49126Z" fill="white" style="fill:white;fill-opacity:1;"/>
</mask>
<g mask="url(#mask1_197_1091)">
<g opacity="0.99">
<path d="M9.48358 112.947C7.46529 112.708 5.45036 112.47 3.41528 112.493C4.9567 102.526 10.0242 93.385 13.0265 83.7872C15.0146 77.3361 17.6608 71.2074 21.0425 65.3641C23.9239 59.0775 26.8724 52.0924 30.6437 46.3465C34.7911 41.2521 40.0635 37.2222 44.8624 32.7793C52.5627 25.717 61.1766 18.2114 71.6911 16.0823C75.8923 15.0311 80.4561 13.7114 84.543 12.2942C86.6923 11.7233 89.5199 13.4326 91.7229 13.1405C107.063 12.4319 123.482 14.7256 134.57 26.3147C147.785 35.57 153.135 42.1084 159.142 57.1633C162.064 63.4902 165.99 69.7163 166.698 76.7753C168.089 88.3611 169.664 100.028 172.424 111.358C164.583 110.871 156.765 110.901 148.92 111.133C141.132 110.744 133.341 109.296 125.527 109.807C120.147 95.1078 118.162 74.0551 102.432 66.7074C95.5815 64.1081 87.4344 62.2812 80.315 64.7294C71.8053 69.0346 68.1281 73.0644 63.1814 81.3995C59.2456 87.0749 55.1654 95.907 54.5542 102.543C54.0639 105.545 52.8885 108.5 52.7575 111.543C47.5221 111.382 42.2967 111.788 37.0646 111.58C27.8261 111.422 18.7052 114.434 9.48022 112.94V112.947H9.48358Z" fill="#88A9D5" style="fill:#88A9D5;fill:color(display-p3 0.5333 0.6627 0.8353);fill-opacity:1;"/>
<path d="M87.834 125.691C76.6176 124.657 81.178 126.739 79.7004 117.343C78.8105 111.932 79.3713 106.432 79.3176 100.985C78.3135 91.847 78.243 82.632 78.4982 73.454C78.4982 72.151 77.4874 59.4939 79.5023 61.3477C80.3083 65.1928 79.6668 69.2697 80.3989 73.1484C81.1948 80.0563 82.565 86.9608 81.7691 93.9458C81.5172 98.1033 82.518 102.224 82.4944 106.368C82.6657 111.946 82.078 117.534 81.2788 123.041C84.2273 123.162 87.1489 122.591 90.0874 122.531C90.8866 122.528 91.293 123.438 91.293 124.119C91.3601 126.084 89.1874 125.748 87.834 125.694V125.691Z" fill="black" style="fill:black;fill-opacity:1;"/>
<path d="M100.085 125.06C99.3259 124.845 99.1681 123.972 99.1983 123.283C97.8987 116.486 97.939 109.662 97.714 102.781C97.442 99.0772 96.9349 95.3865 96.7099 91.679C96.5655 86.4133 97.8517 81.1678 97.1263 75.9088C96.6259 71.2913 95.8636 66.6738 96.2364 62.0193C96.3439 61.1965 95.8502 59.4469 96.7535 59.1312C98.0196 58.8659 97.5662 65.0484 98.1875 66.2406C98.9565 76.5234 100.568 86.6854 100.243 97.0253C99.9036 101.663 100.847 106.234 101.233 110.828C101.425 114.928 101.089 118.911 101.025 122.988C102.59 123.575 106.855 122.148 107.292 123.706C107.446 124.166 107.08 124.949 106.523 124.751C104.397 124.996 102.224 125.144 100.085 125.063V125.06Z" fill="black" style="fill:black;fill-opacity:1;"/>
<path d="M25.7105 82.2256C23.8904 81.1174 23.3397 78.5283 22.1072 76.8256C19.3635 72.3055 16.959 67.3085 16.002 62.0999C16.9758 58.2043 21.0426 71.7883 22.0938 72.6514C23.6184 75.0995 25.5964 77.2656 27.1647 79.6667C27.5777 80.6977 26.9833 82.4137 25.7105 82.2223V82.2256Z" fill="black" style="fill:black;fill-opacity:1;"/>
<path d="M159.982 69.1623C158.518 67.7485 160.439 65.6194 160.64 63.9906C161.947 58.3723 163.125 52.7272 165.191 47.3171C165.896 46.1988 166.742 40.5671 168.545 41.9574C169.848 43.2402 167.803 46.5111 167.699 48.244C167.011 51.6593 165.869 54.9369 164.741 58.2246C164.133 59.954 162.511 69.6694 159.982 69.1623Z" fill="black" style="fill:black;fill-opacity:1;"/>
<path d="M79.0556 43.8144C70.7441 41.833 74.1459 27.7017 82.5045 30.1229C89.4493 32.7591 86.5042 45.6312 79.0556 43.8144Z" fill="white" style="fill:white;fill-opacity:1;"/>
<path d="M92.7907 36.8025C92.3273 33.2663 94.5034 28.6387 98.6542 29.5656C107.177 28.4473 107.372 43.5189 99.1814 43.66C95.6452 43.6365 92.8982 40.1809 92.7907 36.8025Z" fill="white" style="fill:white;fill-opacity:1;"/>
<path d="M79.6702 41.1144C75.3247 39.8752 76.6411 32.1513 80.8489 31.6375C85.8527 32.3125 84.4053 41.336 79.6702 41.1144Z" fill="black" style="fill:black;fill-opacity:1;"/>
<path d="M99.4265 31.6275C104.078 31.8727 103.08 40.2346 98.822 40.3924C94.2414 40.0264 94.9567 31.6443 99.4265 31.6275Z" fill="black" style="fill:black;fill-opacity:1;"/>
<path d="M78.636 50.4805C77.4741 49.782 78.0886 48.029 79.4017 48.0256C83.5759 47.6394 87.7703 47.4077 91.9681 47.3338C94.9502 47.0786 97.9424 47.2365 100.931 47.2768C101.744 47.3305 101.982 48.4185 101.66 49.0432C101.435 49.6074 100.8 49.5939 100.226 49.5805C96.7066 49.8962 93.3584 50.2421 89.8457 50.1682C86.1315 49.9533 82.2159 51.6659 78.636 50.4805Z" fill="black" style="fill:black;fill-opacity:1;"/>
<path d="M9.48351 112.947C18.7052 114.438 27.8361 111.429 37.0679 111.587C42.2966 111.795 47.5254 111.388 52.7608 111.55C52.8951 108.504 53.2646 105.485 53.7549 102.479C54.3694 95.8432 57.3045 90.6884 60.1489 83.2936C63.628 74.2499 71.8086 69.0447 80.315 64.7327C87.4377 62.2812 95.5814 64.1115 102.436 66.7107C118.169 74.0652 120.147 95.1044 125.527 109.81C133.345 109.296 141.132 110.75 148.923 111.137C156.768 110.912 164.586 110.875 172.424 111.365C169.667 100.038 168.089 88.3678 166.702 76.782C165.993 69.7197 162.061 63.5003 159.149 57.1667C153.155 42.142 147.775 35.5532 134.574 26.3215C123.485 14.7323 107.07 12.4319 91.7262 13.1439C89.5265 13.436 85.9098 12.573 83.7605 13.1439C77.0944 15.6121 69.8844 16.1192 63.4433 19.2189C56.6362 22.614 50.6989 27.4868 45.1511 32.6383C40.3556 37.0846 35.0832 41.1144 30.9358 46.2055C27.1611 51.948 23.9272 59.0809 21.0492 65.3674C17.6708 71.2107 15.0078 77.3361 13.0298 83.7872C10.0175 93.385 4.96335 102.526 3.41857 112.493C5.45029 112.473 7.47194 112.708 9.48687 112.947V112.94L9.48351 112.947ZM2.78051 115.912C0.68163 115.757 0.298793 114.391 1.54469 113.057C1.27939 104.692 6.985 97.6432 8.18388 89.5164C9.04694 82.7361 12.066 76.688 14.9104 70.6734C17.8925 62.2074 22.2514 53.9663 27.957 47.0517C34.7238 36.9032 42.8373 27.0502 53.7817 21.264C63.3459 16.623 73.2795 12.2976 83.7605 9.84273C90.4265 9.10392 97.4486 8.87557 104.175 8.83191C110.69 9.17781 116.597 11.8442 122.205 14.9909C136.938 21.0491 150.122 31.3689 158.101 45.3122C162.175 54.7756 164.646 64.8033 169.173 74.082C170.631 79.0891 171.447 84.2876 171.756 89.4928C172.572 97.0186 173.858 104.511 174.953 111.993C175.816 115.066 172.098 114.414 170.177 114.629C166.178 114.982 162.705 113.884 158.665 113.729C151.281 113.685 143.876 112.671 136.565 112.604C132.502 112.795 129.174 111.002 125.48 112.782C120.862 114.149 118.437 95.9373 117.333 92.7772C115.422 86.8969 112.466 81.1544 109.075 76.0869C103.06 68.1715 92.0385 67.8727 82.9982 67.5536C65.0922 70.4484 61.247 91.6522 56.7806 106.072C56.3776 107.543 56.0384 109.028 55.7597 110.525C55.2828 112.628 56.1459 115.432 52.9489 115.197C47.4011 114.904 42.5451 114.857 37.0108 114.868C27.5541 114.505 18.7555 116.023 9.32232 115.912" fill="black" style="fill:black;fill-opacity:1;"/>
</g>
</g>
</g>
<g clip-path="url(#clip2_197_1091)">
<mask id="mask2_197_1091" style="mask-type:luminance" maskUnits="userSpaceOnUse" x="275" y="6" width="120" height="137">
<path d="M394.369 6.49422L275.455 6.36365V142.727H394.369V6.49422Z" fill="white" style="fill:white;fill-opacity:1;"/>
</mask>
<g mask="url(#mask2_197_1091)">
<g opacity="0.99">
<path d="M341.557 100.833C348.65 100.17 354.165 95.7093 357.182 89.1083C359.412 82.3904 356.962 73.4424 349.928 70.6831C347.237 69.5389 344.183 69.4152 341.355 69.3533C335.633 68.374 329.988 66.9205 324.187 66.4222C317.947 64.9274 311.769 61.4569 305.367 60.5188C297.292 57.8625 292.591 62.7764 291.783 70.6591C290.526 79.7789 292.368 91.8469 301.927 95.51C307.693 97.4858 314.353 100.441 320.459 101.139C326.778 101.242 332.888 101.307 339.179 101.317L341.557 100.833Z" fill="black" style="fill:black;fill-opacity:1;"/>
<path d="M326.782 100.895C326.816 100.857 326.847 100.812 326.871 100.771C328.905 99.764 327.658 96.8398 326.792 95.3691C325.067 92.2387 320.971 92.8538 317.982 93.1733C314.638 88.7612 304.34 90.8711 308.003 97.1903C313.82 99.8568 320.569 100.881 326.778 100.891L326.782 100.895Z" fill="#E5A39B" style="fill:#E5A39B;fill:color(display-p3 0.8980 0.6392 0.6078);fill-opacity:1;"/>
<path d="M305.69 60.9139C312.098 61.852 317.947 64.9377 324.19 66.4325C329.991 66.9308 335.637 68.3843 341.358 69.3636C344.182 69.4255 347.241 69.5492 349.931 70.6934C356.965 73.4493 359.412 82.3973 357.185 89.1151C354.172 95.7196 346.499 100.169 339.406 100.843C335.448 101.169 331.499 100.207 327.506 100.231C327.379 100.341 327.232 100.438 327.063 100.523C326.692 101.042 325.988 100.857 325.403 100.719C319.541 99.9771 313.504 99.7056 307.927 96.8604C299.515 92.5754 292.663 88.0499 292.213 78.48C291.199 69.3774 293.653 56.7148 305.69 60.9208V60.9139ZM327.118 118.983C342.148 117.636 355.852 118.801 368.552 109.289C390.768 99.52 395.324 86.562 389.702 63.4911C387.129 37.7983 366.669 13.298 339.574 13.298C335.695 13.298 330.29 13.6141 326.379 14.6553C320.531 15.1501 315.985 18.6791 311.26 21.9539C294.663 31.0324 286.495 39.111 283.523 58.4158C277.585 71.8893 278.093 87.6307 284.856 100.75C293.254 115.464 311.071 119.756 327.118 118.983Z" fill="#F87361" style="fill:#F87361;fill:color(display-p3 0.9725 0.4510 0.3804);fill-opacity:1;"/>
<path d="M347.856 51.5571C348.049 51.3028 348.217 51.0347 348.368 50.7564C348.334 51.0588 348.104 51.3818 347.856 51.5571ZM347.44 56.7458C357.086 53.0175 351.784 35.8431 341.54 38.9117C336.235 40.9116 335.159 48.3854 337.901 52.8388C340.066 55.7252 343.825 58.2062 347.44 56.7492V56.7458Z" fill="white" style="fill:white;fill-opacity:1;"/>
<path d="M325.373 41.5851C322.108 32.3863 309.982 37.5475 310.483 45.4543C310.855 59.3539 331.314 55.8214 325.373 41.5817V41.5851Z" fill="white" style="fill:white;fill-opacity:1;"/>
<path d="M347.863 52.8216C349.488 52.3027 348.925 49.3785 347.389 49.0177C345.385 47.9765 345.42 52.1206 346.942 52.3886C347.162 52.6532 347.512 52.8491 347.863 52.8216Z" fill="white" style="fill:white;fill-opacity:1;"/>
<path d="M338.393 49.753C342.124 48.6637 345.464 45.1038 346.179 41.2071C346.437 39.7983 345.423 37.5372 343.715 38.0389C341.52 37.8087 339.224 39.4993 337.963 41.2037C336.279 43.262 333.829 50.0039 338.393 49.7496V49.753Z" fill="black" style="fill:black;fill-opacity:1;"/>
<path d="M312.899 48.3717C316.315 47.4164 319.146 43.4819 319.72 40.1041C319.978 38.8636 319.775 35.9497 317.961 36.3689C314.892 36.4067 312.171 38.6849 310.985 41.4202C310.119 43.8118 308.521 49.5331 312.903 48.3682L312.899 48.3717Z" fill="black" style="fill:black;fill-opacity:1;"/>
<path d="M340.118 138.892C339.946 136.923 340.654 134.693 340.76 132.797C340.953 125.745 343.093 118.217 341.303 111.32C338.296 109.049 339.025 120.66 338.774 122.216C338.341 127.175 338.015 132.13 337.922 137.102C334.974 137.219 332.087 136.429 329.159 136.205C327.555 136.308 327.469 139.15 328.974 139.514C331.211 139.683 333.472 139.611 335.709 139.851C336.812 139.913 337.911 139.896 339.011 139.947H339.045C339.619 139.947 339.99 139.391 340.121 138.889L340.118 138.892Z" fill="black" style="fill:black;fill-opacity:1;"/>
<path d="M311.391 138.36C312.576 137.49 311.779 135.93 311.975 134.742C312.092 126.8 313.305 118.887 313.428 110.973C313.339 110.248 313.071 108.808 312.026 109.117C311.064 109.454 311.501 112.145 311.191 113.117C309.999 120.515 309.552 128.013 309.858 135.504C307.748 135.408 305.573 134.422 303.508 134.903C301.817 135.563 302.316 139.088 304.34 138.535C305.412 138.298 306.535 138.401 307.656 138.501C308.271 138.556 308.886 138.614 309.491 138.614C310.137 138.614 310.772 138.552 311.387 138.353L311.391 138.36Z" fill="black" style="fill:black;fill-opacity:1;"/>
<path d="M388.325 108.52C389.445 106.392 388.861 103.527 389.156 101.142C389.558 96.3243 389.727 91.5411 389.41 86.7063C389.187 85.1084 390.397 78.4181 388.142 78.6105C387.524 78.8888 387.493 79.6689 387.476 80.2565C387.246 84.4899 387.033 88.7027 386.943 92.9431C386.713 96.1869 386.658 99.441 386.861 102.688C387.252 104.125 385.507 109.678 388.328 108.516L388.325 108.52Z" fill="black" style="fill:black;fill-opacity:1;"/>
<path d="M279.117 105.317C280.688 96.156 282.409 86.9675 282.578 77.6415C282.619 76.7756 282.499 75.0334 281.255 75.3358C280.004 75.8169 280.042 79.9885 279.743 81.2908C278.963 84.5758 278.588 87.9227 278.193 91.2696C277.179 95.8192 277.186 100.475 276.702 105.08C276.75 107.018 278.822 107.296 279.121 105.317H279.117Z" fill="black" style="fill:black;fill-opacity:1;"/>
<path d="M372.985 28.0429C377.325 33.455 381.005 39.5096 384.445 45.554C389.019 56.0963 390.266 67.9067 391.352 79.2394C392.527 88.5481 386.466 96.7092 379.724 102.441C373.336 106.094 366.687 109.286 360.436 113.193C356.388 115.354 352 116.684 347.42 117.024C331.548 119.062 314.775 121.027 299.821 113.932C279.98 103.973 274.822 77.5419 283.53 58.4089C286.505 39.1248 294.663 31.0187 311.267 21.9504C329.603 9.13671 357.289 12.2499 372.989 28.0395V28.0463L372.985 28.0429ZM319.631 121.691C327.909 121.186 338.778 122.216 348.014 120.395C359.639 118.107 366.824 114.231 376.868 107.808C388.452 100.922 392.847 94.6337 392.964 80.9472C394.304 70.4632 391.929 59.9587 388.091 50.2272C385.73 44.1382 384.421 37.4719 380.404 32.1698C371.398 20.9264 365.687 14.3495 350.784 12.8169C341.138 9.69682 334.245 10.1229 324.469 12.4046C319.93 13.2327 315.157 13.6279 311.026 15.8339C293.773 26.6821 279.3 44.3066 277.874 65.2608C275.231 77.4938 276.702 90.0704 281.873 101.455C284.712 106.956 290.351 110.135 295.127 113.743C301.855 119.254 310.714 122.192 319.627 121.687L319.631 121.691Z" fill="black" style="fill:black;fill-opacity:1;"/>
</g>
<path d="M352.467 36.3723C353.048 36.1868 354.028 33.1766 352.718 34.4068C352.485 33.4309 351.663 33.046 350.787 33.5374C350.365 32.3073 349.44 32.2248 348.526 33.0254C348.062 31.9636 347.337 31.6647 346.334 32.2866C345.732 30.8606 342.956 31.3382 343.162 32.967C343.42 34.125 344.293 33.2076 344.942 33.1216C345.736 34.0769 345.822 34.3931 347.049 33.6474C347.543 35.07 348.117 35.7263 349.327 34.4034C349.849 35.9497 350.316 35.8019 351.44 34.9154C351.753 35.3792 351.653 36.6266 352.464 36.3689L352.467 36.3723Z" fill="black" style="fill:black;fill-opacity:1;"/>
<path d="M323.417 31.242C323.802 31.0702 323.868 30.5994 324.101 30.2867C324.531 31.1699 325.572 31.5032 325.716 30.2627C326.359 29.8263 325.723 28.5961 325.098 29.3727C324.534 28.4037 323.672 28.4724 323.163 29.4208C322.648 28.6236 321.83 28.9157 321.359 29.5789C320.541 28.7954 319.906 28.8607 319.198 29.6923C318.366 28.8951 317.816 28.8538 317.054 29.7644C316.469 30.7781 317.576 31.4619 318.05 30.2112H318.047C318.394 29.9912 318.648 30.6716 319.002 30.7403C319.545 30.9946 319.758 30.2386 320.198 30.163C320.992 30.9259 321.524 31.9739 322.335 30.4551C322.562 30.8434 322.902 31.4688 323.421 31.2455L323.417 31.242Z" fill="black" style="fill:black;fill-opacity:1;"/>
</g>
</g>
<g clip-path="url(#clip3_197_1091)">
<mask id="mask3_197_1091" style="mask-type:luminance" maskUnits="userSpaceOnUse" x="370" y="6" width="130" height="137">
<path d="M499.562 6.49422L370.909 6.36365V142.727H499.562V6.49422Z" fill="white" style="fill:white;fill-opacity:1;"/>
</mask>
<g mask="url(#mask3_197_1091)">
<g opacity="0.99">
<path d="M380.139 114.43C378.373 114.567 376.606 114.78 374.847 115.004C381.019 105.791 387.444 96.8398 392.499 86.9503C394.032 84.1944 395.757 81.5554 397.471 78.9095C402.942 70.9271 406.302 62.1819 411.244 54.0792C416.295 46.791 421.181 39.434 426.047 32.0358C429.806 26.6099 434.297 21.6961 437.407 15.8305C442.665 23.1909 445.654 31.833 450.269 39.5714C454.07 46.2549 458.832 52.3474 462.464 59.1236C465.072 64.4292 467.244 69.8481 470.57 74.7276C472.471 77.559 474.436 80.3493 475.934 83.4281C478.766 89.8298 483.298 95.1869 486.724 101.176C488.906 105.43 491.346 109.533 493.741 113.667C480.865 111.22 467.99 115.543 455.039 114.584C448.17 114.32 441.342 113.193 434.466 113.237C429.445 113.341 424.511 114.413 419.494 114.619C406.381 114.798 393.248 113.777 380.146 114.437L380.139 114.43ZM485.848 117.035C489.38 117.103 492.772 118.261 496.277 118.34C498.435 117.955 498.418 113.801 496.084 113.791C491.126 104.949 485.813 96.3484 481.566 87.1358C477.91 81.4111 474.611 75.5282 471.656 69.4152C467.385 62.0822 461.849 55.5293 458.626 47.5916C453.764 36.9118 446.754 27.5102 440.837 17.4524C439.617 15.7136 438.548 9.89953 436.002 12.9956C429.586 20.1567 425.195 28.8091 419.016 36.1696C414.336 42.2208 411.855 49.5915 407.728 55.9898C400.897 65.1851 395.248 75.0849 389.516 84.9779C383.768 93.4826 379.06 102.413 374.521 111.578C373.868 113.433 371.376 115.162 372.198 117.206C372.524 117.749 373.153 117.787 373.727 117.808C376.211 118.151 378.713 118.419 381.218 118.577C391.279 118.818 401.361 118.361 411.426 118.148C421.996 117.22 431.676 118.172 442.29 117.804C449.042 117.571 456.489 117.464 463.251 117.773" fill="black" style="fill:black;fill-opacity:1;"/>
<path d="M376.221 114.835C390.585 113.327 405.076 114.918 419.484 114.612C424.501 114.413 429.432 113.337 434.455 113.234C441.331 113.189 448.159 114.316 455.028 114.581C467.983 115.54 480.855 111.214 493.73 113.66C490.119 107.825 487.257 101.558 483.418 95.8673C480.58 92.0737 478.006 87.7475 475.924 83.4212C474.426 80.3458 472.464 77.5556 470.56 74.7241C467.234 69.8447 465.065 64.4292 462.454 59.1236C458.822 52.3474 454.059 46.2515 450.259 39.568C445.64 31.8296 442.651 23.1909 437.393 15.827C434.28 21.6961 429.792 26.6065 426.033 32.0323C421.167 39.4305 416.281 46.7841 411.23 54.0758C406.289 62.1784 402.928 70.9237 397.457 78.906C395.739 81.5485 394.021 84.191 392.482 86.9468C387.424 96.8363 381.005 105.791 374.83 115C375.29 114.945 375.747 114.89 376.204 114.828L376.215 114.835H376.221Z" fill="#088EC6" style="fill:#088EC6;fill:color(display-p3 0.0314 0.5569 0.7765);fill-opacity:1;"/>
<path d="M450.826 75.542C456.513 72.6109 455.454 65.2092 452.822 60.4878C451.211 57.9759 447.967 57.3196 445.173 57.543C433.445 58.89 440.661 79.8888 450.829 75.5454L450.826 75.542Z" fill="white" style="fill:white;fill-opacity:1;"/>
<path d="M425.982 74.6382C436.17 72.659 432.747 54.5569 422.425 56.2818C411.213 58.4639 415.274 77.3254 425.982 74.6382Z" fill="white" style="fill:white;fill-opacity:1;"/>
<path d="M446.881 67.1438C446.627 63.1887 440.448 55.5877 439.16 63.2127C436.82 72.6658 449.142 83.9264 446.881 67.1438Z" fill="black" style="fill:black;fill-opacity:1;"/>
<path d="M421.573 74.487C424.075 70.5559 422.205 62.0478 418.45 59.3641C415.048 58.2542 415.542 66.2228 415.969 68.1575C416.511 70.0955 419.006 75.8581 421.573 74.487Z" fill="black" style="fill:black;fill-opacity:1;"/>
<path d="M435.139 92.5307C439.603 91.7232 438.758 83.8026 434.534 83.3456C428.734 82.8474 429.693 93.3485 435.139 92.5307Z" fill="black" style="fill:black;fill-opacity:1;"/>
<path d="M400.035 85.9537C401.725 84.428 402.677 82.1086 402.509 79.8304C402.488 75.0127 395.984 75.6347 395.193 71.5078C395.526 68.7657 397.657 66.539 397.66 63.7247C398.269 59.9414 392.386 58.8246 393.843 54.9623C394.533 53.361 392.602 51.2202 391.479 53.2408C389.393 59.5222 395.465 61.4052 395.193 63.7522C394.784 65.216 393.747 66.4187 393.166 67.8207C391.448 71.4631 392.19 74.5901 395.152 77.2497C398.227 79.7479 401.196 78.9953 398.794 84.0019C397.729 84.9744 398.856 86.7338 400.035 85.9606V85.9537Z" fill="black" style="fill:black;fill-opacity:1;"/>
<path d="M473.034 90.6374C475.216 90.0944 472.237 85.6686 472.096 84.1772C470.907 81.2564 473.866 79.4077 475.522 77.4766C482.171 70.9958 474.261 67.1473 479.924 60.3298C480.518 59.4466 480.288 57.8419 479.144 57.5464C477.522 57.1684 475.828 62.5221 475.422 63.821C474.415 66.5734 476.309 69.3671 475.467 72.0301C470.824 78.504 466.557 80.418 471.704 89.0155C472.01 89.6134 472.209 90.6477 473.034 90.6339V90.6374Z" fill="black" style="fill:black;fill-opacity:1;"/>
<path d="M446.84 135.683C449.327 135.518 451.832 135.432 454.324 135.456C455.214 135.82 455.839 134.848 455.719 134.04C455.575 129.701 457.592 110.932 455.166 108.908C454.379 108.798 453.929 109.873 454.128 110.519C453.898 118.045 453.09 125.498 453.75 132.937C450.544 133.113 447.393 132.463 444.238 132.151C442.85 132.508 442.771 134.886 444.056 135.429C444.977 135.618 445.912 135.704 446.84 135.683Z" fill="black" style="fill:black;fill-opacity:1;"/>
<path d="M421.532 134.631C422.253 134.047 421.834 133.126 421.886 132.36C422.13 129.824 422.123 127.278 422.205 124.735C422.336 119.419 423.288 114.031 422.147 108.76C421.985 107.932 421.312 106.392 420.284 107.159C419.295 107.946 419.882 113.887 419.683 115.584C419.632 121.165 419.161 126.752 420.03 132.298C416.402 132.109 412.763 131.532 409.137 131.477C407.553 131.601 407.55 134.501 409.137 134.611C413.25 134.504 417.529 134.759 421.532 134.631Z" fill="black" style="fill:black;fill-opacity:1;"/>
</g>
<path d="M442.507 53.4951C444.957 51.1928 448.269 51.9419 451.039 53.1274C453.176 51.4917 447.554 49.4987 446.3 49.3338C444.383 49.0967 442.62 50.6464 441.414 51.9934C440.84 52.7975 441.658 54.3919 442.507 53.4951Z" fill="black" style="fill:black;fill-opacity:1;"/>
<path d="M429.957 52.5776C427.284 50.5433 424.064 51.6326 421.432 53.0999C419.137 51.6979 424.521 49.1276 425.751 48.8355C427.634 48.4025 429.548 49.7599 430.885 50.9729C431.541 51.7151 430.892 53.3817 429.954 52.5776H429.957Z" fill="black" style="fill:black;fill-opacity:1;"/>
</g>
</g>
<defs>
<clipPath id="clip0_197_1091">
<rect width="121.086" height="136.364" fill="white" style="fill:white;fill-opacity:1;" transform="translate(161.736 12.6821) rotate(-5.67278)"/>
</clipPath>
<clipPath id="clip1_197_1091">
<rect width="175.215" height="136.364" fill="white" style="fill:white;fill-opacity:1;" transform="translate(0 6.36365)"/>
</clipPath>
<clipPath id="clip2_197_1091">
<rect width="118.914" height="136.364" fill="white" style="fill:white;fill-opacity:1;" transform="matrix(-1 0 0 1 394.369 6.36365)"/>
</clipPath>
<clipPath id="clip3_197_1091">
<rect width="128.653" height="136.364" fill="white" style="fill:white;fill-opacity:1;" transform="matrix(-1 0 0 1 499.562 6.36365)"/>
</clipPath>
</defs>
</svg>