<svg xmlns="http://www.w3.org/2000/svg" width="95" height="80" viewBox="0 0 95 80" fill="none"><title>7. The AgencyTriangle.svg</title>
<path d="M80.251 74.8676C83.3104 75.6925 86.3483 74.7537 89.4324 74.7753C87.3425 72.119 85.4527 69.2935 83.7567 66.3695C81.4883 62.9437 78.8505 59.7427 77.2316 55.9199C75.3417 50.3704 71.7775 45.6551 69.4044 40.3241C65.914 34.0298 61.4541 28.3264 57.853 22.0998C54.7904 15.6977 51.3339 9.48338 48.1698 3.1244C44.9319 8.88319 42.368 15.0267 38.6068 20.4992C33.3066 27.3876 28.2496 34.3961 23.8389 41.9031C20.4286 47.0032 16.6581 51.8201 13.7895 57.2711C12.1182 60.4075 10.8255 63.744 9.30497 66.9543C7.63058 69.4289 5.97158 71.8913 4.58344 74.5506C13.1524 72.9901 21.8259 73.5934 30.4318 72.553C36.4091 72.2698 42.3803 73.3502 48.3207 72.9378C52.7621 72.67 56.9942 74.1289 61.3002 74.9445C67.6192 75.6155 73.9813 73.8088 80.251 74.8645V74.8676ZM81.83 79.8538C74.0767 77.7301 66.0587 77.9701 58.13 77.6777C55.9047 77.8316 53.7039 77.373 51.4817 77.6069C49.007 77.7147 46.6894 78.715 44.2024 78.6073C39.1731 78.2348 34.1622 77.2068 29.1237 77.0868C25.8611 77.6531 22.5739 77.9301 19.3174 78.5088C13.9342 79.0136 8.40006 78.4688 3.09989 79.5768C2.43198 79.6692 1.79177 80.1062 1.12386 79.7861C-3.47455 79.0874 7.4613 64.0487 8.42776 61.6172C13.4817 54.3871 16.0887 45.969 20.8933 38.6313C25.3378 32.4908 29.7146 26.2426 33.4297 19.6928C37.8003 13.2384 43.0236 7.39347 47.2157 0.834429C48.4284 -1.62483 49.835 2.04098 50.6076 3.00437C52.1281 5.34358 54.0733 7.36886 55.3845 9.8435C59.5181 16.3564 63.067 23.4079 66.7635 30.1547C69.9369 36.8553 73.5042 43.2789 78.5027 48.8038C81.5499 54.1347 85.9636 58.8101 87.9889 64.6858C89.3678 68.524 91.5008 71.9836 94.2155 74.9784C96.3485 79.346 90.3773 79.5891 87.4933 79.6199C85.622 79.9246 83.7136 80.1647 81.83 79.8569V79.8538Z" fill="black" style="fill:black;fill-opacity:1;"/>
<path d="M80.251 74.8676C73.9812 73.8118 67.6161 75.6186 61.2971 74.9476C56.9911 74.1319 52.759 72.673 48.3175 72.9408C42.3802 73.3563 36.406 72.2759 30.4287 72.5591C21.8228 73.6025 13.1523 72.9962 4.58032 74.5567C5.96846 71.8974 7.62438 69.435 9.30185 66.9604C10.8223 63.7532 12.112 60.4137 13.7864 57.2773C16.655 51.8263 20.4285 47.0093 23.8358 41.9092C28.2434 34.3991 33.3035 27.3907 38.6036 20.5054C42.3618 15.0297 44.9257 8.8893 48.1667 3.12744C51.3308 9.48642 54.7843 15.7007 57.8499 22.1028C61.451 28.3294 65.9109 34.0328 69.4013 40.3272C71.7744 45.6581 75.3386 50.3735 77.2284 55.923C78.8474 59.7457 81.4852 62.9437 83.7536 66.3725C85.4496 69.2935 87.3394 72.119 89.4293 74.7783C86.3422 74.7568 83.3166 75.6986 80.2479 74.8706L80.251 74.8676Z" fill="#EBB778" style="fill:#EBB778;fill:color(display-p3 0.9216 0.7176 0.4706);fill-opacity:1;"/>
<path d="M36.2954 38.1602C35.8244 38.0186 35.1535 38.2249 34.8918 37.7108C34.6702 37.2923 34.8734 36.5197 35.412 36.5628C37.9944 36.0672 40.4136 34.7899 42.5497 33.2171C44.2641 31.4965 45.3875 34.9469 43.7101 35.7471C41.7587 37.5631 38.8654 38.0494 36.2954 38.1602Z" fill="black" style="fill:black;fill-opacity:1;"/>
<path d="M36.6586 49.8564C31.6262 49.3855 29.9302 39.807 34.2239 40.558C41.614 42.3525 41.023 39.253 43.6577 40.2749C45.9816 41.8723 44.6365 46.1475 43.1345 47.9327C41.5063 49.6102 38.9362 50.3089 36.6586 49.8595V49.8564Z" fill="white" style="fill:white;fill-opacity:1;"/>
<path d="M37.0738 50.1611C34.9131 50.1519 31.5274 48.1297 32.7094 45.6489C33.7897 42.9557 45.7043 43.0788 42.9896 47.7111C41.8477 49.881 39.2622 50.2011 37.0738 50.1611Z" fill="black" style="fill:black;fill-opacity:1;"/>
<path d="M59.0043 38.1943C56.4219 37.6895 50.817 37.0739 51.6173 33.3989C52.7099 31.506 54.6151 34.5254 55.9725 34.8517C57.4684 35.5504 58.9427 36.3137 60.5894 36.5599C60.8449 36.5168 61.0572 36.7507 61.1465 36.9877C61.5435 38.2928 59.8353 38.1358 59.0073 38.1912L59.0043 38.1943Z" fill="black" style="fill:black;fill-opacity:1;"/>
<path d="M56.1693 49.561C52.7652 49.3271 50.7738 45.3135 51.0939 42.1863C51.177 41.0228 51.5525 39.5424 52.9252 39.6132C55.366 40.3857 58.2962 40.8259 60.7431 39.8932C65.6032 38.2127 64.1935 50.4628 56.1693 49.5579V49.561Z" fill="white" style="fill:white;fill-opacity:1;"/>
<path d="M56.4833 49.995C54.8489 49.7549 53.1807 48.73 52.4081 47.2249C51.1062 46.5015 52.5928 44.9841 53.4485 44.5748C55.4707 43.3775 58.0253 43.4175 60.2353 43.9623C65.4339 46.0152 59.6628 50.3613 56.4802 49.995H56.4833Z" fill="black" style="fill:black;fill-opacity:1;"/>
</svg>